TwilioSansMono-Heavy.ufo
<glyph name="exclam" format="2">
	<unicode hex="0021"/>
	<advance width="600"/>
	<outline>
		<contour>
			<point x="229" y="255" type="line"/>
			<point x="369" y="255" type="line"/>
			<point x="406" y="574" type="line"/>
			<point x="406" y="684" type="line"/>
			<point x="193" y="684" type="line"/>
			<point x="193" y="574" type="line"/>
		</contour>
		<contour>
			<point x="301" y="-12" type="curve" smooth="yes"/>
			<point x="377" y="-12"/>
			<point x="416" y="16"/>
			<point x="416" y="92" type="curve" smooth="yes"/>
			<point x="416" y="165"/>
			<point x="378" y="195"/>
			<point x="301" y="195" type="curve" smooth="yes"/>
			<point x="222" y="195"/>
			<point x="184" y="165"/>
			<point x="184" y="92" type="curve" smooth="yes"/>
			<point x="184" y="16"/>
			<point x="223" y="-12"/>
		</contour>
	</outline>
</glyph>
<glyph name="dollar" format="2">
	<unicode hex="0024"/>
	<advance width="600"/>
	<outline>
		<contour>
			<point x="167" y="-93" type="line"/>
			<point x="287" y="-93" type="line"/>
			<point x="301" y="-11" type="line"/>
			<point x="302" y="-11" type="line" smooth="yes"/>
			<point x="466" y="-11"/>
			<point x="567" y="66"/>
			<point x="567" y="231" type="curve" smooth="yes"/>
			<point x="567" y="351"/>
			<point x="481" y="401"/>
			<point x="361" y="427" type="curve"/>
			<point x="381" y="535" type="line"/>
			<point x="438" y="526"/>
			<point x="500" y="506"/>
			<point x="548" y="477" type="curve"/>
			<point x="548" y="640" type="line"/>
			<point x="520" y="656"/>
			<point x="475" y="672"/>
			<point x="425" y="682" type="curve"/>
			<point x="440" y="774" type="line"/>
			<point x="319" y="774" type="line"/>
			<point x="306" y="695" type="line"/>
			<point x="305" y="695" type="line" smooth="yes"/>
			<point x="141" y="695"/>
			<point x="34" y="617"/>
			<point x="34" y="467" type="curve" smooth="yes"/>
			<point x="34" y="332"/>
			<point x="113" y="291"/>
			<point x="246" y="264" type="curve"/>
			<point x="226" y="153" type="line"/>
			<point x="170" y="164"/>
			<point x="106" y="187"/>
			<point x="46" y="223" type="curve"/>
			<point x="46" y="54" type="line"/>
			<point x="86" y="31"/>
			<point x="131" y="13"/>
			<point x="182" y="2" type="curve"/>
		</contour>
		<contour>
			<point x="223" y="493" type="curve" smooth="yes"/>
			<point x="223" y="532"/>
			<point x="255" y="542"/>
			<point x="296" y="543" type="curve"/>
			<point x="278" y="443" type="line"/>
			<point x="241" y="453"/>
			<point x="223" y="466"/>
		</contour>
		<contour>
			<point x="378" y="195" type="curve" smooth="yes"/>
			<point x="378" y="163"/>
			<point x="354" y="147"/>
			<point x="310" y="145" type="curve"/>
			<point x="329" y="245" type="line"/>
			<point x="362" y="233"/>
			<point x="378" y="218"/>
		</contour>
	</outline>
</glyph>
<glyph name="parenleft" format="2">
	<unicode hex="0028"/>
	<advance width="600"/>
	<outline>
		<contour>
			<point x="475" y="-168" type="curve"/>
			<point x="529" y="-14" type="line"/>
			<point x="351" y="45"/>
			<point x="303" y="144"/>
			<point x="303" y="314" type="curve" smooth="yes"/>
			<point x="303" y="485"/>
			<point x="352" y="598"/>
			<point x="529" y="643" type="curve"/>
			<point x="475" y="798" type="line"/>
			<point x="224" y="726"/>
			<point x="125" y="570"/>
			<point x="125" y="316" type="curve" smooth="yes"/>
			<point x="125" y="56"/>
			<point x="216" y="-95"/>
		</contour>
	</outline>
</glyph>
<glyph name="parenright" format="2">
	<unicode hex="0029"/>
	<advance width="600"/>
	<outline>
		<contour>
			<point x="71" y="-14" type="curve"/>
			<point x="125" y="-168" type="line"/>
			<point x="384" y="-95"/>
			<point x="475" y="56"/>
			<point x="475" y="316" type="curve" smooth="yes"/>
			<point x="475" y="571"/>
			<point x="375" y="726"/>
			<point x="125" y="798" type="curve"/>
			<point x="71" y="643" type="line"/>
			<point x="247" y="598"/>
			<point x="297" y="487"/>
			<point x="297" y="314" type="curve" smooth="yes"/>
			<point x="297" y="142"/>
			<point x="248" y="45"/>
		</contour>
	</outline>
</glyph>
<glyph name="comma" format="2">
	<unicode hex="002C"/>
	<advance width="600"/>
	<outline>
		<contour>
			<point x="209" y="207" type="line"/>
			<point x="164" y="-175" type="line"/>
			<point x="301" y="-175" type="line"/>
			<point x="451" y="207" type="line"/>
		</contour>
	</outline>
	<guideline x="340" y="-158" angle="0"/>
</glyph>
<glyph name="slash" format="2">
	<unicode hex="002F"/>
	<advance width="600"/>
	<outline>
		<contour>
			<point x="366" y="792" type="line"/>
			<point x="44" y="-163" type="line"/>
			<point x="233" y="-163" type="line"/>
			<point x="556" y="792" type="line"/>
		</contour>
	</outline>
</glyph>
<glyph name="one" format="2">
	<unicode hex="0031"/>
	<advance width="600"/>
	<outline>
		<contour>
			<point x="45" y="0" type="line"/>
			<point x="575" y="0" type="line"/>
			<point x="575" y="172" type="line"/>
			<point x="423" y="172" type="line"/>
			<point x="423" y="684" type="line"/>
			<point x="227" y="684" type="line"/>
			<point x="55" y="549" type="line"/>
			<point x="55" y="358" type="line"/>
			<point x="226" y="489" type="line"/>
			<point x="226" y="172" type="line"/>
			<point x="45" y="172" type="line"/>
		</contour>
	</outline>
</glyph>
<glyph name="five" format="2">
	<unicode hex="0035"/>
	<advance width="600"/>
	<outline>
		<contour>
			<point x="282" y="-14" type="curve" smooth="yes"/>
			<point x="445" y="-14"/>
			<point x="548" y="83"/>
			<point x="548" y="234" type="curve" smooth="yes"/>
			<point x="548" y="370"/>
			<point x="480" y="436"/>
			<point x="328" y="436" type="curve" smooth="yes"/>
			<point x="301" y="436"/>
			<point x="278" y="435"/>
			<point x="257" y="433" type="curve"/>
			<point x="258" y="526" type="line"/>
			<point x="531" y="526" type="line"/>
			<point x="531" y="684" type="line"/>
			<point x="78" y="684" type="line"/>
			<point x="78" y="274" type="line"/>
			<point x="124" y="284"/>
			<point x="172" y="291"/>
			<point x="235" y="291" type="curve" smooth="yes"/>
			<point x="322" y="291"/>
			<point x="349" y="266"/>
			<point x="349" y="222" type="curve" smooth="yes"/>
			<point x="349" y="182"/>
			<point x="327" y="146"/>
			<point x="256" y="146" type="curve" smooth="yes"/>
			<point x="201" y="146"/>
			<point x="126" y="163"/>
			<point x="52" y="206" type="curve"/>
			<point x="52" y="39" type="line"/>
			<point x="98" y="13"/>
			<point x="167" y="-14"/>
		</contour>
	</outline>
</glyph>
<glyph name="six" format="2">
	<unicode hex="0036"/>
	<advance width="600"/>
	<outline>
		<contour>
			<point x="300" y="-14" type="curve" smooth="yes"/>
			<point x="481" y="-14"/>
			<point x="569" y="99"/>
			<point x="569" y="259" type="curve" smooth="yes"/>
			<point x="569" y="377"/>
			<point x="517" y="456"/>
			<point x="399" y="456" type="curve" smooth="yes"/>
			<point x="336" y="456"/>
			<point x="281" y="427"/>
			<point x="239" y="360" type="curve"/>
			<point x="247" y="482"/>
			<point x="271" y="540"/>
			<point x="386" y="540" type="curve" smooth="yes"/>
			<point x="443" y="540"/>
			<point x="516" y="520"/>
			<point x="549" y="498" type="curve"/>
			<point x="550" y="656" type="line"/>
			<point x="511" y="681"/>
			<point x="425" y="698"/>
			<point x="358" y="698" type="curve" smooth="yes"/>
			<point x="113" y="698"/>
			<point x="28" y="547"/>
			<point x="28" y="318" type="curve" smooth="yes"/>
			<point x="28" y="304" type="line" smooth="yes"/>
			<point x="28" y="95"/>
			<point x="100" y="-14"/>
		</contour>
		<contour>
			<point x="300" y="139" type="curve" smooth="yes"/>
			<point x="260" y="139"/>
			<point x="230" y="158"/>
			<point x="230" y="233" type="curve" smooth="yes"/>
			<point x="230" y="292"/>
			<point x="252" y="325"/>
			<point x="302" y="325" type="curve" smooth="yes"/>
			<point x="346" y="325"/>
			<point x="369" y="299"/>
			<point x="369" y="235" type="curve" smooth="yes"/>
			<point x="369" y="165"/>
			<point x="343" y="139"/>
		</contour>
	</outline>
	<guideline x="598" y="267" angle="90"/>
	<guideline x="299" y="325" angle="90"/>
</glyph>
<glyph name="nine" format="2">
	<unicode hex="0039"/>
	<advance width="600"/>
	<outline>
		<contour>
			<point x="247" y="-14" type="curve" smooth="yes"/>
			<point x="488" y="-14"/>
			<point x="572" y="142"/>
			<point x="572" y="372" type="curve" smooth="yes"/>
			<point x="572" y="383" type="line" smooth="yes"/>
			<point x="572" y="595"/>
			<point x="500" y="698"/>
			<point x="302" y="698" type="curve" smooth="yes"/>
			<point x="122" y="698"/>
			<point x="31" y="585"/>
			<point x="31" y="435" type="curve" smooth="yes"/>
			<point x="31" y="310"/>
			<point x="87" y="226"/>
			<point x="201" y="226" type="curve" smooth="yes"/>
			<point x="270" y="226"/>
			<point x="324" y="253"/>
			<point x="362" y="322" type="curve"/>
			<point x="357" y="196"/>
			<point x="327" y="146"/>
			<point x="217" y="146" type="curve" smooth="yes"/>
			<point x="160" y="146"/>
			<point x="89" y="175"/>
			<point x="51" y="200" type="curve"/>
			<point x="51" y="33" type="line"/>
			<point x="94" y="6"/>
			<point x="178" y="-14"/>
		</contour>
		<contour>
			<point x="297" y="358" type="curve" smooth="yes"/>
			<point x="252" y="358"/>
			<point x="231" y="387"/>
			<point x="231" y="449" type="curve" smooth="yes"/>
			<point x="231" y="519"/>
			<point x="257" y="545"/>
			<point x="303" y="545" type="curve" smooth="yes"/>
			<point x="345" y="545"/>
			<point x="371" y="520"/>
			<point x="370" y="451" type="curve" smooth="yes"/>
			<point x="369" y="394"/>
			<point x="350" y="358"/>
		</contour>
	</outline>
	<guideline x="327" y="444" angle="0"/>
</glyph>
<glyph name="greater" format="2">
	<unicode hex="003E"/>
	<advance width="600"/>
	<outline>
		<contour>
			<point x="58" y="14" type="line"/>
			<point x="542" y="197" type="line"/>
			<point x="542" y="411" type="line"/>
			<point x="58" y="597" type="line"/>
			<point x="58" y="414" type="line"/>
			<point x="380" y="306" type="line"/>
			<point x="58" y="196" type="line"/>
		</contour>
	</outline>
</glyph>
<glyph name="at" format="2">
	<unicode hex="0040"/>
	<advance width="600"/>
	<outline>
		<contour>
			<point x="369" y="-135" type="curve" smooth="yes"/>
			<point x="460" y="-135"/>
			<point x="523" y="-113"/>
			<point x="564" y="-93" type="curve"/>
			<point x="564" y="26" type="line"/>
			<point x="518" y="5"/>
			<point x="458" y="-10"/>
			<point x="373" y="-10" type="curve" smooth="yes"/>
			<point x="198" y="-10"/>
			<point x="152" y="99"/>
			<point x="152" y="270" type="curve" smooth="yes"/>
			<point x="152" y="277" type="line" smooth="yes"/>
			<point x="152" y="482"/>
			<point x="189" y="572"/>
			<point x="309" y="572" type="curve" smooth="yes"/>
			<point x="388" y="572"/>
			<point x="423" y="536"/>
			<point x="423" y="447" type="curve" smooth="yes"/>
			<point x="423" y="399" type="line"/>
			<point x="403" y="452"/>
			<point x="369" y="491"/>
			<point x="316" y="491" type="curve" smooth="yes"/>
			<point x="243" y="491"/>
			<point x="191" y="418"/>
			<point x="191" y="274" type="curve" smooth="yes"/>
			<point x="191" y="143"/>
			<point x="227" y="60"/>
			<point x="314" y="60" type="curve" smooth="yes"/>
			<point x="366" y="60"/>
			<point x="403" y="104"/>
			<point x="423" y="154" type="curve"/>
			<point x="423" y="66" type="line"/>
			<point x="564" y="66" type="line"/>
			<point x="564" y="460" type="line" smooth="yes"/>
			<point x="564" y="625"/>
			<point x="489" y="698"/>
			<point x="316" y="698" type="curve" smooth="yes"/>
			<point x="118" y="698"/>
			<point x="19" y="556"/>
			<point x="19" y="281" type="curve" smooth="yes"/>
			<point x="19" y="267" type="line" smooth="yes"/>
			<point x="19" y="-9"/>
			<point x="134" y="-135"/>
		</contour>
		<contour>
			<point x="379" y="176" type="curve" smooth="yes"/>
			<point x="349" y="176"/>
			<point x="332" y="202"/>
			<point x="332" y="276" type="curve" smooth="yes"/>
			<point x="332" y="349"/>
			<point x="349" y="375"/>
			<point x="379" y="375" type="curve" smooth="yes"/>
			<point x="411" y="375"/>
			<point x="428" y="340"/>
			<point x="428" y="272" type="curve" smooth="yes"/>
			<point x="428" y="193"/>
			<point x="407" y="176"/>
		</contour>
	</outline>
	<guideline x="267" y="70" angle="0"/>
</glyph>
<glyph name="C" format="2">
	<unicode hex="0043"/>
	<advance width="600"/>
	<outline>
		<contour>
			<point x="384" y="-12" type="curve" smooth="yes"/>
			<point x="451" y="-12"/>
			<point x="513" y="3"/>
			<point x="557" y="28" type="curve"/>
			<point x="557" y="181" type="line"/>
			<point x="514" y="162"/>
			<point x="461" y="152"/>
			<point x="412" y="152" type="curve" smooth="yes"/>
			<point x="310" y="152"/>
			<point x="240" y="205"/>
			<point x="240" y="340" type="curve" smooth="yes"/>
			<point x="240" y="347" type="line" smooth="yes"/>
			<point x="240" y="484"/>
			<point x="310" y="533"/>
			<point x="424" y="533" type="curve" smooth="yes"/>
			<point x="480" y="533"/>
			<point x="518" y="523"/>
			<point x="557" y="506" type="curve"/>
			<point x="557" y="666" type="line"/>
			<point x="516" y="684"/>
			<point x="461" y="696"/>
			<point x="387" y="696" type="curve" smooth="yes"/>
			<point x="189" y="696"/>
			<point x="35" y="578"/>
			<point x="35" y="350" type="curve" smooth="yes"/>
			<point x="35" y="336" type="line" smooth="yes"/>
			<point x="35" y="110"/>
			<point x="166" y="-12"/>
		</contour>
	</outline>
	<anchor name="bottom" x="363" y="0"/>
	<anchor name="top" x="374" y="684"/>
	<guideline x="43" y="335" angle="0"/>
</glyph>
<glyph name="F" format="2">
	<unicode hex="0046"/>
	<advance width="600"/>
	<outline>
		<contour>
			<point x="66" y="0" type="line"/>
			<point x="264" y="0" type="line"/>
			<point x="264" y="245" type="line"/>
			<point x="518" y="245" type="line"/>
			<point x="518" y="402" type="line"/>
			<point x="264" y="402" type="line"/>
			<point x="264" y="525" type="line"/>
			<point x="563" y="525" type="line"/>
			<point x="563" y="684" type="line"/>
			<point x="66" y="684" type="line"/>
		</contour>
	</outline>
	<anchor name="bottom" x="330" y="0"/>
	<anchor name="ogonek" x="576" y="0"/>
	<anchor name="top" x="321" y="684"/>
</glyph>
<glyph name="G" format="2">
	<unicode hex="0047"/>
	<advance width="600"/>
	<outline>
		<contour>
			<point x="301" y="-14" type="curve" smooth="yes"/>
			<point x="461" y="-14"/>
			<point x="579" y="77"/>
			<point x="579" y="304" type="curve" smooth="yes"/>
			<point x="579" y="417" type="line"/>
			<point x="290" y="417" type="line"/>
			<point x="290" y="263" type="line"/>
			<point x="381" y="263" type="line"/>
			<point x="381" y="174"/>
			<point x="350" y="145"/>
			<point x="306" y="145" type="curve" smooth="yes"/>
			<point x="249" y="145"/>
			<point x="217" y="179"/>
			<point x="217" y="329" type="curve" smooth="yes"/>
			<point x="217" y="336" type="line" smooth="yes"/>
			<point x="217" y="484"/>
			<point x="253" y="539"/>
			<point x="359" y="539" type="curve" smooth="yes"/>
			<point x="420" y="539"/>
			<point x="478" y="521"/>
			<point x="528" y="494" type="curve"/>
			<point x="528" y="656" type="line"/>
			<point x="487" y="680"/>
			<point x="413" y="698"/>
			<point x="338" y="698" type="curve" smooth="yes"/>
			<point x="118" y="698"/>
			<point x="16" y="559"/>
			<point x="16" y="339" type="curve" smooth="yes"/>
			<point x="16" y="325" type="line" smooth="yes"/>
			<point x="16" y="95"/>
			<point x="114" y="-14"/>
		</contour>
	</outline>
	<anchor name="bottom" x="302" y="0"/>
	<anchor name="top" x="322" y="684"/>
	<guideline x="453" y="572" angle="0"/>
</glyph>
<glyph name="H" format="2">
	<unicode hex="0048"/>
	<advance width="600"/>
	<outline>
		<contour>
			<point x="43" y="0" type="line"/>
			<point x="240" y="0" type="line"/>
			<point x="240" y="269" type="line"/>
			<point x="360" y="269" type="line"/>
			<point x="360" y="0" type="line"/>
			<point x="557" y="0" type="line"/>
			<point x="557" y="684" type="line"/>
			<point x="360" y="684" type="line"/>
			<point x="360" y="430" type="line"/>
			<point x="240" y="430" type="line"/>
			<point x="240" y="684" type="line"/>
			<point x="43" y="684" type="line"/>
		</contour>
	</outline>
	<anchor name="bottom" x="300" y="0"/>
	<anchor name="center" x="300" y="545"/>
	<anchor name="top" x="300" y="684"/>
</glyph>
<glyph name="L" format="2">
	<unicode hex="004C"/>
	<advance width="600"/>
	<outline>
		<contour>
			<point x="72" y="0" type="line"/>
			<point x="566" y="0" type="line"/>
			<point x="566" y="181" type="line"/>
			<point x="270" y="181" type="line"/>
			<point x="270" y="684" type="line"/>
			<point x="72" y="684" type="line"/>
		</contour>
	</outline>
	<anchor name="bottom" x="329" y="0"/>
	<anchor name="caron" x="348" y="684"/>
	<anchor name="center" x="178" y="353"/>
	<anchor name="top" x="171" y="684"/>
	<guideline x="281" y="256" angle="90"/>
</glyph>
<glyph name="M" format="2">
	<unicode hex="004D"/>
	<advance width="600"/>
	<outline>
		<contour>
			<point x="22" y="0" type="line"/>
			<point x="181" y="0" type="line"/>
			<point x="181" y="130" type="line" smooth="yes"/>
			<point x="181" y="273"/>
			<point x="168" y="379"/>
			<point x="153" y="491" type="curve"/>
			<point x="164" y="491" type="line"/>
			<point x="235" y="147" type="line"/>
			<point x="365" y="147" type="line"/>
			<point x="434" y="491" type="line"/>
			<point x="447" y="491" type="line"/>
			<point x="429" y="373"/>
			<point x="419" y="264"/>
			<point x="419" y="131" type="curve" smooth="yes"/>
			<point x="419" y="0" type="line"/>
			<point x="578" y="0" type="line"/>
			<point x="578" y="684" type="line"/>
			<point x="359" y="684" type="line"/>
			<point x="303" y="336" type="line"/>
			<point x="297" y="336" type="line"/>
			<point x="240" y="684" type="line"/>
			<point x="22" y="684" type="line"/>
		</contour>
	</outline>
	<guideline x="1090" y="720" angle="90"/>
	<guideline x="1161" y="229" angle="90"/>
</glyph>
<glyph name="N" format="2">
	<unicode hex="004E"/>
	<advance width="600"/>
	<outline>
		<contour>
			<point x="41" y="0" type="line"/>
			<point x="207" y="0" type="line"/>
			<point x="207" y="180" type="line" smooth="yes"/>
			<point x="207" y="262"/>
			<point x="194" y="349"/>
			<point x="180" y="458" type="curve"/>
			<point x="190" y="458" type="line"/>
			<point x="338" y="0" type="line"/>
			<point x="559" y="0" type="line"/>
			<point x="559" y="684" type="line"/>
			<point x="393" y="684" type="line"/>
			<point x="393" y="503" type="line" smooth="yes"/>
			<point x="393" y="401"/>
			<point x="404" y="335"/>
			<point x="420" y="226" type="curve"/>
			<point x="409" y="226" type="line"/>
			<point x="262" y="684" type="line"/>
			<point x="41" y="684" type="line"/>
		</contour>
	</outline>
	<anchor name="bottom" x="267" y="0"/>
	<anchor name="top" x="318" y="684"/>
	<guideline x="596" y="0" angle="0"/>
</glyph>
<glyph name="O" format="2">
	<unicode hex="004F"/>
	<advance width="600"/>
	<outline>
		<contour>
			<point x="300" y="-14" type="curve" smooth="yes"/>
			<point x="475" y="-14"/>
			<point x="567" y="103"/>
			<point x="567" y="335" type="curve" smooth="yes"/>
			<point x="567" y="349" type="line" smooth="yes"/>
			<point x="567" y="581"/>
			<point x="475" y="698"/>
			<point x="300" y="698" type="curve" smooth="yes"/>
			<point x="125" y="698"/>
			<point x="33" y="581"/>
			<point x="33" y="349" type="curve" smooth="yes"/>
			<point x="33" y="335" type="line" smooth="yes"/>
			<point x="33" y="103"/>
			<point x="125" y="-14"/>
		</contour>
		<contour>
			<point x="300" y="145" type="curve" smooth="yes"/>
			<point x="254" y="145"/>
			<point x="230" y="179"/>
			<point x="230" y="338" type="curve" smooth="yes"/>
			<point x="230" y="345" type="line" smooth="yes"/>
			<point x="230" y="505"/>
			<point x="254" y="539"/>
			<point x="300" y="539" type="curve" smooth="yes"/>
			<point x="346" y="539"/>
			<point x="370" y="505"/>
			<point x="370" y="345" type="curve" smooth="yes"/>
			<point x="370" y="338" type="line" smooth="yes"/>
			<point x="370" y="179"/>
			<point x="346" y="145"/>
		</contour>
	</outline>
	<anchor name="bottom" x="301" y="0"/>
	<anchor name="center" x="300" y="342"/>
	<anchor name="top" x="301" y="684"/>
	<guideline x="33" y="576" angle="0"/>
	<guideline x="300" y="534" angle="90"/>
	<guideline x="230" y="497" angle="0"/>
</glyph>
<glyph name="R" format="2">
	<unicode hex="0052"/>
	<advance width="600"/>
	<outline>
		<contour>
			<point x="44" y="0" type="line"/>
			<point x="242" y="0" type="line"/>
			<point x="242" y="214" type="line"/>
			<point x="277" y="214" type="line" smooth="yes"/>
			<point x="310" y="214"/>
			<point x="328" y="204"/>
			<point x="336" y="173" type="curve" smooth="yes"/>
			<point x="381" y="0" type="line"/>
			<point x="594" y="0" type="line"/>
			<point x="528" y="219" type="line" smooth="yes"/>
			<point x="514" y="266"/>
			<point x="478" y="293"/>
			<point x="422" y="298" type="curve"/>
			<point x="521" y="316"/>
			<point x="574" y="388"/>
			<point x="574" y="480" type="curve" smooth="yes"/>
			<point x="574" y="602"/>
			<point x="499" y="684"/>
			<point x="346" y="684" type="curve" smooth="yes"/>
			<point x="44" y="684" type="line"/>
		</contour>
		<contour>
			<point x="300" y="530" type="line" smooth="yes"/>
			<point x="354" y="530"/>
			<point x="376" y="497"/>
			<point x="376" y="450" type="curve" smooth="yes"/>
			<point x="376" y="402"/>
			<point x="354" y="366"/>
			<point x="300" y="366" type="curve" smooth="yes"/>
			<point x="242" y="366" type="line"/>
			<point x="242" y="530" type="line"/>
		</contour>
	</outline>
	<anchor name="bottom" x="316" y="0"/>
	<anchor name="top" x="293" y="684"/>
	<guideline x="496" y="487" angle="90"/>
	<guideline x="629" y="500" angle="270"/>
	<guideline x="384" y="563" angle="90"/>
</glyph>
<glyph name="S" format="2">
	<unicode hex="0053"/>
	<advance width="600"/>
	<outline>
		<contour>
			<point x="303" y="-14" type="curve" smooth="yes"/>
			<point x="465" y="-14"/>
			<point x="567" y="64"/>
			<point x="567" y="229" type="curve" smooth="yes"/>
			<point x="567" y="374"/>
			<point x="465" y="412"/>
			<point x="326" y="438" type="curve" smooth="yes"/>
			<point x="260" y="450"/>
			<point x="231" y="461"/>
			<point x="231" y="496" type="curve" smooth="yes"/>
			<point x="231" y="529"/>
			<point x="259" y="541"/>
			<point x="299" y="541" type="curve" smooth="yes"/>
			<point x="380" y="541"/>
			<point x="482" y="515"/>
			<point x="548" y="475" type="curve"/>
			<point x="548" y="644" type="line"/>
			<point x="496" y="673"/>
			<point x="392" y="698"/>
			<point x="304" y="698" type="curve" smooth="yes"/>
			<point x="141" y="698"/>
			<point x="34" y="619"/>
			<point x="34" y="466" type="curve" smooth="yes"/>
			<point x="34" y="309"/>
			<point x="129" y="281"/>
			<point x="281" y="253" type="curve" smooth="yes"/>
			<point x="339" y="242"/>
			<point x="370" y="229"/>
			<point x="370" y="194" type="curve" smooth="yes"/>
			<point x="370" y="163"/>
			<point x="346" y="146"/>
			<point x="301" y="146" type="curve" smooth="yes"/>
			<point x="234" y="146"/>
			<point x="135" y="170"/>
			<point x="46" y="224" type="curve"/>
			<point x="46" y="50" type="line"/>
			<point x="108" y="16"/>
			<point x="190" y="-14"/>
		</contour>
	</outline>
	<anchor name="bottom" x="303" y="0"/>
	<anchor name="top" x="310" y="684"/>
	<guideline x="344" y="147" angle="0"/>
</glyph>
<glyph name="U" format="2">
	<unicode hex="0055"/>
	<advance width="600"/>
	<outline>
		<contour>
			<point x="292" y="-14" type="curve" smooth="yes"/>
			<point x="466" y="-14"/>
			<point x="560" y="63"/>
			<point x="560" y="228" type="curve" smooth="yes"/>
			<point x="560" y="684" type="line"/>
			<point x="362" y="684" type="line"/>
			<point x="362" y="228" type="line" smooth="yes"/>
			<point x="362" y="174"/>
			<point x="336" y="150"/>
			<point x="300" y="150" type="curve" smooth="yes"/>
			<point x="264" y="150"/>
			<point x="238" y="174"/>
			<point x="238" y="228" type="curve" smooth="yes"/>
			<point x="238" y="684" type="line"/>
			<point x="40" y="684" type="line"/>
			<point x="40" y="228" type="line" smooth="yes"/>
			<point x="40" y="61"/>
			<point x="125" y="-14"/>
		</contour>
	</outline>
	<anchor name="bottom" x="273" y="0"/>
	<anchor name="ogonek" x="405" y="0"/>
	<anchor name="top" x="300" y="684"/>
	<guideline x="687" y="507" angle="0"/>
	<guideline x="561" y="61" angle="0"/>
</glyph>
<glyph name="V" format="2">
	<unicode hex="0056"/>
	<advance width="600"/>
	<outline>
		<contour>
			<point x="153" y="0" type="line"/>
			<point x="444" y="0" type="line"/>
			<point x="600" y="684" type="line"/>
			<point x="397" y="684" type="line"/>
			<point x="301" y="188" type="line"/>
			<point x="204" y="684" type="line"/>
			<point x="0" y="684" type="line"/>
		</contour>
	</outline>
	<anchor name="bottom" x="319" y="0"/>
	<anchor name="ogonek" x="612" y="0"/>
	<anchor name="overlap" x="318" y="684"/>
	<anchor name="top" x="316" y="684"/>
	<guideline x="692" y="720" angle="0"/>
	<guideline x="546" y="152" angle="0"/>
</glyph>
<glyph name="X" format="2">
	<unicode hex="0058"/>
	<advance width="600"/>
	<outline>
		<contour>
			<point x="0" y="0" type="line"/>
			<point x="219" y="0" type="line"/>
			<point x="298" y="199" type="line"/>
			<point x="382" y="0" type="line"/>
			<point x="600" y="0" type="line"/>
			<point x="427" y="359" type="line"/>
			<point x="587" y="684" type="line"/>
			<point x="370" y="684" type="line"/>
			<point x="300" y="518" type="line"/>
			<point x="228" y="684" type="line"/>
			<point x="12" y="684" type="line"/>
			<point x="173" y="361" type="line"/>
		</contour>
	</outline>
	<anchor name="bottom" x="330" y="0"/>
	<anchor name="top" x="324" y="684"/>
	<guideline x="471" y="592" angle="0"/>
	<guideline x="599" y="204" angle="0"/>
</glyph>
<glyph name="Y" format="2">
	<unicode hex="0059"/>
	<advance width="600"/>
	<outline>
		<contour>
			<point x="196" y="0" type="line"/>
			<point x="396" y="0" type="line"/>
			<point x="396" y="236" type="line"/>
			<point x="600" y="684" type="line"/>
			<point x="387" y="684" type="line"/>
			<point x="301" y="463" type="line"/>
			<point x="214" y="684" type="line"/>
			<point x="0" y="684" type="line"/>
			<point x="196" y="239" type="line"/>
		</contour>
	</outline>
	<anchor name="bottom" x="328" y="0"/>
	<anchor name="top" x="301" y="684"/>
</glyph>
<glyph name="backslash" format="2">
	<unicode hex="005C"/>
	<advance width="600"/>
	<outline>
		<contour>
			<point x="366" y="-163" type="line"/>
			<point x="556" y="-163" type="line"/>
			<point x="234" y="792" type="line"/>
			<point x="44" y="792" type="line"/>
		</contour>
	</outline>
</glyph>
<glyph name="bracketright" format="2">
	<unicode hex="005D"/>
	<advance width="600"/>
	<outline>
		<contour>
			<point x="82" y="-163" type="line"/>
			<point x="456" y="-163" type="line"/>
			<point x="456" y="792" type="line"/>
			<point x="82" y="792" type="line"/>
			<point x="82" y="655" type="line"/>
			<point x="275" y="655" type="line"/>
			<point x="275" y="-26" type="line"/>
			<point x="82" y="-26" type="line"/>
		</contour>
	</outline>
</glyph>
<glyph name="asciicircum" format="2">
	<unicode hex="005E"/>
	<advance width="600"/>
	<outline>
		<contour>
			<point x="45" y="233" type="line"/>
			<point x="207" y="233" type="line"/>
			<point x="298" y="445" type="line"/>
			<point x="391" y="233" type="line"/>
			<point x="555" y="233" type="line"/>
			<point x="384" y="591" type="line"/>
			<point x="212" y="591" type="line"/>
		</contour>
	</outline>
</glyph>
<glyph name="underscore" format="2">
	<unicode hex="005F"/>
	<advance width="600"/>
	<outline>
		<contour>
			<point x="30" y="-54" type="line"/>
			<point x="30" y="-193" type="line"/>
			<point x="570" y="-193" type="line"/>
			<point x="570" y="-54" type="line"/>
		</contour>
	</outline>
</glyph>
<glyph name="h" format="2">
	<unicode hex="0068"/>
	<advance width="600"/>
	<outline>
		<contour>
			<point x="413" y="537" type="curve" smooth="yes"/>
			<point x="338" y="537"/>
			<point x="288" y="488"/>
			<point x="245" y="421" type="curve"/>
			<point x="245" y="750" type="line"/>
			<point x="50" y="750" type="line"/>
			<point x="50" y="0" type="line"/>
			<point x="245" y="0" type="line"/>
			<point x="245" y="317" type="line" smooth="yes"/>
			<point x="245" y="337"/>
			<point x="251" y="352"/>
			<point x="261" y="362" type="curve" smooth="yes"/>
			<point x="272" y="373"/>
			<point x="287" y="378"/>
			<point x="304" y="378" type="curve" smooth="yes"/>
			<point x="349" y="378"/>
			<point x="361" y="349"/>
			<point x="361" y="302" type="curve" smooth="yes"/>
			<point x="361" y="0" type="line"/>
			<point x="556" y="0" type="line"/>
			<point x="556" y="348" type="line" smooth="yes"/>
			<point x="556" y="475"/>
			<point x="512" y="537"/>
		</contour>
	</outline>
	<anchor name="bottom" x="303" y="0"/>
	<anchor name="caron" x="24391" y="741"/>
	<anchor name="center" x="189" y="634"/>
	<anchor name="top" x="148" y="736"/>
</glyph>
<glyph name="l" format="2">
	<unicode hex="006C"/>
	<advance width="600"/>
	<outline>
		<contour>
			<point x="54" y="0" type="line"/>
			<point x="559" y="0" type="line"/>
			<point x="559" y="149" type="line"/>
			<point x="411" y="149" type="line"/>
			<point x="411" y="750" type="line"/>
			<point x="56" y="750" type="line"/>
			<point x="56" y="601" type="line"/>
			<point x="215" y="601" type="line"/>
			<point x="215" y="149" type="line"/>
			<point x="54" y="149" type="line"/>
		</contour>
	</outline>
	<anchor name="bottom" x="313" y="0"/>
	<anchor name="caron" x="469" y="750"/>
	<anchor name="center" x="311" y="368"/>
	<anchor name="top" x="313" y="736"/>
</glyph>
<glyph name="n" format="2">
	<unicode hex="006E"/>
	<advance width="600"/>
	<outline>
		<contour>
			<point x="50" y="0" type="line"/>
			<point x="245" y="0" type="line"/>
			<point x="245" y="317" type="line" smooth="yes"/>
			<point x="245" y="337"/>
			<point x="251" y="352"/>
			<point x="261" y="362" type="curve" smooth="yes"/>
			<point x="272" y="373"/>
			<point x="287" y="378"/>
			<point x="304" y="378" type="curve" smooth="yes"/>
			<point x="349" y="378"/>
			<point x="361" y="349"/>
			<point x="361" y="302" type="curve" smooth="yes"/>
			<point x="361" y="0" type="line"/>
			<point x="556" y="0" type="line"/>
			<point x="556" y="348" type="line" smooth="yes"/>
			<point x="556" y="475"/>
			<point x="512" y="537"/>
			<point x="413" y="537" type="curve" smooth="yes"/>
			<point x="333" y="537"/>
			<point x="280" y="482"/>
			<point x="235" y="411" type="curve"/>
			<point x="235" y="523" type="line"/>
			<point x="50" y="523" type="line"/>
		</contour>
	</outline>
	<anchor name="bottom" x="303" y="0"/>
	<anchor name="top" x="314" y="523"/>
</glyph>
<glyph name="t" format="2">
	<unicode hex="0074"/>
	<advance width="600"/>
	<outline>
		<contour>
			<point x="374" y="-12" type="curve" smooth="yes"/>
			<point x="436" y="-12"/>
			<point x="489" y="1"/>
			<point x="524" y="19" type="curve"/>
			<point x="524" y="153" type="line"/>
			<point x="497" y="143"/>
			<point x="465" y="139"/>
			<point x="441" y="139" type="curve" smooth="yes"/>
			<point x="389" y="139"/>
			<point x="357" y="153"/>
			<point x="357" y="210" type="curve" smooth="yes"/>
			<point x="357" y="374" type="line"/>
			<point x="534" y="374" type="line"/>
			<point x="534" y="523" type="line"/>
			<point x="359" y="523" type="line"/>
			<point x="359" y="692" type="line"/>
			<point x="181" y="692" type="line"/>
			<point x="174" y="592" type="line" smooth="yes"/>
			<point x="170" y="534"/>
			<point x="137" y="516"/>
			<point x="95" y="516" type="curve" smooth="yes"/>
			<point x="34" y="516" type="line"/>
			<point x="34" y="374" type="line"/>
			<point x="162" y="374" type="line"/>
			<point x="162" y="178" type="line" smooth="yes"/>
			<point x="162" y="40"/>
			<point x="233" y="-12"/>
		</contour>
	</outline>
	<anchor name="bottom" x="349" y="0"/>
	<anchor name="caron" x="443" y="780"/>
	<anchor name="center" x="282" y="270"/>
	<guideline x="342" y="58" angle="0"/>
	<guideline x="464" y="557" angle="0"/>
</glyph>
<glyph name="v" format="2">
	<unicode hex="0076"/>
	<advance width="600"/>
	<outline>
		<contour>
			<point x="13" y="523" type="line"/>
			<point x="163" y="0" type="line"/>
			<point x="435" y="0" type="line"/>
			<point x="587" y="523" type="line"/>
			<point x="385" y="523" type="line"/>
			<point x="303" y="170" type="line"/>
			<point x="217" y="523" type="line"/>
		</contour>
	</outline>
</glyph>
<glyph name="w" format="2">
	<unicode hex="0077"/>
	<advance width="600"/>
	<outline>
		<contour>
			<point x="70" y="0" type="line"/>
			<point x="263" y="0" type="line"/>
			<point x="295" y="343" type="line"/>
			<point x="305" y="343" type="line"/>
			<point x="337" y="0" type="line"/>
			<point x="530" y="0" type="line"/>
			<point x="587" y="523" type="line"/>
			<point x="440" y="523" type="line"/>
			<point x="420" y="151" type="line"/>
			<point x="411" y="151" type="line"/>
			<point x="371" y="523" type="line"/>
			<point x="229" y="523" type="line"/>
			<point x="189" y="151" type="line"/>
			<point x="180" y="151" type="line"/>
			<point x="160" y="523" type="line"/>
			<point x="13" y="523" type="line"/>
		</contour>
	</outline>
	<anchor name="bottom" x="274" y="2"/>
	<anchor name="top" x="300" y="523"/>
</glyph>
<glyph name="x" format="2">
	<unicode hex="0078"/>
	<advance width="600"/>
	<outline>
		<contour>
			<point x="7" y="0" type="line"/>
			<point x="218" y="0" type="line"/>
			<point x="296" y="144" type="line"/>
			<point x="381" y="0" type="line"/>
			<point x="593" y="0" type="line"/>
			<point x="425" y="276" type="line"/>
			<point x="585" y="523" type="line"/>
			<point x="377" y="523" type="line"/>
			<point x="303" y="402" type="line"/>
			<point x="233" y="523" type="line"/>
			<point x="18" y="523" type="line"/>
			<point x="182" y="270" type="line"/>
		</contour>
	</outline>
	<anchor name="bottom" x="330" y="0"/>
	<anchor name="top" x="326" y="523"/>
	<guideline x="505" y="95" angle="0"/>
	<guideline x="515" y="396" angle="90"/>
</glyph>
<glyph name="y" format="2">
	<unicode hex="0079"/>
	<advance width="600"/>
	<outline>
		<contour>
			<point x="189" y="-204" type="curve" smooth="yes"/>
			<point x="315" y="-204"/>
			<point x="391" y="-144"/>
			<point x="438" y="15" type="curve" smooth="yes"/>
			<point x="587" y="523" type="line"/>
			<point x="385" y="523" type="line"/>
			<point x="303" y="166" type="line"/>
			<point x="217" y="523" type="line"/>
			<point x="13" y="523" type="line"/>
			<point x="158" y="19" type="line"/>
			<point x="265" y="19" type="line"/>
			<point x="248" y="-42"/>
			<point x="214" y="-63"/>
			<point x="149" y="-63" type="curve" smooth="yes"/>
			<point x="113" y="-63"/>
			<point x="80" y="-58"/>
			<point x="62" y="-52" type="curve"/>
			<point x="62" y="-188" type="line"/>
			<point x="88" y="-196"/>
			<point x="123" y="-204"/>
		</contour>
	</outline>
	<anchor name="bottom" x="245" y="-213"/>
	<anchor name="top" x="301" y="523"/>
</glyph>
<glyph name="z" format="2">
	<unicode hex="007A"/>
	<advance width="600"/>
	<outline>
		<contour>
			<point x="63" y="0" type="line"/>
			<point x="537" y="0" type="line"/>
			<point x="537" y="150" type="line"/>
			<point x="309" y="150" type="line"/>
			<point x="535" y="373" type="line"/>
			<point x="535" y="523" type="line"/>
			<point x="70" y="523" type="line"/>
			<point x="70" y="374" type="line"/>
			<point x="303" y="374" type="line"/>
			<point x="63" y="154" type="line"/>
		</contour>
	</outline>
	<anchor name="bottom" x="300" y="0"/>
	<anchor name="top" x="303" y="523"/>
</glyph>
<glyph name="braceleft" format="2">
	<unicode hex="007B"/>
	<advance width="600"/>
	<outline>
		<contour>
			<point x="73" y="234" type="line"/>
			<point x="173" y="234" type="line" smooth="yes"/>
			<point x="205" y="234"/>
			<point x="223" y="205"/>
			<point x="223" y="179" type="curve" smooth="yes"/>
			<point x="223" y="122"/>
			<point x="131" y="72"/>
			<point x="131" y="-22" type="curve" smooth="yes"/>
			<point x="131" y="-98"/>
			<point x="197" y="-163"/>
			<point x="308" y="-163" type="curve" smooth="yes"/>
			<point x="519" y="-163" type="line"/>
			<point x="519" y="-26" type="line"/>
			<point x="387" y="-26" type="line" smooth="yes"/>
			<point x="344" y="-26"/>
			<point x="330" y="-8"/>
			<point x="330" y="14" type="curve" smooth="yes"/>
			<point x="330" y="62"/>
			<point x="422" y="109"/>
			<point x="422" y="187" type="curve" smooth="yes"/>
			<point x="422" y="244"/>
			<point x="370" y="300"/>
			<point x="289" y="313" type="curve"/>
			<point x="370" y="325"/>
			<point x="422" y="381"/>
			<point x="422" y="438" type="curve" smooth="yes"/>
			<point x="422" y="517"/>
			<point x="330" y="564"/>
			<point x="330" y="616" type="curve" smooth="yes"/>
			<point x="330" y="643"/>
			<point x="345" y="655"/>
			<point x="379" y="655" type="curve" smooth="yes"/>
			<point x="519" y="655" type="line"/>
			<point x="519" y="792" type="line"/>
			<point x="308" y="792" type="line" smooth="yes"/>
			<point x="194" y="792"/>
			<point x="131" y="724"/>
			<point x="131" y="649" type="curve" smooth="yes"/>
			<point x="131" y="554"/>
			<point x="223" y="505"/>
			<point x="223" y="446" type="curve" smooth="yes"/>
			<point x="223" y="420"/>
			<point x="205" y="392"/>
			<point x="173" y="392" type="curve" smooth="yes"/>
			<point x="73" y="392" type="line"/>
		</contour>
	</outline>
	<guideline x="131" y="649" angle="90"/>
</glyph>
<glyph name="bar" format="2">
	<unicode hex="007C"/>
	<advance width="600"/>
	<outline>
		<contour>
			<point x="210" y="792" type="line"/>
			<point x="210" y="-163" type="line"/>
			<point x="390" y="-163" type="line"/>
			<point x="390" y="792" type="line"/>
		</contour>
	</outline>
</glyph>
<glyph name="braceright" format="2">
	<unicode hex="007D"/>
	<advance width="600"/>
	<outline>
		<contour>
			<point x="81" y="-163" type="line"/>
			<point x="292" y="-163" type="line" smooth="yes"/>
			<point x="403" y="-163"/>
			<point x="468" y="-97"/>
			<point x="468" y="-22" type="curve" smooth="yes"/>
			<point x="468" y="72"/>
			<point x="377" y="122"/>
			<point x="377" y="179" type="curve" smooth="yes"/>
			<point x="377" y="205"/>
			<point x="395" y="234"/>
			<point x="427" y="234" type="curve" smooth="yes"/>
			<point x="527" y="234" type="line"/>
			<point x="527" y="392" type="line"/>
			<point x="427" y="392" type="line" smooth="yes"/>
			<point x="395" y="392"/>
			<point x="377" y="420"/>
			<point x="377" y="446" type="curve" smooth="yes"/>
			<point x="377" y="505"/>
			<point x="468" y="554"/>
			<point x="468" y="649" type="curve" smooth="yes"/>
			<point x="468" y="725"/>
			<point x="405" y="792"/>
			<point x="292" y="792" type="curve" smooth="yes"/>
			<point x="81" y="792" type="line"/>
			<point x="81" y="655" type="line"/>
			<point x="221" y="655" type="line" smooth="yes"/>
			<point x="254" y="655"/>
			<point x="269" y="643"/>
			<point x="269" y="616" type="curve" smooth="yes"/>
			<point x="269" y="564"/>
			<point x="178" y="517"/>
			<point x="178" y="438" type="curve" smooth="yes"/>
			<point x="178" y="380"/>
			<point x="230" y="325"/>
			<point x="311" y="312" type="curve"/>
			<point x="230" y="300"/>
			<point x="178" y="244"/>
			<point x="178" y="187" type="curve" smooth="yes"/>
			<point x="178" y="109"/>
			<point x="269" y="62"/>
			<point x="269" y="14" type="curve" smooth="yes"/>
			<point x="269" y="-8"/>
			<point x="255" y="-26"/>
			<point x="212" y="-26" type="curve" smooth="yes"/>
			<point x="81" y="-26" type="line"/>
		</contour>
	</outline>
</glyph>
<glyph name="sterling" format="2">
	<unicode hex="00A3"/>
	<advance width="600"/>
	<outline>
		<contour>
			<point x="47" y="153" type="curve"/>
			<point x="47" y="-1" type="line"/>
			<point x="557" y="-1" type="line"/>
			<point x="557" y="160" type="line"/>
			<point x="261" y="160" type="line"/>
			<point x="287" y="179"/>
			<point x="309" y="207"/>
			<point x="311" y="263" type="curve"/>
			<point x="478" y="263" type="line"/>
			<point x="478" y="405" type="line"/>
			<point x="298" y="405" type="line"/>
			<point x="291" y="421"/>
			<point x="285" y="440"/>
			<point x="284" y="458" type="curve" smooth="yes"/>
			<point x="282" y="506"/>
			<point x="307" y="534"/>
			<point x="373" y="534" type="curve" smooth="yes"/>
			<point x="430" y="534"/>
			<point x="496" y="514"/>
			<point x="557" y="483" type="curve"/>
			<point x="557" y="651" type="line"/>
			<point x="501" y="679"/>
			<point x="432" y="698"/>
			<point x="339" y="698" type="curve" smooth="yes"/>
			<point x="187" y="698"/>
			<point x="88" y="622"/>
			<point x="88" y="493" type="curve" smooth="yes"/>
			<point x="88" y="468"/>
			<point x="95" y="433"/>
			<point x="107" y="405" type="curve"/>
			<point x="34" y="405" type="line"/>
			<point x="34" y="263" type="line"/>
			<point x="120" y="263" type="line"/>
			<point x="115" y="210"/>
			<point x="81" y="180"/>
		</contour>
	</outline>
	<guideline x="15" y="157" angle="90"/>
	<guideline x="297" y="393" angle="90"/>
	<guideline x="557" y="483" angle="90"/>
</glyph>
<glyph name="yen" format="2">
	<unicode hex="00A5"/>
	<advance width="600"/>
	<outline>
		<contour>
			<point x="47" y="131" type="line"/>
			<point x="196" y="131" type="line"/>
			<point x="196" y="0" type="line"/>
			<point x="396" y="0" type="line"/>
			<point x="396" y="131" type="line"/>
			<point x="545" y="131" type="line"/>
			<point x="545" y="235" type="line"/>
			<point x="396" y="235" type="line"/>
			<point x="396" y="236" type="line"/>
			<point x="416" y="281" type="line"/>
			<point x="545" y="281" type="line"/>
			<point x="545" y="384" type="line"/>
			<point x="463" y="384" type="line"/>
			<point x="600" y="684" type="line"/>
			<point x="387" y="684" type="line"/>
			<point x="301" y="463" type="line"/>
			<point x="214" y="684" type="line"/>
			<point x="0" y="684" type="line"/>
			<point x="132" y="384" type="line"/>
			<point x="47" y="384" type="line"/>
			<point x="47" y="281" type="line"/>
			<point x="177" y="281" type="line"/>
			<point x="196" y="239" type="line"/>
			<point x="196" y="235" type="line"/>
			<point x="47" y="235" type="line"/>
		</contour>
	</outline>
</glyph>
<glyph name="brokenbar" format="2">
	<unicode hex="00A6"/>
	<advance width="600"/>
	<outline>
		<contour>
			<point x="210" y="792" type="line"/>
			<point x="210" y="418" type="line"/>
			<point x="390" y="418" type="line"/>
			<point x="390" y="792" type="line"/>
		</contour>
		<contour>
			<point x="210" y="244" type="line"/>
			<point x="210" y="-163" type="line"/>
			<point x="390" y="-163" type="line"/>
			<point x="390" y="244" type="line"/>
		</contour>
	</outline>
</glyph>
<glyph name="section" format="2">
	<unicode hex="00A7"/>
	<advance width="600"/>
	<outline>
		<contour>
			<point x="312" y="-85" type="curve" smooth="yes"/>
			<point x="441" y="-85"/>
			<point x="523" y="-18"/>
			<point x="523" y="106" type="curve" smooth="yes"/>
			<point x="523" y="148"/>
			<point x="517" y="199"/>
			<point x="446" y="238" type="curve"/>
			<point x="506" y="257"/>
			<point x="542" y="290"/>
			<point x="542" y="350" type="curve" smooth="yes"/>
			<point x="542" y="442"/>
			<point x="455" y="470"/>
			<point x="334" y="490" type="curve" smooth="yes"/>
			<point x="269" y="501"/>
			<point x="240" y="513"/>
			<point x="240" y="536" type="curve" smooth="yes"/>
			<point x="240" y="558"/>
			<point x="258" y="572"/>
			<point x="304" y="572" type="curve" smooth="yes"/>
			<point x="368" y="572"/>
			<point x="450" y="554"/>
			<point x="510" y="528" type="curve"/>
			<point x="510" y="656" type="line"/>
			<point x="470" y="677"/>
			<point x="395" y="698"/>
			<point x="298" y="698" type="curve" smooth="yes"/>
			<point x="173" y="698"/>
			<point x="77" y="633"/>
			<point x="77" y="512" type="curve" smooth="yes"/>
			<point x="77" y="463"/>
			<point x="91" y="410"/>
			<point x="158" y="373" type="curve"/>
			<point x="94" y="347"/>
			<point x="58" y="310"/>
			<point x="58" y="256" type="curve" smooth="yes"/>
			<point x="58" y="157"/>
			<point x="150" y="141"/>
			<point x="267" y="124" type="curve" smooth="yes"/>
			<point x="328" y="115"/>
			<point x="358" y="104"/>
			<point x="358" y="81" type="curve" smooth="yes"/>
			<point x="358" y="60"/>
			<point x="344" y="43"/>
			<point x="298" y="43" type="curve" smooth="yes"/>
			<point x="249" y="43"/>
			<point x="159" y="57"/>
			<point x="86" y="93" type="curve"/>
			<point x="86" y="-32" type="line"/>
			<point x="145" y="-63"/>
			<point x="209" y="-85"/>
		</contour>
		<contour>
			<point x="353" y="260" type="curve" smooth="yes"/>
			<point x="298" y="260"/>
			<point x="195" y="279"/>
			<point x="195" y="318" type="curve" smooth="yes"/>
			<point x="195" y="342"/>
			<point x="216" y="352"/>
			<point x="246" y="352" type="curve" smooth="yes"/>
			<point x="302" y="352"/>
			<point x="405" y="333"/>
			<point x="405" y="294" type="curve" smooth="yes"/>
			<point x="405" y="270"/>
			<point x="384" y="260"/>
		</contour>
	</outline>
</glyph>
<glyph name="copyright" format="2">
	<unicode hex="00A9"/>
	<advance width="600"/>
	<outline>
		<contour>
			<point x="300" y="101" type="curve" smooth="yes"/>
			<point x="448" y="101"/>
			<point x="569" y="195"/>
			<point x="569" y="373" type="curve" smooth="yes"/>
			<point x="569" y="387" type="line" smooth="yes"/>
			<point x="569" y="561"/>
			<point x="447" y="657"/>
			<point x="300" y="657" type="curve" smooth="yes"/>
			<point x="153" y="657"/>
			<point x="31" y="561"/>
			<point x="31" y="385" type="curve" smooth="yes"/>
			<point x="31" y="371" type="line" smooth="yes"/>
			<point x="31" y="195"/>
			<point x="152" y="101"/>
		</contour>
		<contour>
			<point x="300" y="177" type="curve" smooth="yes"/>
			<point x="184" y="177"/>
			<point x="109" y="247"/>
			<point x="109" y="375" type="curve" smooth="yes"/>
			<point x="109" y="382" type="line" smooth="yes"/>
			<point x="109" y="514"/>
			<point x="184" y="581"/>
			<point x="300" y="581" type="curve" smooth="yes"/>
			<point x="416" y="581"/>
			<point x="491" y="514"/>
			<point x="491" y="384" type="curve" smooth="yes"/>
			<point x="491" y="376" type="line" smooth="yes"/>
			<point x="491" y="244"/>
			<point x="416" y="177"/>
		</contour>
		<contour>
			<point x="327" y="246" type="curve" smooth="yes"/>
			<point x="353" y="246"/>
			<point x="375" y="251"/>
			<point x="384" y="256" type="curve"/>
			<point x="384" y="320" type="line"/>
			<point x="373" y="316"/>
			<point x="359" y="313"/>
			<point x="343" y="313" type="curve" smooth="yes"/>
			<point x="305" y="313"/>
			<point x="273" y="334"/>
			<point x="273" y="383" type="curve" smooth="yes"/>
			<point x="273" y="434"/>
			<point x="304" y="453"/>
			<point x="341" y="453" type="curve" smooth="yes"/>
			<point x="357" y="453"/>
			<point x="374" y="450"/>
			<point x="384" y="446" type="curve"/>
			<point x="384" y="510" type="line"/>
			<point x="371" y="515"/>
			<point x="352" y="519"/>
			<point x="324" y="519" type="curve" smooth="yes"/>
			<point x="243" y="519"/>
			<point x="186" y="470"/>
			<point x="186" y="383" type="curve" smooth="yes"/>
			<point x="186" y="297"/>
			<point x="238" y="246"/>
		</contour>
	</outline>
	<guideline x="165" y="139" angle="247.1663"/>
	<guideline x="31" y="195" angle="180"/>
</glyph>
<glyph name="ordfeminine" format="2">
	<unicode hex="00AA"/>
	<advance width="600"/>
	<outline>
		<contour>
			<point x="210" y="224" type="curve" smooth="yes"/>
			<point x="286" y="224"/>
			<point x="326" y="267"/>
			<point x="349" y="318" type="curve"/>
			<point x="349" y="235" type="line"/>
			<point x="503" y="235" type="line"/>
			<point x="503" y="531" type="line" smooth="yes"/>
			<point x="503" y="646"/>
			<point x="425" y="696"/>
			<point x="295" y="696" type="curve" smooth="yes"/>
			<point x="198" y="696"/>
			<point x="131" y="670"/>
			<point x="100" y="653" type="curve"/>
			<point x="100" y="525" type="line"/>
			<point x="150" y="556"/>
			<point x="216" y="576"/>
			<point x="274" y="576" type="curve" smooth="yes"/>
			<point x="318" y="576"/>
			<point x="342" y="557"/>
			<point x="342" y="517" type="curve" smooth="yes"/>
			<point x="342" y="514" type="line"/>
			<point x="296" y="508" type="line" smooth="yes"/>
			<point x="145" y="487"/>
			<point x="84" y="434"/>
			<point x="84" y="346" type="curve" smooth="yes"/>
			<point x="84" y="268"/>
			<point x="135" y="224"/>
		</contour>
		<contour>
			<point x="285" y="330" type="curve" smooth="yes"/>
			<point x="259" y="330"/>
			<point x="238" y="343"/>
			<point x="238" y="372" type="curve" smooth="yes"/>
			<point x="238" y="401"/>
			<point x="260" y="420"/>
			<point x="296" y="425" type="curve" smooth="yes"/>
			<point x="342" y="432" type="line"/>
			<point x="342" y="384" type="line" smooth="yes"/>
			<point x="342" y="347"/>
			<point x="313" y="330"/>
		</contour>
	</outline>
	<anchor name="bottom" x="306" y="232"/>
	<anchor name="ogonek" x="505" y="235"/>
	<anchor name="right" x="504" y="235"/>
	<anchor name="top" x="304" y="685"/>
</glyph>
<glyph name="guillemetleft" format="2">
	<unicode hex="00AB"/>
	<advance width="600"/>
	<outline>
		<contour>
			<point x="339" y="77" type="line"/>
			<point x="198" y="287" type="line"/>
			<point x="339" y="497" type="line"/>
			<point x="143" y="497" type="line"/>
			<point x="8" y="287" type="line"/>
			<point x="143" y="77" type="line"/>
		</contour>
		<contour>
			<point x="592" y="77" type="line"/>
			<point x="451" y="288" type="line"/>
			<point x="592" y="497" type="line"/>
			<point x="397" y="497" type="line"/>
			<point x="261" y="287" type="line"/>
			<point x="397" y="77" type="line"/>
		</contour>
	</outline>
</glyph>
<glyph name="logicalnot" format="2">
	<unicode hex="00AC"/>
	<advance width="600"/>
	<outline>
		<contour>
			<point x="542" y="55" type="line"/>
			<point x="541" y="388" type="line"/>
			<point x="58" y="388" type="line"/>
			<point x="58" y="228" type="line"/>
			<point x="367" y="228" type="line"/>
			<point x="368" y="55" type="line"/>
		</contour>
	</outline>
</glyph>
<glyph name="macron" format="2">
	<unicode hex="00AF"/>
	<advance width="600"/>
	<outline>
		<contour>
			<point x="131" y="610" type="line"/>
			<point x="469" y="610" type="line"/>
			<point x="469" y="720" type="line"/>
			<point x="131" y="720" type="line"/>
		</contour>
	</outline>
	<anchor name="_top" x="300" y="523"/>
</glyph>
<glyph name="degree" format="2">
	<unicode hex="00B0"/>
	<advance width="600"/>
	<outline>
		<contour>
			<point x="303" y="277" type="curve" smooth="yes"/>
			<point x="424" y="277"/>
			<point x="508" y="370"/>
			<point x="508" y="489" type="curve" smooth="yes"/>
			<point x="508" y="606"/>
			<point x="424" y="697"/>
			<point x="303" y="697" type="curve" smooth="yes"/>
			<point x="174" y="697"/>
			<point x="92" y="606"/>
			<point x="92" y="489" type="curve" smooth="yes"/>
			<point x="92" y="370"/>
			<point x="174" y="277"/>
		</contour>
		<contour>
			<point x="300" y="394" type="curve" smooth="yes"/>
			<point x="248" y="394"/>
			<point x="212" y="436"/>
			<point x="212" y="488" type="curve" smooth="yes"/>
			<point x="212" y="539"/>
			<point x="248" y="580"/>
			<point x="300" y="580" type="curve" smooth="yes"/>
			<point x="354" y="580"/>
			<point x="389" y="539"/>
			<point x="389" y="488" type="curve" smooth="yes"/>
			<point x="389" y="436"/>
			<point x="354" y="394"/>
		</contour>
	</outline>
</glyph>
<glyph name="acute" format="2">
	<unicode hex="00B4"/>
	<advance width="600"/>
	<outline>
		<contour>
			<point x="445" y="750" type="line"/>
			<point x="237" y="750" type="line"/>
			<point x="199" y="597" type="line"/>
			<point x="341" y="597" type="line"/>
		</contour>
	</outline>
	<anchor name="_top" x="274" y="523"/>
	<guideline x="156" y="625" angle="0"/>
</glyph>
<glyph name="cedilla" format="2">
	<unicode hex="00B8"/>
	<advance width="600"/>
	<outline>
		<contour>
			<point x="276" y="-239" type="curve" smooth="yes"/>
			<point x="364" y="-239"/>
			<point x="414" y="-196"/>
			<point x="414" y="-125" type="curve" smooth="yes"/>
			<point x="414" y="-78"/>
			<point x="383" y="-45"/>
			<point x="325" y="-42" type="curve"/>
			<point x="346" y="0" type="line"/>
			<point x="254" y="0" type="line"/>
			<point x="213" y="-96" type="line"/>
			<point x="220" y="-95"/>
			<point x="233" y="-94"/>
			<point x="243" y="-94" type="curve" smooth="yes"/>
			<point x="274" y="-94"/>
			<point x="294" y="-101"/>
			<point x="294" y="-123" type="curve" smooth="yes"/>
			<point x="294" y="-142"/>
			<point x="279" y="-155"/>
			<point x="244" y="-155" type="curve" smooth="yes"/>
			<point x="226" y="-155"/>
			<point x="202" y="-151"/>
			<point x="178" y="-141" type="curve"/>
			<point x="178" y="-220" type="line"/>
			<point x="199" y="-231"/>
			<point x="239" y="-239"/>
		</contour>
	</outline>
	<anchor name="_bottom" x="301" y="0"/>
</glyph>
<glyph name="ordmasculine" format="2">
	<unicode hex="00BA"/>
	<advance width="600"/>
	<outline>
		<contour>
			<point x="301" y="224" type="curve" smooth="yes"/>
			<point x="442" y="224"/>
			<point x="534" y="313"/>
			<point x="534" y="461" type="curve" smooth="yes"/>
			<point x="534" y="609"/>
			<point x="442" y="696"/>
			<point x="301" y="696" type="curve" smooth="yes"/>
			<point x="160" y="696"/>
			<point x="66" y="609"/>
			<point x="66" y="461" type="curve" smooth="yes"/>
			<point x="66" y="313"/>
			<point x="160" y="224"/>
		</contour>
		<contour>
			<point x="301" y="345" type="curve" smooth="yes"/>
			<point x="258" y="345"/>
			<point x="229" y="372"/>
			<point x="229" y="461" type="curve" smooth="yes"/>
			<point x="229" y="550"/>
			<point x="258" y="578"/>
			<point x="301" y="578" type="curve" smooth="yes"/>
			<point x="344" y="578"/>
			<point x="370" y="550"/>
			<point x="370" y="461" type="curve" smooth="yes"/>
			<point x="370" y="372"/>
			<point x="346" y="345"/>
		</contour>
	</outline>
	<guideline x="66" y="609" angle="0"/>
	<guideline x="370" y="372" angle="0"/>
</glyph>
<glyph name="Ccedilla" format="2">
	<unicode hex="00C7"/>
	<advance width="600"/>
	<outline>
		<contour>
			<point x="338" y="-239" type="curve" smooth="yes"/>
			<point x="426" y="-239"/>
			<point x="476" y="-196"/>
			<point x="476" y="-125" type="curve" smooth="yes"/>
			<point x="476" y="-78"/>
			<point x="445" y="-45"/>
			<point x="387" y="-42" type="curve"/>
			<point x="402" y="-12" type="line"/>
			<point x="462" y="-9"/>
			<point x="517" y="5"/>
			<point x="557" y="28" type="curve"/>
			<point x="557" y="181" type="line"/>
			<point x="514" y="162"/>
			<point x="461" y="152"/>
			<point x="412" y="152" type="curve" smooth="yes"/>
			<point x="310" y="152"/>
			<point x="240" y="205"/>
			<point x="240" y="340" type="curve" smooth="yes"/>
			<point x="240" y="347" type="line" smooth="yes"/>
			<point x="240" y="484"/>
			<point x="310" y="533"/>
			<point x="424" y="533" type="curve" smooth="yes"/>
			<point x="480" y="533"/>
			<point x="518" y="523"/>
			<point x="557" y="506" type="curve"/>
			<point x="557" y="666" type="line"/>
			<point x="516" y="684"/>
			<point x="461" y="696"/>
			<point x="387" y="696" type="curve" smooth="yes"/>
			<point x="189" y="696"/>
			<point x="35" y="578"/>
			<point x="35" y="350" type="curve" smooth="yes"/>
			<point x="35" y="336" type="line" smooth="yes"/>
			<point x="35" y="136"/>
			<point x="138" y="17"/>
			<point x="313" y="-7" type="curve"/>
			<point x="275" y="-96" type="line"/>
			<point x="282" y="-95"/>
			<point x="295" y="-94"/>
			<point x="305" y="-94" type="curve" smooth="yes"/>
			<point x="336" y="-94"/>
			<point x="356" y="-101"/>
			<point x="356" y="-123" type="curve" smooth="yes"/>
			<point x="356" y="-142"/>
			<point x="341" y="-155"/>
			<point x="306" y="-155" type="curve" smooth="yes"/>
			<point x="288" y="-155"/>
			<point x="264" y="-151"/>
			<point x="240" y="-141" type="curve"/>
			<point x="240" y="-220" type="line"/>
			<point x="261" y="-231"/>
			<point x="301" y="-239"/>
		</contour>
	</outline>
</glyph>
<glyph name="multiply" format="2">
	<unicode hex="00D7"/>
	<advance width="600"/>
	<outline>
		<contour>
			<point x="165" y="56" type="line"/>
			<point x="300" y="191" type="line"/>
			<point x="434" y="56" type="line"/>
			<point x="547" y="170" type="line"/>
			<point x="413" y="305" type="line"/>
			<point x="547" y="440" type="line"/>
			<point x="434" y="554" type="line"/>
			<point x="300" y="419" type="line"/>
			<point x="165" y="554" type="line"/>
			<point x="53" y="440" type="line"/>
			<point x="187" y="305" type="line"/>
			<point x="53" y="170" type="line"/>
		</contour>
	</outline>
</glyph>
<glyph name="ae" format="2">
	<unicode hex="00E6"/>
	<advance width="600"/>
	<outline>
		<contour>
			<point x="120" y="-14" type="curve" smooth="yes"/>
			<point x="175" y="-14"/>
			<point x="215" y="19"/>
			<point x="244" y="91" type="curve"/>
			<point x="275" y="20"/>
			<point x="338" y="-14"/>
			<point x="422" y="-14" type="curve" smooth="yes"/>
			<point x="485" y="-14"/>
			<point x="532" y="1"/>
			<point x="567" y="22" type="curve"/>
			<point x="567" y="156" type="line"/>
			<point x="530" y="141"/>
			<point x="489" y="133"/>
			<point x="455" y="133" type="curve" smooth="yes"/>
			<point x="390" y="133"/>
			<point x="363" y="157"/>
			<point x="359" y="215" type="curve"/>
			<point x="591" y="215" type="line"/>
			<point x="591" y="283" type="line" smooth="yes"/>
			<point x="591" y="449"/>
			<point x="538" y="537"/>
			<point x="420" y="537" type="curve" smooth="yes"/>
			<point x="379" y="537"/>
			<point x="342" y="523"/>
			<point x="312" y="498" type="curve"/>
			<point x="282" y="524"/>
			<point x="244" y="537"/>
			<point x="187" y="537" type="curve" smooth="yes"/>
			<point x="117" y="537"/>
			<point x="60" y="512"/>
			<point x="24" y="488" type="curve"/>
			<point x="24" y="340" type="line"/>
			<point x="60" y="367"/>
			<point x="116" y="391"/>
			<point x="164" y="391" type="curve" smooth="yes"/>
			<point x="209" y="391"/>
			<point x="230" y="374"/>
			<point x="230" y="331" type="curve" smooth="yes"/>
			<point x="230" y="320" type="line"/>
			<point x="175" y="311" type="line" smooth="yes"/>
			<point x="64" y="292"/>
			<point x="9" y="231"/>
			<point x="9" y="126" type="curve" smooth="yes"/>
			<point x="9" y="33"/>
			<point x="58" y="-14"/>
		</contour>
		<contour>
			<point x="409" y="406" type="curve" smooth="yes"/>
			<point x="439" y="406"/>
			<point x="455" y="375"/>
			<point x="455" y="312" type="curve"/>
			<point x="358" y="312" type="line"/>
			<point x="359" y="372"/>
			<point x="375" y="406"/>
		</contour>
		<contour>
			<point x="142" y="159" type="curve" smooth="yes"/>
			<point x="142" y="193"/>
			<point x="160" y="211"/>
			<point x="185" y="216" type="curve" smooth="yes"/>
			<point x="230" y="225" type="line"/>
			<point x="230" y="163" type="line" smooth="yes"/>
			<point x="230" y="131"/>
			<point x="217" y="106"/>
			<point x="185" y="106" type="curve" smooth="yes"/>
			<point x="160" y="106"/>
			<point x="142" y="125"/>
		</contour>
	</outline>
	<anchor name="top" x="307" y="523"/>
	<guideline x="231" y="355" angle="90"/>
	<guideline x="494" y="385" angle="0"/>
</glyph>
<glyph name="ccedilla" format="2">
	<unicode hex="00E7"/>
	<advance width="600"/>
	<outline>
		<contour>
			<point x="329" y="-239" type="curve" smooth="yes"/>
			<point x="417" y="-239"/>
			<point x="467" y="-196"/>
			<point x="467" y="-125" type="curve" smooth="yes"/>
			<point x="467" y="-78"/>
			<point x="436" y="-45"/>
			<point x="378" y="-42" type="curve"/>
			<point x="393" y="-11" type="line"/>
			<point x="459" y="-8"/>
			<point x="500" y="7"/>
			<point x="525" y="20" type="curve"/>
			<point x="525" y="164" type="line"/>
			<point x="499" y="153"/>
			<point x="456" y="140"/>
			<point x="406" y="140" type="curve" smooth="yes"/>
			<point x="323" y="140"/>
			<point x="269" y="173"/>
			<point x="269" y="259" type="curve" smooth="yes"/>
			<point x="269" y="266" type="line" smooth="yes"/>
			<point x="269" y="353"/>
			<point x="321" y="383"/>
			<point x="405" y="383" type="curve" smooth="yes"/>
			<point x="455" y="383"/>
			<point x="498" y="373"/>
			<point x="525" y="359" type="curve"/>
			<point x="525" y="504" type="line"/>
			<point x="494" y="521"/>
			<point x="439" y="535"/>
			<point x="372" y="535" type="curve" smooth="yes"/>
			<point x="187" y="535"/>
			<point x="72" y="432"/>
			<point x="72" y="268" type="curve" smooth="yes"/>
			<point x="72" y="254" type="line" smooth="yes"/>
			<point x="72" y="109"/>
			<point x="150" y="13"/>
			<point x="304" y="-8" type="curve"/>
			<point x="266" y="-96" type="line"/>
			<point x="273" y="-95"/>
			<point x="286" y="-94"/>
			<point x="296" y="-94" type="curve" smooth="yes"/>
			<point x="327" y="-94"/>
			<point x="347" y="-101"/>
			<point x="347" y="-123" type="curve" smooth="yes"/>
			<point x="347" y="-142"/>
			<point x="332" y="-155"/>
			<point x="297" y="-155" type="curve" smooth="yes"/>
			<point x="279" y="-155"/>
			<point x="255" y="-151"/>
			<point x="231" y="-141" type="curve"/>
			<point x="231" y="-220" type="line"/>
			<point x="252" y="-231"/>
			<point x="292" y="-239"/>
		</contour>
	</outline>
</glyph>
<glyph name="eth" format="2">
	<unicode hex="00F0"/>
	<advance width="600"/>
	<outline>
		<contour>
			<point x="286" y="-14" type="curve" smooth="yes"/>
			<point x="457" y="-14"/>
			<point x="573" y="82"/>
			<point x="573" y="291" type="curve" smooth="yes"/>
			<point x="573" y="305" type="line" smooth="yes"/>
			<point x="573" y="437"/>
			<point x="534" y="543"/>
			<point x="479" y="626" type="curve"/>
			<point x="542" y="645" type="line"/>
			<point x="542" y="749" type="line"/>
			<point x="411" y="710" type="line"/>
			<point x="397" y="724"/>
			<point x="382" y="738"/>
			<point x="367" y="750" type="curve"/>
			<point x="114" y="750" type="line"/>
			<point x="153" y="715"/>
			<point x="186" y="682"/>
			<point x="215" y="651" type="curve"/>
			<point x="130" y="625" type="line"/>
			<point x="130" y="521" type="line"/>
			<point x="283" y="567" type="line"/>
			<point x="318" y="516"/>
			<point x="344" y="462"/>
			<point x="363" y="397" type="curve"/>
			<point x="319" y="461"/>
			<point x="266" y="495"/>
			<point x="207" y="495" type="curve" smooth="yes"/>
			<point x="90" y="495"/>
			<point x="27" y="395"/>
			<point x="27" y="256" type="curve" smooth="yes"/>
			<point x="27" y="242" type="line" smooth="yes"/>
			<point x="27" y="72"/>
			<point x="132" y="-14"/>
		</contour>
		<contour>
			<point x="301" y="135" type="curve" smooth="yes"/>
			<point x="252" y="135"/>
			<point x="225" y="173"/>
			<point x="225" y="243" type="curve" smooth="yes"/>
			<point x="225" y="250" type="line" smooth="yes"/>
			<point x="225" y="321"/>
			<point x="252" y="357"/>
			<point x="301" y="357" type="curve" smooth="yes"/>
			<point x="350" y="357"/>
			<point x="377" y="320"/>
			<point x="377" y="250" type="curve" smooth="yes"/>
			<point x="377" y="243" type="line" smooth="yes"/>
			<point x="377" y="172"/>
			<point x="350" y="135"/>
		</contour>
	</outline>
	<guideline x="225" y="245" angle="0"/>
	<guideline x="301" y="357" angle="90"/>
	<guideline x="225" y="322" angle="0"/>
</glyph>
<glyph name="divide" format="2">
	<unicode hex="00F7"/>
	<advance width="600"/>
	<outline>
		<contour>
			<point x="300" y="439" type="curve" smooth="yes"/>
			<point x="377" y="439"/>
			<point x="417" y="462"/>
			<point x="417" y="523" type="curve" smooth="yes"/>
			<point x="417" y="583"/>
			<point x="377" y="606"/>
			<point x="300" y="606" type="curve" smooth="yes"/>
			<point x="222" y="606"/>
			<point x="183" y="583"/>
			<point x="183" y="523" type="curve" smooth="yes"/>
			<point x="183" y="462"/>
			<point x="222" y="439"/>
		</contour>
		<contour>
			<point x="58" y="228" type="line"/>
			<point x="542" y="228" type="line"/>
			<point x="542" y="388" type="line"/>
			<point x="58" y="388" type="line"/>
		</contour>
		<contour>
			<point x="299" y="10" type="curve" smooth="yes"/>
			<point x="376" y="10"/>
			<point x="416" y="33"/>
			<point x="416" y="94" type="curve" smooth="yes"/>
			<point x="416" y="154"/>
			<point x="376" y="177"/>
			<point x="299" y="177" type="curve" smooth="yes"/>
			<point x="221" y="177"/>
			<point x="182" y="154"/>
			<point x="182" y="94" type="curve" smooth="yes"/>
			<point x="182" y="33"/>
			<point x="221" y="10"/>
		</contour>
	</outline>
	<guideline x="275" y="444" angle="90"/>
	<guideline x="313" y="439" angle="90"/>
</glyph>
<glyph name="thorn" format="2">
	<unicode hex="00FE"/>
	<advance width="600"/>
	<outline>
		<contour>
			<point x="43" y="750" type="line"/>
			<point x="43" y="-204" type="line"/>
			<point x="238" y="-204" type="line"/>
			<point x="238" y="82" type="line"/>
			<point x="277" y="18"/>
			<point x="324" y="-14"/>
			<point x="391" y="-14" type="curve" smooth="yes"/>
			<point x="492" y="-14"/>
			<point x="567" y="81"/>
			<point x="567" y="255" type="curve" smooth="yes"/>
			<point x="567" y="269" type="line" smooth="yes"/>
			<point x="567" y="438"/>
			<point x="509" y="537"/>
			<point x="400" y="537" type="curve" smooth="yes"/>
			<point x="327" y="537"/>
			<point x="276" y="490"/>
			<point x="238" y="425" type="curve"/>
			<point x="238" y="750" type="line"/>
		</contour>
		<contour>
			<point x="300" y="135" type="curve" smooth="yes"/>
			<point x="253" y="135"/>
			<point x="229" y="175"/>
			<point x="229" y="258" type="curve" smooth="yes"/>
			<point x="229" y="265" type="line" smooth="yes"/>
			<point x="229" y="349"/>
			<point x="253" y="389"/>
			<point x="300" y="389" type="curve" smooth="yes"/>
			<point x="347" y="389"/>
			<point x="369" y="353"/>
			<point x="369" y="265" type="curve" smooth="yes"/>
			<point x="369" y="258" type="line" smooth="yes"/>
			<point x="369" y="171"/>
			<point x="347" y="135"/>
		</contour>
	</outline>
</glyph>
<glyph name="Dcroat" format="2">
	<unicode hex="0110"/>
	<advance width="600"/>
	<outline>
		<contour>
			<point x="42" y="0" type="line"/>
			<point x="314" y="0" type="line" smooth="yes"/>
			<point x="494" y="0"/>
			<point x="584" y="104"/>
			<point x="584" y="335" type="curve" smooth="yes"/>
			<point x="584" y="348" type="line" smooth="yes"/>
			<point x="584" y="580"/>
			<point x="487" y="684"/>
			<point x="307" y="684" type="curve" smooth="yes"/>
			<point x="42" y="684" type="line"/>
			<point x="42" y="400" type="line"/>
			<point x="0" y="400" type="line"/>
			<point x="0" y="273" type="line"/>
			<point x="42" y="273" type="line"/>
		</contour>
		<contour>
			<point x="280" y="527" type="line" smooth="yes"/>
			<point x="357" y="527"/>
			<point x="379" y="477"/>
			<point x="379" y="347" type="curve" smooth="yes"/>
			<point x="379" y="336" type="line" smooth="yes"/>
			<point x="379" y="208"/>
			<point x="363" y="159"/>
			<point x="285" y="159" type="curve" smooth="yes"/>
			<point x="240" y="159" type="line"/>
			<point x="240" y="273" type="line"/>
			<point x="318" y="273" type="line"/>
			<point x="318" y="400" type="line"/>
			<point x="240" y="400" type="line"/>
			<point x="240" y="527" type="line"/>
		</contour>
	</outline>
</glyph>
<glyph name="Hbar" format="2">
	<unicode hex="0126"/>
	<advance width="600"/>
	<outline>
		<contour>
			<point x="43" y="0" type="line"/>
			<point x="240" y="0" type="line"/>
			<point x="240" y="239" type="line"/>
			<point x="360" y="239" type="line"/>
			<point x="360" y="0" type="line"/>
			<point x="557" y="0" type="line"/>
			<point x="557" y="481" type="line"/>
			<point x="600" y="481" type="line"/>
			<point x="600" y="590" type="line"/>
			<point x="557" y="590" type="line"/>
			<point x="557" y="684" type="line"/>
			<point x="360" y="684" type="line"/>
			<point x="360" y="590" type="line"/>
			<point x="240" y="590" type="line"/>
			<point x="240" y="684" type="line"/>
			<point x="43" y="684" type="line"/>
			<point x="43" y="590" type="line"/>
			<point x="0" y="590" type="line"/>
			<point x="0" y="481" type="line"/>
			<point x="43" y="481" type="line"/>
		</contour>
		<contour>
			<point x="240" y="400" type="line"/>
			<point x="240" y="481" type="line"/>
			<point x="360" y="481" type="line"/>
			<point x="360" y="400" type="line"/>
		</contour>
	</outline>
	<anchor name="bottom" x="300" y="0"/>
	<anchor name="center" x="300" y="545"/>
	<anchor name="top" x="300" y="684"/>
</glyph>
<glyph name="hbar" format="2">
	<unicode hex="0127"/>
	<advance width="600"/>
	<outline>
		<contour>
			<point x="0" y="580" type="line"/>
			<point x="50" y="580" type="line"/>
			<point x="50" y="0" type="line"/>
			<point x="245" y="0" type="line"/>
			<point x="245" y="317" type="line" smooth="yes"/>
			<point x="245" y="337"/>
			<point x="251" y="352"/>
			<point x="261" y="362" type="curve" smooth="yes"/>
			<point x="272" y="373"/>
			<point x="287" y="378"/>
			<point x="304" y="378" type="curve" smooth="yes"/>
			<point x="349" y="378"/>
			<point x="361" y="349"/>
			<point x="361" y="302" type="curve" smooth="yes"/>
			<point x="361" y="0" type="line"/>
			<point x="556" y="0" type="line"/>
			<point x="556" y="348" type="line" smooth="yes"/>
			<point x="556" y="475"/>
			<point x="512" y="537"/>
			<point x="413" y="537" type="curve" smooth="yes"/>
			<point x="338" y="537"/>
			<point x="288" y="488"/>
			<point x="245" y="421" type="curve"/>
			<point x="245" y="580" type="line"/>
			<point x="378" y="580" type="line"/>
			<point x="378" y="680" type="line"/>
			<point x="245" y="680" type="line"/>
			<point x="245" y="750" type="line"/>
			<point x="50" y="750" type="line"/>
			<point x="50" y="680" type="line"/>
			<point x="0" y="680" type="line"/>
		</contour>
	</outline>
</glyph>
<glyph name="dotlessi" format="2">
	<unicode hex="0131"/>
	<advance width="600"/>
	<outline>
		<contour>
			<point x="62" y="0" type="line"/>
			<point x="567" y="0" type="line"/>
			<point x="567" y="149" type="line"/>
			<point x="419" y="149" type="line"/>
			<point x="419" y="523" type="line"/>
			<point x="64" y="523" type="line"/>
			<point x="64" y="374" type="line"/>
			<point x="223" y="374" type="line"/>
			<point x="223" y="149" type="line"/>
			<point x="62" y="149" type="line"/>
		</contour>
	</outline>
	<anchor name="ogonek" x="567" y="0"/>
	<anchor name="top" x="321" y="523"/>
</glyph>
<glyph name="ij" format="2">
	<unicode hex="0133"/>
	<advance width="600"/>
	<outline>
		<contour>
			<point x="160" y="582" type="curve" smooth="yes"/>
			<point x="241" y="582"/>
			<point x="273" y="609"/>
			<point x="273" y="671" type="curve" smooth="yes"/>
			<point x="273" y="733"/>
			<point x="238" y="760"/>
			<point x="160" y="760" type="curve" smooth="yes"/>
			<point x="85" y="760"/>
			<point x="49" y="734"/>
			<point x="49" y="671" type="curve" smooth="yes"/>
			<point x="49" y="609"/>
			<point x="81" y="582"/>
		</contour>
		<contour>
			<point x="438" y="582" type="curve" smooth="yes"/>
			<point x="519" y="582"/>
			<point x="551" y="609"/>
			<point x="551" y="671" type="curve" smooth="yes"/>
			<point x="551" y="733"/>
			<point x="516" y="760"/>
			<point x="438" y="760" type="curve" smooth="yes"/>
			<point x="363" y="760"/>
			<point x="327" y="734"/>
			<point x="327" y="671" type="curve" smooth="yes"/>
			<point x="327" y="609"/>
			<point x="359" y="582"/>
		</contour>
		<contour>
			<point x="291" y="-204" type="curve" smooth="yes"/>
			<point x="419" y="-204"/>
			<point x="537" y="-156"/>
			<point x="537" y="13" type="curve" smooth="yes"/>
			<point x="537" y="523" type="line"/>
			<point x="341" y="523" type="line"/>
			<point x="341" y="25" type="line" smooth="yes"/>
			<point x="341" y="-27"/>
			<point x="311" y="-49"/>
			<point x="251" y="-49" type="curve" smooth="yes"/>
			<point x="214" y="-49"/>
			<point x="180" y="-42"/>
			<point x="156" y="-35" type="curve"/>
			<point x="156" y="-183" type="line"/>
			<point x="189" y="-196"/>
			<point x="242" y="-204"/>
		</contour>
		<contour>
			<point x="63" y="0" type="line"/>
			<point x="258" y="0" type="line"/>
			<point x="258" y="523" type="line"/>
			<point x="63" y="523" type="line"/>
		</contour>
	</outline>
	<guideline x="298" y="550" angle="90"/>
	<guideline x="282" y="523" angle="90"/>
</glyph>
<glyph name="Lslash" format="2">
	<unicode hex="0141"/>
	<advance width="600"/>
	<outline>
		<contour>
			<point x="72" y="0" type="line"/>
			<point x="566" y="0" type="line"/>
			<point x="566" y="181" type="line"/>
			<point x="270" y="181" type="line"/>
			<point x="270" y="324" type="line"/>
			<point x="433" y="385" type="line"/>
			<point x="433" y="513" type="line"/>
			<point x="270" y="452" type="line"/>
			<point x="270" y="684" type="line"/>
			<point x="72" y="684" type="line"/>
			<point x="72" y="378" type="line"/>
			<point x="0" y="351" type="line"/>
			<point x="0" y="223" type="line"/>
			<point x="72" y="250" type="line"/>
		</contour>
	</outline>
</glyph>
<glyph name="eng" format="2">
	<unicode hex="014B"/>
	<advance width="600"/>
	<outline>
		<contour>
			<point x="344" y="-214" type="curve" smooth="yes"/>
			<point x="462" y="-214"/>
			<point x="556" y="-164"/>
			<point x="556" y="-8" type="curve" smooth="yes"/>
			<point x="556" y="348" type="line" smooth="yes"/>
			<point x="556" y="475"/>
			<point x="512" y="537"/>
			<point x="413" y="537" type="curve" smooth="yes"/>
			<point x="333" y="537"/>
			<point x="280" y="482"/>
			<point x="235" y="411" type="curve"/>
			<point x="235" y="523" type="line"/>
			<point x="50" y="523" type="line"/>
			<point x="50" y="0" type="line"/>
			<point x="245" y="0" type="line"/>
			<point x="245" y="317" type="line" smooth="yes"/>
			<point x="245" y="337"/>
			<point x="251" y="352"/>
			<point x="261" y="362" type="curve" smooth="yes"/>
			<point x="272" y="373"/>
			<point x="287" y="378"/>
			<point x="304" y="378" type="curve" smooth="yes"/>
			<point x="349" y="378"/>
			<point x="361" y="349"/>
			<point x="361" y="302" type="curve" smooth="yes"/>
			<point x="361" y="0" type="line" smooth="yes"/>
			<point x="361" y="-38"/>
			<point x="337" y="-62"/>
			<point x="286" y="-62" type="curve" smooth="yes"/>
			<point x="270" y="-62"/>
			<point x="255" y="-60"/>
			<point x="247" y="-58" type="curve"/>
			<point x="247" y="-202" type="line"/>
			<point x="273" y="-209"/>
			<point x="306" y="-214"/>
		</contour>
	</outline>
</glyph>
<glyph name="OE" format="2">
	<unicode hex="0152"/>
	<advance width="600"/>
	<outline>
		<contour>
			<point x="173" y="-13" type="curve" smooth="yes"/>
			<point x="222" y="-13"/>
			<point x="263" y="20"/>
			<point x="295" y="107" type="curve"/>
			<point x="295" y="0" type="line"/>
			<point x="581" y="0" type="line"/>
			<point x="581" y="154" type="line"/>
			<point x="445" y="154" type="line"/>
			<point x="445" y="266" type="line"/>
			<point x="548" y="266" type="line"/>
			<point x="548" y="418" type="line"/>
			<point x="445" y="418" type="line"/>
			<point x="445" y="531" type="line"/>
			<point x="580" y="531" type="line"/>
			<point x="580" y="684" type="line"/>
			<point x="260" y="684" type="line" smooth="yes"/>
			<point x="96" y="684"/>
			<point x="25" y="564"/>
			<point x="25" y="323" type="curve" smooth="yes"/>
			<point x="25" y="309" type="line" smooth="yes"/>
			<point x="25" y="93"/>
			<point x="71" y="-13"/>
		</contour>
		<contour>
			<point x="241" y="148" type="curve" smooth="yes"/>
			<point x="207" y="148"/>
			<point x="185" y="180"/>
			<point x="185" y="315" type="curve" smooth="yes"/>
			<point x="185" y="322" type="line" smooth="yes"/>
			<point x="185" y="460"/>
			<point x="202" y="531"/>
			<point x="270" y="531" type="curve" smooth="yes"/>
			<point x="291" y="531" type="line"/>
			<point x="291" y="228" type="line" smooth="yes"/>
			<point x="291" y="172"/>
			<point x="271" y="148"/>
		</contour>
	</outline>
</glyph>
<glyph name="oe" format="2">
	<unicode hex="0153"/>
	<advance width="600"/>
	<outline>
		<contour>
			<point x="134" y="-14" type="curve" smooth="yes"/>
			<point x="179" y="-14"/>
			<point x="215" y="9"/>
			<point x="244" y="92" type="curve"/>
			<point x="274" y="21"/>
			<point x="338" y="-14"/>
			<point x="422" y="-14" type="curve" smooth="yes"/>
			<point x="486" y="-14"/>
			<point x="534" y="1"/>
			<point x="569" y="22" type="curve"/>
			<point x="569" y="156" type="line"/>
			<point x="531" y="141"/>
			<point x="490" y="133"/>
			<point x="455" y="133" type="curve" smooth="yes"/>
			<point x="395" y="133"/>
			<point x="366" y="159"/>
			<point x="362" y="215" type="curve"/>
			<point x="594" y="215" type="line"/>
			<point x="594" y="283" type="line" smooth="yes"/>
			<point x="594" y="448"/>
			<point x="533" y="536"/>
			<point x="419" y="536" type="curve" smooth="yes"/>
			<point x="374" y="536"/>
			<point x="340" y="522"/>
			<point x="311" y="497" type="curve"/>
			<point x="284" y="521"/>
			<point x="248" y="536"/>
			<point x="198" y="536" type="curve" smooth="yes"/>
			<point x="65" y="536"/>
			<point x="7" y="439"/>
			<point x="7" y="258" type="curve" smooth="yes"/>
			<point x="7" y="244" type="line" smooth="yes"/>
			<point x="7" y="88"/>
			<point x="43" y="-14"/>
		</contour>
		<contour>
			<point x="410" y="406" type="curve" smooth="yes"/>
			<point x="442" y="406"/>
			<point x="455" y="371"/>
			<point x="455" y="312" type="curve"/>
			<point x="361" y="312" type="line"/>
			<point x="362" y="371"/>
			<point x="378" y="406"/>
		</contour>
		<contour>
			<point x="196" y="133" type="curve" smooth="yes"/>
			<point x="165" y="133"/>
			<point x="152" y="160"/>
			<point x="152" y="263" type="curve" smooth="yes"/>
			<point x="152" y="270" type="line" smooth="yes"/>
			<point x="152" y="377"/>
			<point x="167" y="401"/>
			<point x="198" y="401" type="curve" smooth="yes"/>
			<point x="228" y="401"/>
			<point x="242" y="379"/>
			<point x="242" y="270" type="curve" smooth="yes"/>
			<point x="242" y="263" type="line" smooth="yes"/>
			<point x="242" y="161"/>
			<point x="227" y="133"/>
		</contour>
	</outline>
	<guideline x="259" y="170" angle="0"/>
</glyph>
<glyph name="Scedilla" format="2">
	<unicode hex="015E"/>
	<advance width="600"/>
	<outline>
		<contour>
			<point x="278" y="-239" type="curve" smooth="yes"/>
			<point x="366" y="-239"/>
			<point x="416" y="-196"/>
			<point x="416" y="-125" type="curve" smooth="yes"/>
			<point x="416" y="-78"/>
			<point x="385" y="-45"/>
			<point x="327" y="-42" type="curve"/>
			<point x="342" y="-12" type="line"/>
			<point x="481" y="-1"/>
			<point x="567" y="78"/>
			<point x="567" y="229" type="curve" smooth="yes"/>
			<point x="567" y="374"/>
			<point x="465" y="412"/>
			<point x="326" y="438" type="curve" smooth="yes"/>
			<point x="260" y="450"/>
			<point x="231" y="461"/>
			<point x="231" y="496" type="curve" smooth="yes"/>
			<point x="231" y="529"/>
			<point x="259" y="541"/>
			<point x="299" y="541" type="curve" smooth="yes"/>
			<point x="380" y="541"/>
			<point x="482" y="515"/>
			<point x="548" y="475" type="curve"/>
			<point x="548" y="644" type="line"/>
			<point x="496" y="673"/>
			<point x="392" y="698"/>
			<point x="304" y="698" type="curve" smooth="yes"/>
			<point x="141" y="698"/>
			<point x="34" y="619"/>
			<point x="34" y="466" type="curve" smooth="yes"/>
			<point x="34" y="309"/>
			<point x="129" y="281"/>
			<point x="281" y="253" type="curve" smooth="yes"/>
			<point x="339" y="242"/>
			<point x="370" y="229"/>
			<point x="370" y="194" type="curve" smooth="yes"/>
			<point x="370" y="163"/>
			<point x="346" y="146"/>
			<point x="301" y="146" type="curve" smooth="yes"/>
			<point x="234" y="146"/>
			<point x="135" y="170"/>
			<point x="46" y="224" type="curve"/>
			<point x="46" y="50" type="line"/>
			<point x="98" y="21"/>
			<point x="164" y="-4"/>
			<point x="251" y="-12" type="curve"/>
			<point x="215" y="-96" type="line"/>
			<point x="222" y="-95"/>
			<point x="235" y="-94"/>
			<point x="245" y="-94" type="curve" smooth="yes"/>
			<point x="276" y="-94"/>
			<point x="296" y="-101"/>
			<point x="296" y="-123" type="curve" smooth="yes"/>
			<point x="296" y="-142"/>
			<point x="281" y="-155"/>
			<point x="246" y="-155" type="curve" smooth="yes"/>
			<point x="228" y="-155"/>
			<point x="204" y="-151"/>
			<point x="180" y="-141" type="curve"/>
			<point x="180" y="-220" type="line"/>
			<point x="201" y="-231"/>
			<point x="241" y="-239"/>
		</contour>
	</outline>
</glyph>
<glyph name="scedilla" format="2">
	<unicode hex="015F"/>
	<advance width="600"/>
	<outline>
		<contour>
			<point x="278" y="-239" type="curve" smooth="yes"/>
			<point x="366" y="-239"/>
			<point x="416" y="-196"/>
			<point x="416" y="-125" type="curve" smooth="yes"/>
			<point x="416" y="-78"/>
			<point x="385" y="-45"/>
			<point x="327" y="-42" type="curve"/>
			<point x="342" y="-11" type="line"/>
			<point x="473" y="3"/>
			<point x="536" y="72"/>
			<point x="536" y="183" type="curve" smooth="yes"/>
			<point x="536" y="301"/>
			<point x="440" y="325"/>
			<point x="322" y="345" type="curve" smooth="yes"/>
			<point x="270" y="354"/>
			<point x="247" y="360"/>
			<point x="247" y="380" type="curve" smooth="yes"/>
			<point x="247" y="399"/>
			<point x="262" y="407"/>
			<point x="299" y="407" type="curve" smooth="yes"/>
			<point x="372" y="407"/>
			<point x="460" y="385"/>
			<point x="526" y="350" type="curve"/>
			<point x="526" y="494" type="line"/>
			<point x="471" y="518"/>
			<point x="402" y="537"/>
			<point x="300" y="537" type="curve" smooth="yes"/>
			<point x="157" y="537"/>
			<point x="64" y="472"/>
			<point x="64" y="351" type="curve" smooth="yes"/>
			<point x="64" y="232"/>
			<point x="137" y="202"/>
			<point x="280" y="180" type="curve" smooth="yes"/>
			<point x="332" y="172"/>
			<point x="352" y="167"/>
			<point x="352" y="146" type="curve" smooth="yes"/>
			<point x="352" y="126"/>
			<point x="335" y="118"/>
			<point x="294" y="118" type="curve" smooth="yes"/>
			<point x="231" y="118"/>
			<point x="138" y="137"/>
			<point x="75" y="172" type="curve"/>
			<point x="75" y="34" type="line"/>
			<point x="112" y="12"/>
			<point x="185" y="-7"/>
			<point x="251" y="-12" type="curve"/>
			<point x="215" y="-96" type="line"/>
			<point x="222" y="-95"/>
			<point x="235" y="-94"/>
			<point x="245" y="-94" type="curve" smooth="yes"/>
			<point x="276" y="-94"/>
			<point x="296" y="-101"/>
			<point x="296" y="-123" type="curve" smooth="yes"/>
			<point x="296" y="-142"/>
			<point x="281" y="-155"/>
			<point x="246" y="-155" type="curve" smooth="yes"/>
			<point x="228" y="-155"/>
			<point x="204" y="-151"/>
			<point x="180" y="-141" type="curve"/>
			<point x="180" y="-220" type="line"/>
			<point x="201" y="-231"/>
			<point x="241" y="-239"/>
		</contour>
	</outline>
</glyph>
<glyph name="Tbar" format="2">
	<unicode hex="0166"/>
	<advance width="600"/>
	<outline>
		<contour>
			<point x="200" y="0" type="line"/>
			<point x="398" y="0" type="line"/>
			<point x="398" y="255" type="line"/>
			<point x="507" y="255" type="line"/>
			<point x="507" y="382" type="line"/>
			<point x="398" y="382" type="line"/>
			<point x="398" y="515" type="line"/>
			<point x="582" y="515" type="line"/>
			<point x="582" y="684" type="line"/>
			<point x="18" y="684" type="line"/>
			<point x="18" y="515" type="line"/>
			<point x="200" y="515" type="line"/>
			<point x="200" y="382" type="line"/>
			<point x="90" y="382" type="line"/>
			<point x="90" y="255" type="line"/>
			<point x="200" y="255" type="line"/>
		</contour>
	</outline>
</glyph>
<glyph name="tbar" format="2">
	<unicode hex="0167"/>
	<advance width="600"/>
	<outline>
		<contour>
			<point x="44" y="211" type="line"/>
			<point x="162" y="211" type="line"/>
			<point x="162" y="178" type="line" smooth="yes"/>
			<point x="162" y="40"/>
			<point x="233" y="-12"/>
			<point x="374" y="-12" type="curve" smooth="yes"/>
			<point x="436" y="-12"/>
			<point x="489" y="1"/>
			<point x="524" y="19" type="curve"/>
			<point x="524" y="153" type="line"/>
			<point x="497" y="143"/>
			<point x="465" y="139"/>
			<point x="441" y="139" type="curve" smooth="yes"/>
			<point x="389" y="139"/>
			<point x="357" y="153"/>
			<point x="357" y="210" type="curve" smooth="yes"/>
			<point x="357" y="211" type="line"/>
			<point x="520" y="211" type="line"/>
			<point x="520" y="321" type="line"/>
			<point x="357" y="321" type="line"/>
			<point x="357" y="374" type="line"/>
			<point x="534" y="374" type="line"/>
			<point x="534" y="523" type="line"/>
			<point x="359" y="523" type="line"/>
			<point x="359" y="692" type="line"/>
			<point x="181" y="692" type="line"/>
			<point x="174" y="592" type="line" smooth="yes"/>
			<point x="170" y="534"/>
			<point x="137" y="516"/>
			<point x="95" y="516" type="curve" smooth="yes"/>
			<point x="34" y="516" type="line"/>
			<point x="34" y="374" type="line"/>
			<point x="162" y="374" type="line"/>
			<point x="162" y="321" type="line"/>
			<point x="44" y="321" type="line"/>
		</contour>
	</outline>
</glyph>
<glyph name="Uogonek" format="2">
	<unicode hex="0172"/>
	<advance width="600"/>
	<outline>
		<contour>
			<point x="333" y="-203" type="curve" smooth="yes"/>
			<point x="368" y="-203"/>
			<point x="394" y="-198"/>
			<point x="414" y="-192" type="curve"/>
			<point x="414" y="-79" type="line"/>
			<point x="414" y="-79"/>
			<point x="407" y="-80"/>
			<point x="395" y="-80" type="curve" smooth="yes"/>
			<point x="368" y="-80"/>
			<point x="346" y="-72"/>
			<point x="346" y="-49" type="curve" smooth="yes"/>
			<point x="346" y="-30"/>
			<point x="363" y="-12"/>
			<point x="400" y="-1" type="curve"/>
			<point x="505" y="26"/>
			<point x="560" y="101"/>
			<point x="560" y="228" type="curve" smooth="yes"/>
			<point x="560" y="684" type="line"/>
			<point x="362" y="684" type="line"/>
			<point x="362" y="228" type="line" smooth="yes"/>
			<point x="362" y="174"/>
			<point x="336" y="150"/>
			<point x="300" y="150" type="curve" smooth="yes"/>
			<point x="264" y="150"/>
			<point x="238" y="174"/>
			<point x="238" y="228" type="curve" smooth="yes"/>
			<point x="238" y="684" type="line"/>
			<point x="40" y="684" type="line"/>
			<point x="40" y="228" type="line" smooth="yes"/>
			<point x="40" y="71"/>
			<point x="115" y="-5"/>
			<point x="263" y="-13" type="curve"/>
			<point x="221" y="-37"/>
			<point x="197" y="-68"/>
			<point x="197" y="-110" type="curve" smooth="yes"/>
			<point x="197" y="-167"/>
			<point x="237" y="-203"/>
		</contour>
	</outline>
</glyph>
<glyph name="dotlessj" format="2">
	<unicode hex="0237"/>
	<advance width="600"/>
	<outline>
		<contour>
			<point x="221" y="-204" type="curve" smooth="yes"/>
			<point x="376" y="-204"/>
			<point x="496" y="-156"/>
			<point x="496" y="33" type="curve" smooth="yes"/>
			<point x="496" y="523" type="line"/>
			<point x="67" y="523" type="line"/>
			<point x="67" y="374" type="line"/>
			<point x="301" y="374" type="line"/>
			<point x="301" y="47" type="line" smooth="yes"/>
			<point x="301" y="-26"/>
			<point x="262" y="-49"/>
			<point x="183" y="-49" type="curve" smooth="yes"/>
			<point x="138" y="-49"/>
			<point x="96" y="-42"/>
			<point x="66" y="-33" type="curve"/>
			<point x="66" y="-181" type="line"/>
			<point x="104" y="-195"/>
			<point x="165" y="-204"/>
		</contour>
	</outline>
	<anchor name="top" x="399" y="523"/>
</glyph>
<glyph name="dotaccent" format="2">
	<unicode hex="02D9"/>
	<advance width="600"/>
	<outline>
		<contour>
			<point x="299" y="582" type="curve" smooth="yes"/>
			<point x="380" y="582"/>
			<point x="412" y="609"/>
			<point x="412" y="671" type="curve" smooth="yes"/>
			<point x="412" y="733"/>
			<point x="377" y="760"/>
			<point x="299" y="760" type="curve" smooth="yes"/>
			<point x="224" y="760"/>
			<point x="188" y="734"/>
			<point x="188" y="671" type="curve" smooth="yes"/>
			<point x="188" y="609"/>
			<point x="220" y="582"/>
		</contour>
	</outline>
	<anchor name="_top" x="300" y="523"/>
	<guideline x="126" y="703" angle="0"/>
	<guideline x="134" y="613" angle="0"/>
</glyph>
<glyph name="ring" format="2">
	<unicode hex="02DA"/>
	<advance width="600"/>
	<outline>
		<contour>
			<point x="300" y="584" type="curve" smooth="yes"/>
			<point x="391" y="584"/>
			<point x="449" y="627"/>
			<point x="449" y="717" type="curve" smooth="yes"/>
			<point x="449" y="807"/>
			<point x="392" y="850"/>
			<point x="301" y="850" type="curve" smooth="yes"/>
			<point x="209" y="850"/>
			<point x="151" y="807"/>
			<point x="151" y="717" type="curve" smooth="yes"/>
			<point x="151" y="627"/>
			<point x="208" y="584"/>
		</contour>
		<contour>
			<point x="300" y="662" type="curve" smooth="yes"/>
			<point x="265" y="662"/>
			<point x="246" y="681"/>
			<point x="246" y="717" type="curve" smooth="yes"/>
			<point x="246" y="753"/>
			<point x="266" y="772"/>
			<point x="301" y="772" type="curve" smooth="yes"/>
			<point x="335" y="772"/>
			<point x="354" y="753"/>
			<point x="354" y="717" type="curve" smooth="yes"/>
			<point x="354" y="681"/>
			<point x="334" y="662"/>
		</contour>
	</outline>
	<anchor name="_top" x="300" y="523"/>
	<guideline x="448" y="807" angle="0"/>
	<guideline x="244" y="718" angle="0"/>
</glyph>
<glyph name="ogonek" format="2">
	<unicode hex="02DB"/>
	<advance width="600"/>
	<outline>
		<contour>
			<point x="326" y="-203" type="curve" smooth="yes"/>
			<point x="361" y="-203"/>
			<point x="387" y="-198"/>
			<point x="407" y="-192" type="curve"/>
			<point x="407" y="-79" type="line"/>
			<point x="407" y="-79"/>
			<point x="400" y="-80"/>
			<point x="388" y="-80" type="curve" smooth="yes"/>
			<point x="361" y="-80"/>
			<point x="339" y="-72"/>
			<point x="339" y="-49" type="curve" smooth="yes"/>
			<point x="339" y="-29"/>
			<point x="357" y="-11"/>
			<point x="398" y="0" type="curve"/>
			<point x="284" y="0" type="line"/>
			<point x="225" y="-24"/>
			<point x="190" y="-60"/>
			<point x="190" y="-110" type="curve" smooth="yes"/>
			<point x="190" y="-167"/>
			<point x="230" y="-203"/>
		</contour>
	</outline>
	<anchor name="_ogonek" x="398" y="0"/>
</glyph>
<glyph name="hungarumlaut" format="2">
	<unicode hex="02DD"/>
	<advance width="600"/>
	<outline>
		<contour>
			<point x="310" y="597" type="line"/>
			<point x="436" y="597" type="line"/>
			<point x="521" y="750" type="line"/>
			<point x="348" y="750" type="line"/>
		</contour>
		<contour>
			<point x="96" y="597" type="line"/>
			<point x="222" y="597" type="line"/>
			<point x="306" y="750" type="line"/>
			<point x="134" y="750" type="line"/>
		</contour>
	</outline>
	<anchor name="_top" x="267" y="523"/>
</glyph>
<glyph name="pi" format="2">
	<unicode hex="03C0"/>
	<advance width="600"/>
	<outline>
		<contour>
			<point x="65" y="0" type="line"/>
			<point x="246" y="0" type="line"/>
			<point x="246" y="375" type="line"/>
			<point x="332" y="375" type="line"/>
			<point x="332" y="142" type="line" smooth="yes"/>
			<point x="332" y="46"/>
			<point x="370" y="-12"/>
			<point x="486" y="-12" type="curve" smooth="yes"/>
			<point x="523" y="-12"/>
			<point x="565" y="-6"/>
			<point x="585" y="2" type="curve"/>
			<point x="585" y="128" type="line"/>
			<point x="585" y="128"/>
			<point x="576" y="126"/>
			<point x="564" y="126" type="curve" smooth="yes"/>
			<point x="533" y="126"/>
			<point x="513" y="141"/>
			<point x="513" y="167" type="curve" smooth="yes"/>
			<point x="513" y="375" type="line"/>
			<point x="585" y="375" type="line"/>
			<point x="585" y="523" type="line"/>
			<point x="6" y="523" type="line"/>
			<point x="6" y="375" type="line"/>
			<point x="65" y="375" type="line"/>
		</contour>
	</outline>
</glyph>
<glyph name="endash" format="2">
	<unicode hex="2013"/>
	<advance width="600"/>
	<outline>
		<contour>
			<point x="540" y="377" type="line"/>
			<point x="60" y="377" type="line"/>
			<point x="60" y="201" type="line"/>
			<point x="540" y="201" type="line"/>
		</contour>
	</outline>
</glyph>
<glyph name="quoteleft" format="2">
	<unicode hex="2018"/>
	<advance width="600"/>
	<outline>
		<contour>
			<point x="374" y="428" type="line"/>
			<point x="412" y="750" type="line"/>
			<point x="287" y="750" type="line"/>
			<point x="165" y="428" type="line"/>
		</contour>
	</outline>
</glyph>
<glyph name="quoteright" format="2">
	<unicode hex="2019"/>
	<advance width="600"/>
	<outline>
		<contour>
			<point x="226" y="750" type="line"/>
			<point x="188" y="428" type="line"/>
			<point x="313" y="428" type="line"/>
			<point x="435" y="750" type="line"/>
		</contour>
	</outline>
</glyph>
<glyph name="quotedblleft" format="2">
	<unicode hex="201C"/>
	<advance width="600"/>
	<outline>
		<contour>
			<point x="489" y="428" type="line"/>
			<point x="526" y="750" type="line"/>
			<point x="404" y="750" type="line"/>
			<point x="286" y="428" type="line"/>
		</contour>
		<contour>
			<point x="242" y="428" type="line"/>
			<point x="279" y="750" type="line"/>
			<point x="157" y="750" type="line"/>
			<point x="39" y="428" type="line"/>
		</contour>
	</outline>
</glyph>
<glyph name="quotedblright" format="2">
	<unicode hex="201D"/>
	<advance width="600"/>
	<outline>
		<contour>
			<point x="111" y="750" type="line"/>
			<point x="74" y="428" type="line"/>
			<point x="196" y="428" type="line"/>
			<point x="314" y="750" type="line"/>
		</contour>
		<contour>
			<point x="358" y="750" type="line"/>
			<point x="321" y="428" type="line"/>
			<point x="443" y="428" type="line"/>
			<point x="561" y="750" type="line"/>
		</contour>
	</outline>
</glyph>
<glyph name="daggerdbl" format="2">
	<unicode hex="2021"/>
	<advance width="600"/>
	<outline>
		<contour>
			<point x="40" y="233" type="line"/>
			<point x="40" y="67" type="line"/>
			<point x="205" y="67" type="line"/>
			<point x="205" y="-143" type="line"/>
			<point x="395" y="-143" type="line"/>
			<point x="395" y="67" type="line"/>
			<point x="560" y="67" type="line"/>
			<point x="560" y="233" type="line"/>
			<point x="395" y="233" type="line"/>
			<point x="395" y="432" type="line"/>
			<point x="560" y="432" type="line"/>
			<point x="560" y="598" type="line"/>
			<point x="395" y="598" type="line"/>
			<point x="395" y="765" type="line"/>
			<point x="205" y="765" type="line"/>
			<point x="205" y="598" type="line"/>
			<point x="40" y="598" type="line"/>
			<point x="40" y="432" type="line"/>
			<point x="205" y="432" type="line"/>
			<point x="205" y="233" type="line"/>
		</contour>
	</outline>
</glyph>
<glyph name="ellipsis" format="2">
	<unicode hex="2026"/>
	<advance width="600"/>
	<outline>
		<contour>
			<point x="93" y="-12" type="curve" smooth="yes"/>
			<point x="146" y="-12"/>
			<point x="173" y="16"/>
			<point x="173" y="98" type="curve" smooth="yes"/>
			<point x="173" y="180"/>
			<point x="146" y="208"/>
			<point x="93" y="208" type="curve" smooth="yes"/>
			<point x="40" y="208"/>
			<point x="13" y="180"/>
			<point x="13" y="98" type="curve" smooth="yes"/>
			<point x="13" y="16"/>
			<point x="40" y="-12"/>
		</contour>
		<contour>
			<point x="299" y="-12" type="curve" smooth="yes"/>
			<point x="352" y="-12"/>
			<point x="379" y="18"/>
			<point x="379" y="98" type="curve" smooth="yes"/>
			<point x="379" y="177"/>
			<point x="352" y="208"/>
			<point x="299" y="208" type="curve" smooth="yes"/>
			<point x="246" y="208"/>
			<point x="219" y="177"/>
			<point x="219" y="98" type="curve" smooth="yes"/>
			<point x="219" y="19"/>
			<point x="246" y="-12"/>
		</contour>
		<contour>
			<point x="506" y="-12" type="curve" smooth="yes"/>
			<point x="559" y="-12"/>
			<point x="587" y="18"/>
			<point x="587" y="98" type="curve" smooth="yes"/>
			<point x="587" y="178"/>
			<point x="559" y="208"/>
			<point x="506" y="208" type="curve" smooth="yes"/>
			<point x="454" y="208"/>
			<point x="426" y="178"/>
			<point x="426" y="98" type="curve" smooth="yes"/>
			<point x="426" y="18"/>
			<point x="454" y="-12"/>
		</contour>
	</outline>
</glyph>
<glyph name="perthousand" format="2">
	<unicode hex="2030"/>
	<advance width="600"/>
	<outline>
		<contour>
			<point x="154" y="393" type="curve" smooth="yes"/>
			<point x="244" y="393"/>
			<point x="303" y="438"/>
			<point x="303" y="542" type="curve" smooth="yes"/>
			<point x="303" y="646"/>
			<point x="244" y="691"/>
			<point x="154" y="691" type="curve" smooth="yes"/>
			<point x="66" y="691"/>
			<point x="5" y="646"/>
			<point x="5" y="542" type="curve" smooth="yes"/>
			<point x="5" y="438"/>
			<point x="66" y="393"/>
		</contour>
		<contour>
			<point x="154" y="482" type="curve" smooth="yes"/>
			<point x="128" y="482"/>
			<point x="118" y="499"/>
			<point x="118" y="542" type="curve" smooth="yes"/>
			<point x="118" y="584"/>
			<point x="128" y="602"/>
			<point x="154" y="602" type="curve" smooth="yes"/>
			<point x="180" y="602"/>
			<point x="190" y="584"/>
			<point x="190" y="542" type="curve" smooth="yes"/>
			<point x="190" y="499"/>
			<point x="181" y="482"/>
		</contour>
		<contour>
			<point x="15" y="258" type="line"/>
			<point x="577" y="392" type="line"/>
			<point x="577" y="469" type="line"/>
			<point x="15" y="334" type="line"/>
		</contour>
		<contour>
			<point x="257" y="-7" type="curve" smooth="yes"/>
			<point x="296" y="-7"/>
			<point x="329" y="3"/>
			<point x="354" y="19" type="curve"/>
			<point x="379" y="3"/>
			<point x="413" y="-7"/>
			<point x="451" y="-7" type="curve" smooth="yes"/>
			<point x="538" y="-7"/>
			<point x="596" y="38"/>
			<point x="596" y="142" type="curve" smooth="yes"/>
			<point x="596" y="246"/>
			<point x="536" y="291"/>
			<point x="451" y="291" type="curve" smooth="yes"/>
			<point x="411" y="291"/>
			<point x="379" y="279"/>
			<point x="354" y="263" type="curve"/>
			<point x="329" y="279"/>
			<point x="297" y="291"/>
			<point x="254" y="291" type="curve" smooth="yes"/>
			<point x="171" y="291"/>
			<point x="112" y="246"/>
			<point x="112" y="142" type="curve" smooth="yes"/>
			<point x="112" y="38"/>
			<point x="170" y="-7"/>
		</contour>
		<contour>
			<point x="261" y="82" type="curve" smooth="yes"/>
			<point x="235" y="82"/>
			<point x="225" y="99"/>
			<point x="225" y="142" type="curve" smooth="yes"/>
			<point x="225" y="184"/>
			<point x="235" y="202"/>
			<point x="261" y="202" type="curve" smooth="yes"/>
			<point x="287" y="202"/>
			<point x="297" y="184"/>
			<point x="297" y="142" type="curve" smooth="yes"/>
			<point x="297" y="99"/>
			<point x="288" y="82"/>
		</contour>
		<contour>
			<point x="447" y="82" type="curve" smooth="yes"/>
			<point x="421" y="82"/>
			<point x="411" y="99"/>
			<point x="411" y="142" type="curve" smooth="yes"/>
			<point x="411" y="184"/>
			<point x="421" y="202"/>
			<point x="447" y="202" type="curve" smooth="yes"/>
			<point x="473" y="202"/>
			<point x="483" y="184"/>
			<point x="483" y="142" type="curve" smooth="yes"/>
			<point x="483" y="99"/>
			<point x="474" y="82"/>
		</contour>
	</outline>
	<guideline x="244" y="691" angle="90"/>
	<guideline x="77" y="727" angle="90"/>
	<guideline x="190" y="542" angle="0"/>
	<guideline x="303" y="645" angle="0"/>
	<guideline x="112" y="38" angle="0"/>
</glyph>
<glyph name="fraction" format="2">
	<unicode hex="2044"/>
	<advance width="600"/>
	<outline>
		<contour>
			<point x="361" y="407" type="line"/>
			<point x="501" y="407" type="line"/>
			<point x="585" y="684" type="line"/>
			<point x="416" y="684" type="line"/>
		</contour>
		<contour>
			<point x="15" y="0" type="line"/>
			<point x="184" y="0" type="line"/>
			<point x="240" y="278" type="line"/>
			<point x="99" y="278" type="line"/>
		</contour>
	</outline>
	<guideline x="601" y="302" angle="0" identifier="MJnSmejCik"/>
</glyph>
<glyph name="ohm" format="2">
	<unicode hex="2126"/>
	<advance width="600"/>
	<outline>
		<contour>
			<point x="22" y="0" type="line"/>
			<point x="281" y="0" type="line"/>
			<point x="280" y="163" type="line"/>
			<point x="241" y="233"/>
			<point x="230" y="276"/>
			<point x="230" y="389" type="curve" smooth="yes"/>
			<point x="230" y="396" type="line" smooth="yes"/>
			<point x="230" y="516"/>
			<point x="259" y="539"/>
			<point x="301" y="539" type="curve" smooth="yes"/>
			<point x="343" y="539"/>
			<point x="369" y="516"/>
			<point x="369" y="396" type="curve" smooth="yes"/>
			<point x="369" y="389" type="line" smooth="yes"/>
			<point x="369" y="277"/>
			<point x="357" y="233"/>
			<point x="318" y="163" type="curve"/>
			<point x="318" y="0" type="line"/>
			<point x="578" y="0" type="line"/>
			<point x="578" y="160" type="line"/>
			<point x="497" y="160" type="line"/>
			<point x="547" y="222"/>
			<point x="569" y="302"/>
			<point x="569" y="394" type="curve" smooth="yes"/>
			<point x="569" y="408" type="line" smooth="yes"/>
			<point x="569" y="604"/>
			<point x="475" y="698"/>
			<point x="301" y="698" type="curve" smooth="yes"/>
			<point x="127" y="698"/>
			<point x="30" y="603"/>
			<point x="30" y="408" type="curve" smooth="yes"/>
			<point x="30" y="394" type="line" smooth="yes"/>
			<point x="30" y="296"/>
			<point x="50" y="221"/>
			<point x="100" y="160" type="curve"/>
			<point x="22" y="160" type="line"/>
		</contour>
	</outline>
	<guideline x="45" y="214" angle="180.0963"/>
	<guideline x="619" y="429" angle="90"/>
</glyph>
<glyph name="arrowleft" format="2">
	<unicode hex="2190"/>
	<advance width="600"/>
	<outline>
		<contour>
			<point x="417" y="113" type="line"/>
			<point x="264" y="263" type="line"/>
			<point x="580" y="263" type="line"/>
			<point x="580" y="415" type="line"/>
			<point x="265" y="415" type="line"/>
			<point x="416" y="564" type="line"/>
			<point x="229" y="564" type="line"/>
			<point x="4" y="339" type="line"/>
			<point x="230" y="113" type="line"/>
		</contour>
	</outline>
	<guideline x="239" y="409" angle="90"/>
	<guideline x="292" y="654" angle="315"/>
	<guideline x="4" y="339" angle="315"/>
</glyph>
<glyph name="arrowup" format="2">
	<unicode hex="2191"/>
	<advance width="600"/>
	<outline>
		<contour>
			<point x="224" y="0" type="line"/>
			<point x="376" y="0" type="line"/>
			<point x="376" y="443" type="line"/>
			<point x="525" y="292" type="line"/>
			<point x="525" y="479" type="line"/>
			<point x="300" y="703" type="line"/>
			<point x="75" y="477" type="line"/>
			<point x="75" y="292" type="line"/>
			<point x="224" y="443" type="line"/>
		</contour>
	</outline>
	<guideline x="60" y="258" angle="0"/>
	<guideline x="325" y="1" angle="90"/>
	<guideline x="301" y="698" angle="45"/>
	<guideline x="301" y="698" angle="315"/>
</glyph>
<glyph name="arrowright" format="2">
	<unicode hex="2192"/>
	<advance width="600"/>
	<outline>
		<contour>
			<point x="182" y="564" type="line"/>
			<point x="336" y="414" type="line"/>
			<point x="20" y="414" type="line"/>
			<point x="20" y="262" type="line"/>
			<point x="336" y="262" type="line"/>
			<point x="185" y="113" type="line"/>
			<point x="372" y="113" type="line"/>
			<point x="596" y="338" type="line"/>
			<point x="369" y="564" type="line"/>
		</contour>
	</outline>
</glyph>
<glyph name="arrowdown" format="2">
	<unicode hex="2193"/>
	<advance width="600"/>
	<outline>
		<contour>
			<point x="525" y="392" type="line"/>
			<point x="376" y="241" type="line"/>
			<point x="376" y="684" type="line"/>
			<point x="224" y="684" type="line"/>
			<point x="224" y="241" type="line"/>
			<point x="75" y="392" type="line"/>
			<point x="75" y="205" type="line"/>
			<point x="300" y="-19" type="line"/>
			<point x="525" y="207" type="line"/>
		</contour>
	</outline>
</glyph>
<glyph name="uni2197" format="2">
	<unicode hex="2197"/>
	<advance width="600"/>
	<outline>
		<contour>
			<point x="118" y="60" type="line"/>
			<point x="429" y="373" type="line"/>
			<point x="427" y="161" type="line"/>
			<point x="560" y="293" type="line"/>
			<point x="560" y="610" type="line"/>
			<point x="240" y="610" type="line"/>
			<point x="109" y="479" type="line"/>
			<point x="323" y="482" type="line"/>
			<point x="10" y="168" type="line"/>
		</contour>
	</outline>
	<guideline x="-296" y="648" angle="0"/>
</glyph>
<glyph name="increment" format="2">
	<unicode hex="2206"/>
	<advance width="600"/>
	<outline>
		<contour>
			<point x="0" y="0" type="line"/>
			<point x="600" y="0" type="line"/>
			<point x="442" y="684" type="line"/>
			<point x="158" y="684" type="line"/>
		</contour>
		<contour>
			<point x="231" y="160" type="line"/>
			<point x="300" y="534" type="line"/>
			<point x="367" y="160" type="line"/>
		</contour>
	</outline>
</glyph>
<glyph name="summation" format="2">
	<unicode hex="2211"/>
	<advance width="600"/>
	<outline>
		<contour>
			<point x="44" y="0" type="line"/>
			<point x="559" y="0" type="line"/>
			<point x="559" y="160" type="line"/>
			<point x="292" y="160" type="line"/>
			<point x="455" y="278" type="line"/>
			<point x="455" y="409" type="line"/>
			<point x="299" y="525" type="line"/>
			<point x="557" y="525" type="line"/>
			<point x="557" y="684" type="line"/>
			<point x="45" y="684" type="line"/>
			<point x="45" y="519" type="line"/>
			<point x="276" y="343" type="line"/>
			<point x="44" y="173" type="line"/>
		</contour>
	</outline>
</glyph>
<glyph name="minus" format="2">
	<unicode hex="2212"/>
	<advance width="600"/>
	<outline>
		<contour>
			<point x="58" y="218" type="line"/>
			<point x="542" y="218" type="line"/>
			<point x="542" y="378" type="line"/>
			<point x="58" y="378" type="line"/>
		</contour>
	</outline>
</glyph>
<glyph name="infinity" format="2">
	<unicode hex="221E"/>
	<advance width="600"/>
	<outline>
		<contour>
			<point x="164" y="592" type="curve" smooth="yes"/>
			<point x="62" y="592"/>
			<point x="14" y="514"/>
			<point x="14" y="334" type="curve" smooth="yes"/>
			<point x="14" y="155"/>
			<point x="61" y="75"/>
			<point x="163" y="75" type="curve" smooth="yes"/>
			<point x="239" y="75"/>
			<point x="283" y="136"/>
			<point x="300" y="209" type="curve"/>
			<point x="316" y="137"/>
			<point x="357" y="74"/>
			<point x="437" y="74" type="curve" smooth="yes"/>
			<point x="539" y="74"/>
			<point x="586" y="153"/>
			<point x="586" y="332" type="curve" smooth="yes"/>
			<point x="586" y="510"/>
			<point x="539" y="591"/>
			<point x="438" y="591" type="curve" smooth="yes"/>
			<point x="360" y="591"/>
			<point x="319" y="533"/>
			<point x="301" y="457" type="curve"/>
			<point x="285" y="528"/>
			<point x="243" y="592"/>
		</contour>
		<contour>
			<point x="409" y="221" type="curve" smooth="yes"/>
			<point x="379" y="221"/>
			<point x="365" y="242"/>
			<point x="365" y="333" type="curve" smooth="yes"/>
			<point x="365" y="422"/>
			<point x="378" y="447"/>
			<point x="409" y="447" type="curve" smooth="yes"/>
			<point x="439" y="447"/>
			<point x="453" y="424"/>
			<point x="453" y="333" type="curve" smooth="yes"/>
			<point x="453" y="241"/>
			<point x="439" y="221"/>
		</contour>
		<contour>
			<point x="191" y="221" type="curve" smooth="yes"/>
			<point x="160" y="221"/>
			<point x="147" y="245"/>
			<point x="147" y="333" type="curve" smooth="yes"/>
			<point x="147" y="424"/>
			<point x="161" y="446"/>
			<point x="190" y="446" type="curve" smooth="yes"/>
			<point x="221" y="446"/>
			<point x="235" y="424"/>
			<point x="235" y="333" type="curve" smooth="yes"/>
			<point x="235" y="243"/>
			<point x="221" y="221"/>
		</contour>
	</outline>
	<guideline x="277" y="222" angle="0"/>
</glyph>
<glyph name="integral" format="2">
	<unicode hex="222B"/>
	<advance width="600"/>
	<outline>
		<contour>
			<point x="152" y="-204" type="curve" smooth="yes"/>
			<point x="280" y="-204"/>
			<point x="387" y="-155"/>
			<point x="387" y="9" type="curve" smooth="yes"/>
			<point x="387" y="495" type="line" smooth="yes"/>
			<point x="387" y="534"/>
			<point x="422" y="551"/>
			<point x="465" y="551" type="curve" smooth="yes"/>
			<point x="495" y="551"/>
			<point x="523" y="546"/>
			<point x="536" y="543" type="curve"/>
			<point x="536" y="680" type="line"/>
			<point x="506" y="691"/>
			<point x="470" y="698"/>
			<point x="415" y="698" type="curve" smooth="yes"/>
			<point x="291" y="698"/>
			<point x="193" y="652"/>
			<point x="193" y="499" type="curve" smooth="yes"/>
			<point x="193" y="12" type="line" smooth="yes"/>
			<point x="193" y="-43"/>
			<point x="165" y="-63"/>
			<point x="102" y="-63" type="curve" smooth="yes"/>
			<point x="84" y="-63"/>
			<point x="67" y="-61"/>
			<point x="44" y="-58" type="curve"/>
			<point x="44" y="-189" type="line"/>
			<point x="69" y="-198"/>
			<point x="108" y="-204"/>
		</contour>
	</outline>
</glyph>
<glyph name="approxequal" format="2">
	<unicode hex="2248"/>
	<advance width="600"/>
	<outline>
		<contour>
			<point x="167" y="387" type="curve" smooth="yes"/>
			<point x="239" y="387"/>
			<point x="333" y="331"/>
			<point x="434" y="331" type="curve" smooth="yes"/>
			<point x="479" y="331"/>
			<point x="525" y="347"/>
			<point x="542" y="372" type="curve"/>
			<point x="542" y="541" type="line"/>
			<point x="509" y="500"/>
			<point x="471" y="492"/>
			<point x="426" y="493" type="curve" smooth="yes"/>
			<point x="360" y="495"/>
			<point x="251" y="549"/>
			<point x="166" y="549" type="curve" smooth="yes"/>
			<point x="123" y="549"/>
			<point x="75" y="534"/>
			<point x="58" y="509" type="curve"/>
			<point x="58" y="339" type="line"/>
			<point x="83" y="372"/>
			<point x="127" y="387"/>
		</contour>
		<contour>
			<point x="167" y="148" type="curve" smooth="yes"/>
			<point x="239" y="148"/>
			<point x="333" y="92"/>
			<point x="434" y="92" type="curve" smooth="yes"/>
			<point x="481" y="92"/>
			<point x="525" y="108"/>
			<point x="542" y="133" type="curve"/>
			<point x="542" y="302" type="line"/>
			<point x="512" y="265"/>
			<point x="476" y="252"/>
			<point x="426" y="254" type="curve" smooth="yes"/>
			<point x="370" y="256"/>
			<point x="249" y="310"/>
			<point x="163" y="310" type="curve" smooth="yes"/>
			<point x="120" y="310"/>
			<point x="75" y="294"/>
			<point x="58" y="270" type="curve"/>
			<point x="58" y="100" type="line"/>
			<point x="83" y="133"/>
			<point x="129" y="148"/>
		</contour>
	</outline>
</glyph>
<glyph name="lessequal" format="2">
	<unicode hex="2264"/>
	<advance width="600"/>
	<outline>
		<contour>
			<point x="542" y="189" type="line"/>
			<point x="542" y="361" type="line"/>
			<point x="211" y="463" type="line"/>
			<point x="542" y="559" type="line"/>
			<point x="542" y="732" type="line"/>
			<point x="58" y="566" type="line"/>
			<point x="58" y="352" type="line"/>
		</contour>
		<contour>
			<point x="58" y="-14" type="line"/>
			<point x="542" y="-14" type="line"/>
			<point x="542" y="146" type="line"/>
			<point x="58" y="146" type="line"/>
		</contour>
	</outline>
</glyph>
<glyph name="uni263E" format="2">
	<unicode hex="263E"/>
	<advance width="600"/>
	<outline>
		<contour>
			<point x="125" y="354" type="curve" smooth="yes"/>
			<point x="125" y="191"/>
			<point x="258" y="58"/>
			<point x="421" y="58" type="curve" smooth="yes"/>
			<point x="486" y="58"/>
			<point x="548" y="79"/>
			<point x="599" y="115" type="curve"/>
			<point x="576" y="108"/>
			<point x="552" y="103"/>
			<point x="528" y="103" type="curve" smooth="yes"/>
			<point x="396" y="103"/>
			<point x="289" y="216"/>
			<point x="289" y="354" type="curve" smooth="yes"/>
			<point x="289" y="492"/>
			<point x="396" y="605"/>
			<point x="528" y="605" type="curve" smooth="yes"/>
			<point x="552" y="605"/>
			<point x="576" y="599"/>
			<point x="599" y="593" type="curve"/>
			<point x="548" y="629"/>
			<point x="486" y="650"/>
			<point x="421" y="650" type="curve" smooth="yes"/>
			<point x="258" y="650"/>
			<point x="125" y="517"/>
		</contour>
	</outline>
</glyph>
<glyph name="club" format="2">
	<unicode hex="2663"/>
	<advance width="600"/>
	<outline>
		<contour>
			<point x="576" y="0" type="line"/>
			<point x="554" y="44"/>
			<point x="494" y="142"/>
			<point x="481" y="245" type="curve"/>
			<point x="507" y="177"/>
			<point x="566" y="128"/>
			<point x="641" y="128" type="curve" smooth="yes"/>
			<point x="737" y="128"/>
			<point x="814" y="207"/>
			<point x="814" y="303" type="curve" smooth="yes"/>
			<point x="814" y="399"/>
			<point x="738" y="476"/>
			<point x="642" y="476" type="curve" smooth="yes"/>
			<point x="626" y="476"/>
			<point x="610" y="473"/>
			<point x="597" y="468" type="curve"/>
			<point x="608" y="495"/>
			<point x="615" y="525"/>
			<point x="615" y="555" type="curve" smooth="yes"/>
			<point x="615" y="650"/>
			<point x="538" y="726"/>
			<point x="443" y="726" type="curve" smooth="yes"/>
			<point x="348" y="726"/>
			<point x="270" y="650"/>
			<point x="270" y="555" type="curve" smooth="yes"/>
			<point x="270" y="526"/>
			<point x="278" y="496"/>
			<point x="290" y="470" type="curve"/>
			<point x="277" y="473"/>
			<point x="264" y="476"/>
			<point x="249" y="476" type="curve" smooth="yes"/>
			<point x="153" y="476"/>
			<point x="75" y="399"/>
			<point x="75" y="303" type="curve" smooth="yes"/>
			<point x="75" y="207"/>
			<point x="153" y="128"/>
			<point x="249" y="128" type="curve" smooth="yes"/>
			<point x="325" y="128"/>
			<point x="386" y="178"/>
			<point x="413" y="246" type="curve"/>
			<point x="401" y="142"/>
			<point x="347" y="44"/>
			<point x="322" y="0" type="curve"/>
		</contour>
	</outline>
</glyph>
<glyph name="heart" format="2">
	<unicode hex="2665"/>
	<advance width="600"/>
	<outline>
		<contour>
			<point x="81" y="541" type="curve" smooth="yes"/>
			<point x="81" y="427"/>
			<point x="141" y="318"/>
			<point x="304" y="137" type="curve" smooth="yes"/>
			<point x="442" y="-17" type="line"/>
			<point x="580" y="137" type="line" smooth="yes"/>
			<point x="744" y="318"/>
			<point x="808" y="427"/>
			<point x="808" y="541" type="curve" smooth="yes"/>
			<point x="808" y="642"/>
			<point x="723" y="726"/>
			<point x="622" y="726" type="curve" smooth="yes"/>
			<point x="522" y="726"/>
			<point x="453" y="658"/>
			<point x="442" y="569" type="curve"/>
			<point x="431" y="658"/>
			<point x="360" y="726"/>
			<point x="261" y="726" type="curve" smooth="yes"/>
			<point x="160" y="726"/>
			<point x="81" y="642"/>
		</contour>
	</outline>
</glyph>
<glyph name="uni267C" format="2">
	<unicode hex="267C"/>
	<advance width="600"/>
	<outline>
		<contour>
			<point x="747" y="354" type="curve" smooth="yes"/>
			<point x="747" y="542"/>
			<point x="596" y="694"/>
			<point x="410" y="694" type="curve" smooth="yes"/>
			<point x="222" y="694"/>
			<point x="70" y="542"/>
			<point x="70" y="354" type="curve" smooth="yes"/>
			<point x="70" y="167"/>
			<point x="222" y="17"/>
			<point x="410" y="17" type="curve" smooth="yes"/>
			<point x="596" y="17"/>
			<point x="747" y="167"/>
		</contour>
		<contour>
			<point x="353" y="611" type="curve"/>
			<point x="353" y="612" type="line"/>
			<point x="480" y="612" type="line" smooth="yes"/>
			<point x="505" y="612"/>
			<point x="523" y="610"/>
			<point x="540" y="581" type="curve" smooth="yes"/>
			<point x="559" y="549" type="line"/>
			<point x="587" y="565" type="line"/>
			<point x="547" y="455" type="line"/>
			<point x="434" y="476" type="line"/>
			<point x="461" y="492" type="line"/>
			<point x="413" y="574" type="line" smooth="yes"/>
			<point x="394" y="607"/>
			<point x="353" y="611"/>
		</contour>
		<contour>
			<point x="268" y="570" type="line"/>
			<point x="270" y="577"/>
			<point x="279" y="585"/>
			<point x="289" y="591" type="curve" smooth="yes"/>
			<point x="328" y="614"/>
			<point x="384" y="593"/>
			<point x="397" y="568" type="curve"/>
			<point x="322" y="436" type="line"/>
			<point x="223" y="493" type="line"/>
		</contour>
		<contour>
			<point x="665" y="370" type="line"/>
			<point x="669" y="363"/>
			<point x="673" y="353"/>
			<point x="673" y="341" type="curve" smooth="yes"/>
			<point x="673" y="295"/>
			<point x="627" y="257"/>
			<point x="599" y="257" type="curve"/>
			<point x="522" y="389" type="line"/>
			<point x="621" y="446" type="line"/>
		</contour>
		<contour>
			<point x="214" y="181" type="curve"/>
			<point x="213" y="181" type="line"/>
			<point x="150" y="290" type="line"/>
			<point x="139" y="312"/>
			<point x="129" y="328"/>
			<point x="147" y="358" type="curve" smooth="yes"/>
			<point x="166" y="390" type="line"/>
			<point x="138" y="407" type="line"/>
			<point x="252" y="426" type="line"/>
			<point x="291" y="317" type="line"/>
			<point x="264" y="334" type="line"/>
			<point x="216" y="252" type="line" smooth="yes"/>
			<point x="197" y="218"/>
			<point x="214" y="181"/>
		</contour>
		<contour>
			<point x="658" y="274" type="curve"/>
			<point x="659" y="273" type="line"/>
			<point x="595" y="164" type="line" smooth="yes"/>
			<point x="583" y="144"/>
			<point x="573" y="128"/>
			<point x="538" y="128" type="curve" smooth="yes"/>
			<point x="501" y="128" type="line"/>
			<point x="501" y="95" type="line"/>
			<point x="426" y="184" type="line"/>
			<point x="501" y="272" type="line"/>
			<point x="501" y="241" type="line"/>
			<point x="595" y="241" type="line" smooth="yes"/>
			<point x="635" y="241"/>
			<point x="658" y="274"/>
		</contour>
		<contour>
			<point x="293" y="128" type="line"/>
			<point x="286" y="128"/>
			<point x="274" y="130"/>
			<point x="264" y="136" type="curve" smooth="yes"/>
			<point x="224" y="159"/>
			<point x="214" y="216"/>
			<point x="229" y="241" type="curve"/>
			<point x="382" y="241" type="line"/>
			<point x="382" y="128" type="line"/>
		</contour>
	</outline>
</glyph>
<glyph name="anglebracketright" format="2">
	<unicode hex="3009"/>
	<advance width="600"/>
	<outline>
		<contour>
			<point x="30" y="-163" type="line"/>
			<point x="239" y="-163" type="line"/>
			<point x="497" y="314" type="line"/>
			<point x="247" y="792" type="line"/>
			<point x="40" y="792" type="line"/>
			<point x="294" y="312" type="line"/>
		</contour>
	</outline>
</glyph>
<glyph name="commaaccent" format="2">
	<unicode hex="F6C3"/>
	<advance width="600"/>
	<outline>
		<contour>
			<point x="217" y="-293" type="curve"/>
			<point x="333" y="-293" type="line"/>
			<point x="357" y="-272"/>
			<point x="397" y="-218"/>
			<point x="397" y="-144" type="curve" smooth="yes"/>
			<point x="397" y="-79"/>
			<point x="372" y="-48"/>
			<point x="297" y="-48" type="curve" smooth="yes"/>
			<point x="230" y="-48"/>
			<point x="197" y="-73"/>
			<point x="197" y="-134" type="curve" smooth="yes"/>
			<point x="197" y="-181"/>
			<point x="215" y="-205"/>
			<point x="262" y="-209" type="curve"/>
			<point x="251" y="-242"/>
			<point x="238" y="-266"/>
		</contour>
	</outline>
	<anchor name="_bottom" x="296" y="0"/>
	<anchor name="anchor" x="896" y="0"/>
</glyph>
<glyph name="Anocross" format="2">
	<advance width="600"/>
	<outline>
		<contour>
			<point x="0" y="0" type="line"/>
			<point x="201" y="0" type="line"/>
			<point x="300" y="533" type="line"/>
			<point x="397" y="0" type="line"/>
			<point x="600" y="0" type="line"/>
			<point x="444" y="684" type="line"/>
			<point x="158" y="684" type="line"/>
		</contour>
	</outline>
	<anchor name="bottom" x="360" y="0"/>
	<anchor name="ogonek" x="599" y="0"/>
	<anchor name="top" x="301" y="684"/>
</glyph>
<glyph name="Lslashcomb" format="2">
	<advance width="600"/>
	<outline>
		<contour>
			<point x="10" y="409" type="line"/>
			<point x="10" y="281" type="line"/>
			<point x="443" y="443" type="line"/>
			<point x="443" y="571" type="line"/>
		</contour>
	</outline>
	<anchor name="_center" x="188" y="411"/>
</glyph>
<glyph name="asciitilde_equal.cLig.x" format="2">
	<advance width="600"/>
	<outline>
		<contour>
			<point x="-320" y="291" type="line"/>
			<point x="-281" y="343"/>
			<point x="-217" y="369"/>
			<point x="-153" y="369" type="curve" smooth="yes"/>
			<point x="-48" y="369"/>
			<point x="20" y="293"/>
			<point x="164" y="293" type="curve" smooth="yes"/>
			<point x="236" y="293"/>
			<point x="291" y="322"/>
			<point x="320" y="364" type="curve"/>
			<point x="320" y="533" type="line"/>
			<point x="269" y="469"/>
			<point x="226" y="454"/>
			<point x="156" y="455" type="curve" smooth="yes"/>
			<point x="59" y="456"/>
			<point x="-31" y="531"/>
			<point x="-154" y="531" type="curve" smooth="yes"/>
			<point x="-222" y="531"/>
			<point x="-291" y="503"/>
			<point x="-320" y="461" type="curve"/>
		</contour>
		<contour>
			<point x="-320" y="83" type="line"/>
			<point x="320" y="83" type="line"/>
			<point x="320" y="243" type="line"/>
			<point x="-320" y="243" type="line"/>
		</contour>
	</outline>
</glyph>
<glyph name="asciitilde_hyphen.cLig" format="2">
	<advance width="600"/>
	<outline>
		<contour>
			<point x="448" y="390" type="line"/>
			<point x="-24" y="390" type="line"/>
			<point x="-28" y="353"/>
			<point x="-43" y="326"/>
			<point x="-75" y="326" type="curve" smooth="yes"/>
			<point x="-128" y="326"/>
			<point x="-169" y="438"/>
			<point x="-284" y="438" type="curve"/>
			<point x="-389" y="438"/>
			<point x="-442" y="364"/>
			<point x="-442" y="167" type="curve"/>
			<point x="-301" y="167" type="line"/>
			<point x="-301" y="231"/>
			<point x="-290" y="262"/>
			<point x="-254" y="262" type="curve"/>
			<point x="-206" y="262"/>
			<point x="-150" y="153"/>
			<point x="-48" y="153" type="curve" smooth="yes"/>
			<point x="5" y="153"/>
			<point x="44" y="174"/>
			<point x="69" y="218" type="curve"/>
			<point x="448" y="218" type="line"/>
		</contour>
	</outline>
</glyph>
<glyph name="asterisk_asterisk_asterisk.cLig" format="2">
	<advance width="600"/>
	<outline>
		<contour>
			<point x="-128" y="226" type="line"/>
			<point x="-36" y="383" type="line"/>
			<point x="-217" y="431" type="line"/>
			<point x="-35" y="477" type="line"/>
			<point x="-125" y="635" type="line"/>
			<point x="-259" y="501" type="line"/>
			<point x="-208" y="684" type="line"/>
			<point x="-391" y="684" type="line"/>
			<point x="-340" y="501" type="line"/>
			<point x="-474" y="637" type="line"/>
			<point x="-565" y="479" type="line"/>
			<point x="-381" y="431" type="line"/>
			<point x="-564" y="384" type="line"/>
			<point x="-473" y="226" type="line"/>
			<point x="-341" y="360" type="line"/>
			<point x="-391" y="178" type="line"/>
			<point x="-208" y="178" type="line"/>
			<point x="-258" y="358" type="line"/>
		</contour>
		<contour>
			<point x="-678" y="48" type="line"/>
			<point x="-586" y="205" type="line"/>
			<point x="-767" y="253" type="line"/>
			<point x="-585" y="299" type="line"/>
			<point x="-675" y="457" type="line"/>
			<point x="-809" y="323" type="line"/>
			<point x="-758" y="506" type="line"/>
			<point x="-941" y="506" type="line"/>
			<point x="-890" y="323" type="line"/>
			<point x="-1024" y="459" type="line"/>
			<point x="-1115" y="301" type="line"/>
			<point x="-931" y="253" type="line"/>
			<point x="-1114" y="206" type="line"/>
			<point x="-1023" y="48" type="line"/>
			<point x="-891" y="182" type="line"/>
			<point x="-941" y="0" type="line"/>
			<point x="-758" y="0" type="line"/>
			<point x="-808" y="180" type="line"/>
		</contour>
		<contour>
			<point x="422" y="47" type="line"/>
			<point x="514" y="204" type="line"/>
			<point x="333" y="252" type="line"/>
			<point x="515" y="298" type="line"/>
			<point x="425" y="456" type="line"/>
			<point x="291" y="322" type="line"/>
			<point x="342" y="505" type="line"/>
			<point x="159" y="505" type="line"/>
			<point x="210" y="322" type="line"/>
			<point x="76" y="458" type="line"/>
			<point x="-15" y="300" type="line"/>
			<point x="169" y="252" type="line"/>
			<point x="-14" y="205" type="line"/>
			<point x="77" y="47" type="line"/>
			<point x="209" y="181" type="line"/>
			<point x="159" y="-1" type="line"/>
			<point x="342" y="-1" type="line"/>
			<point x="292" y="179" type="line"/>
		</contour>
	</outline>
</glyph>
<glyph name="asterisk_greater.cLig" format="2">
	<advance width="600"/>
	<outline>
		<contour>
			<point x="46" y="-16" type="line"/>
			<point x="500" y="208" type="line"/>
			<point x="500" y="422" type="line"/>
			<point x="46" y="644" type="line"/>
			<point x="46" y="462" type="line"/>
			<point x="363" y="313" type="line"/>
			<point x="46" y="167" type="line"/>
		</contour>
		<contour>
			<point x="-76" y="116" type="line"/>
			<point x="15" y="274" type="line"/>
			<point x="-169" y="322" type="line"/>
			<point x="14" y="369" type="line"/>
			<point x="-77" y="527" type="line"/>
			<point x="-209" y="393" type="line"/>
			<point x="-159" y="575" type="line"/>
			<point x="-342" y="575" type="line"/>
			<point x="-292" y="395" type="line"/>
			<point x="-422" y="527" type="line"/>
			<point x="-514" y="370" type="line"/>
			<point x="-333" y="322" type="line"/>
			<point x="-515" y="276" type="line"/>
			<point x="-425" y="118" type="line"/>
			<point x="-291" y="252" type="line"/>
			<point x="-342" y="69" type="line"/>
			<point x="-159" y="69" type="line"/>
			<point x="-210" y="252" type="line"/>
		</contour>
	</outline>
	<guideline x="-500" y="422" angle="0" identifier="j9wR5EifnK"/>
</glyph>
<glyph name="asterisk_large.rem" format="2">
	<advance width="600"/>
	<outline>
		<contour>
			<point x="472" y="117" type="line"/>
			<point x="564" y="274" type="line"/>
			<point x="383" y="322" type="line"/>
			<point x="565" y="368" type="line"/>
			<point x="475" y="526" type="line"/>
			<point x="341" y="392" type="line"/>
			<point x="392" y="575" type="line"/>
			<point x="209" y="575" type="line"/>
			<point x="260" y="392" type="line"/>
			<point x="126" y="528" type="line"/>
			<point x="35" y="370" type="line"/>
			<point x="219" y="322" type="line"/>
			<point x="36" y="275" type="line"/>
			<point x="127" y="117" type="line"/>
			<point x="259" y="251" type="line"/>
			<point x="209" y="69" type="line"/>
			<point x="392" y="69" type="line"/>
			<point x="342" y="249" type="line"/>
		</contour>
	</outline>
</glyph>
<glyph name="bar_bar.cLig" format="2">
	<advance width="600"/>
	<outline>
		<contour>
			<point x="-330" y="793" type="line"/>
			<point x="-330" y="-162" type="line"/>
			<point x="-150" y="-162" type="line"/>
			<point x="-150" y="793" type="line"/>
		</contour>
		<contour>
			<point x="150" y="793" type="line"/>
			<point x="150" y="-162" type="line"/>
			<point x="330" y="-162" type="line"/>
			<point x="330" y="793" type="line"/>
		</contour>
	</outline>
</glyph>
<glyph name="bar_bar_greater.cLig" format="2">
	<advance width="600"/>
	<outline>
		<contour>
			<point x="-890" y="708" type="line"/>
			<point x="-890" y="-79" type="line"/>
			<point x="-710" y="-79" type="line"/>
			<point x="-710" y="708" type="line"/>
		</contour>
		<contour>
			<point x="-330" y="-79" type="line"/>
			<point x="-150" y="-79" type="line"/>
			<point x="354" y="208" type="line"/>
			<point x="354" y="422" type="line"/>
			<point x="-150" y="708" type="line"/>
			<point x="-330" y="708" type="line"/>
		</contour>
		<contour>
			<point x="-150" y="507" type="line"/>
			<point x="197" y="316" type="line"/>
			<point x="-150" y="121" type="line"/>
		</contour>
	</outline>
</glyph>
<glyph name="bar_bar_hyphen.init" format="2">
	<advance width="600"/>
	<outline>
		<contour>
			<point x="-20" y="-55" type="line"/>
			<point x="160" y="-55" type="line"/>
			<point x="160" y="228" type="line"/>
			<point x="600" y="228" type="line"/>
			<point x="600" y="400" type="line"/>
			<point x="160" y="400" type="line"/>
			<point x="160" y="684" type="line"/>
			<point x="-20" y="684" type="line"/>
		</contour>
		<contour>
			<point x="-400" y="-55" type="line"/>
			<point x="-220" y="-55" type="line"/>
			<point x="-220" y="684" type="line"/>
			<point x="-400" y="684" type="line"/>
		</contour>
	</outline>
</glyph>
<glyph name="bar_bar_hyphen.med" format="2">
	<advance width="600"/>
	<outline>
		<contour>
			<point x="100" y="-55" type="line"/>
			<point x="280" y="-55" type="line"/>
			<point x="280" y="228" type="line"/>
			<point x="600" y="228" type="line"/>
			<point x="600" y="400" type="line"/>
			<point x="280" y="400" type="line"/>
			<point x="280" y="684" type="line"/>
			<point x="100" y="684" type="line"/>
		</contour>
		<contour>
			<point x="-600" y="228" type="line"/>
			<point x="-280" y="228" type="line"/>
			<point x="-280" y="-55" type="line"/>
			<point x="-100" y="-55" type="line"/>
			<point x="-100" y="684" type="line"/>
			<point x="-280" y="684" type="line"/>
			<point x="-280" y="400" type="line"/>
			<point x="-600" y="400" type="line"/>
		</contour>
	</outline>
</glyph>
<glyph name="bar_braceright.cLig" format="2">
	<advance width="600"/>
	<outline>
		<contour>
			<point x="195" y="-163" type="curve" smooth="yes"/>
			<point x="-90" y="-163" type="line"/>
			<point x="-90" y="-26" type="line"/>
			<point x="116" y="-26" type="line" smooth="yes"/>
			<point x="159" y="-26"/>
			<point x="173" y="-8"/>
			<point x="173" y="14" type="curve" smooth="yes"/>
			<point x="173" y="65"/>
			<point x="111" y="124"/>
			<point x="111" y="197" type="curve" smooth="yes"/>
			<point x="111" y="250"/>
			<point x="163" y="300"/>
			<point x="244" y="313" type="curve"/>
			<point x="163" y="325"/>
			<point x="111" y="381"/>
			<point x="111" y="438" type="curve" smooth="yes"/>
			<point x="111" y="507"/>
			<point x="173" y="564"/>
			<point x="173" y="616" type="curve" smooth="yes"/>
			<point x="173" y="643"/>
			<point x="158" y="655"/>
			<point x="124" y="655" type="curve" smooth="yes"/>
			<point x="-90" y="655" type="line"/>
			<point x="-90" y="792" type="line"/>
			<point x="195" y="792" type="line" smooth="yes"/>
			<point x="309" y="792"/>
			<point x="372" y="724"/>
			<point x="372" y="649" type="curve" smooth="yes"/>
			<point x="372" y="554"/>
			<point x="310" y="505"/>
			<point x="310" y="446" type="curve" smooth="yes"/>
			<point x="310" y="420"/>
			<point x="328" y="392"/>
			<point x="360" y="392" type="curve" smooth="yes"/>
			<point x="460" y="392" type="line"/>
			<point x="460" y="234" type="line"/>
			<point x="360" y="234" type="line" smooth="yes"/>
			<point x="328" y="234"/>
			<point x="310" y="205"/>
			<point x="310" y="179" type="curve" smooth="yes"/>
			<point x="310" y="122"/>
			<point x="372" y="72"/>
			<point x="372" y="-22" type="curve" smooth="yes"/>
			<point x="372" y="-98"/>
			<point x="306" y="-163"/>
		</contour>
		<contour>
			<point x="-220" y="792" type="line"/>
			<point x="-220" y="-163" type="line"/>
			<point x="-400" y="-163" type="line"/>
			<point x="-400" y="792" type="line"/>
		</contour>
	</outline>
</glyph>
<glyph name="bar_bracketright.cLig" format="2">
	<advance width="600"/>
	<outline>
		<contour>
			<point x="-103" y="655" type="line"/>
			<point x="212" y="655" type="line"/>
			<point x="212" y="-26" type="line"/>
			<point x="-103" y="-26" type="line"/>
			<point x="-103" y="-163" type="line"/>
			<point x="393" y="-163" type="line"/>
			<point x="393" y="792" type="line"/>
			<point x="-103" y="792" type="line"/>
		</contour>
		<contour>
			<point x="-213" y="-163" type="line"/>
			<point x="-213" y="792" type="line"/>
			<point x="-393" y="792" type="line"/>
			<point x="-393" y="-163" type="line"/>
		</contour>
	</outline>
</glyph>
<glyph name="bar_equal.init" format="2">
	<advance width="600"/>
	<outline>
		<contour>
			<point x="100" y="684" type="line"/>
			<point x="100" y="-55" type="line"/>
			<point x="280" y="-55" type="line"/>
			<point x="280" y="118" type="line"/>
			<point x="600" y="118" type="line"/>
			<point x="600" y="278" type="line"/>
			<point x="280" y="278" type="line"/>
			<point x="280" y="351" type="line"/>
			<point x="600" y="351" type="line"/>
			<point x="600" y="511" type="line"/>
			<point x="280" y="511" type="line"/>
			<point x="280" y="684" type="line"/>
		</contour>
	</outline>
</glyph>
<glyph name="bar_equal.med" format="2">
	<advance width="600"/>
	<outline>
		<contour>
			<point x="0" y="118" type="line"/>
			<point x="210" y="118" type="line"/>
			<point x="210" y="-55" type="line"/>
			<point x="390" y="-55" type="line"/>
			<point x="390" y="118" type="line"/>
			<point x="600" y="118" type="line"/>
			<point x="600" y="278" type="line"/>
			<point x="390" y="278" type="line"/>
			<point x="390" y="351" type="line"/>
			<point x="600" y="351" type="line"/>
			<point x="600" y="511" type="line"/>
			<point x="390" y="511" type="line"/>
			<point x="390" y="684" type="line"/>
			<point x="210" y="684" type="line"/>
			<point x="210" y="511" type="line"/>
			<point x="0" y="511" type="line"/>
			<point x="0" y="351" type="line"/>
			<point x="210" y="351" type="line"/>
			<point x="210" y="278" type="line"/>
			<point x="0" y="278" type="line"/>
		</contour>
	</outline>
</glyph>
<glyph name="bar_hyphen.med" format="2">
	<advance width="600"/>
	<outline>
		<contour>
			<point x="210" y="-55" type="line"/>
			<point x="390" y="-55" type="line"/>
			<point x="390" y="228" type="line"/>
			<point x="600" y="228" type="line"/>
			<point x="600" y="400" type="line"/>
			<point x="390" y="400" type="line"/>
			<point x="390" y="684" type="line"/>
			<point x="210" y="684" type="line"/>
			<point x="210" y="400" type="line"/>
			<point x="0" y="400" type="line"/>
			<point x="0" y="228" type="line"/>
			<point x="210" y="228" type="line"/>
		</contour>
	</outline>
</glyph>
<glyph name="bar_hyphen.rem" format="2">
	<advance width="600"/>
	<outline>
		<contour>
			<point x="-220" y="-55" type="line"/>
			<point x="-220" y="229" type="line"/>
			<point x="450" y="229" type="line"/>
			<point x="450" y="401" type="line"/>
			<point x="-220" y="401" type="line"/>
			<point x="-220" y="684" type="line"/>
			<point x="-400" y="684" type="line"/>
			<point x="-400" y="-55" type="line"/>
		</contour>
	</outline>
</glyph>
<glyph name="bar_hyphen_greater.rem" format="2">
	<advance width="600"/>
	<outline>
		<contour>
			<point x="-1050" y="0" type="line"/>
			<point x="-870" y="0" type="line"/>
			<point x="-870" y="228" type="line"/>
			<point x="201" y="228" type="line"/>
			<point x="4" y="0" type="line"/>
			<point x="221" y="0" type="line"/>
			<point x="485" y="314" type="line"/>
			<point x="218" y="629" type="line"/>
			<point x="1" y="629" type="line"/>
			<point x="201" y="400" type="line"/>
			<point x="-870" y="400" type="line"/>
			<point x="-870" y="629" type="line"/>
			<point x="-1050" y="629" type="line"/>
		</contour>
	</outline>
</glyph>
<glyph name="braceleft_braceleft.cLig" format="2">
	<advance width="600"/>
	<outline>
		<contour>
			<point x="5" y="-163" type="line"/>
			<point x="5" y="-26" type="line"/>
			<point x="-127" y="-26" type="line" smooth="yes"/>
			<point x="-170" y="-26"/>
			<point x="-184" y="-1"/>
			<point x="-184" y="19" type="curve"/>
			<point x="-184" y="89"/>
			<point x="-111" y="119"/>
			<point x="-111" y="206" type="curve" smooth="yes"/>
			<point x="-111" y="260"/>
			<point x="-162" y="304"/>
			<point x="-244" y="316" type="curve"/>
			<point x="-157" y="328"/>
			<point x="-110" y="377"/>
			<point x="-110" y="433" type="curve"/>
			<point x="-110" y="513"/>
			<point x="-184" y="552"/>
			<point x="-184" y="604" type="curve" smooth="yes"/>
			<point x="-184" y="631"/>
			<point x="-169" y="653"/>
			<point x="-119" y="653" type="curve"/>
			<point x="191" y="653" type="line"/>
			<point x="123" y="638"/>
			<point x="98" y="599"/>
			<point x="98" y="563" type="curve"/>
			<point x="98" y="501"/>
			<point x="160" y="478"/>
			<point x="160" y="434" type="curve" smooth="yes"/>
			<point x="160" y="409"/>
			<point x="143" y="391"/>
			<point x="111" y="391" type="curve" smooth="yes"/>
			<point x="10" y="391" type="line"/>
			<point x="10" y="236" type="line"/>
			<point x="112" y="236" type="line" smooth="yes"/>
			<point x="160" y="236"/>
			<point x="173" y="209"/>
			<point x="173" y="184" type="curve"/>
			<point x="173" y="110"/>
			<point x="99" y="75"/>
			<point x="99" y="-15" type="curve"/>
			<point x="99" y="-98"/>
			<point x="156" y="-163"/>
			<point x="276" y="-163" type="curve" smooth="yes"/>
			<point x="487" y="-163" type="line"/>
			<point x="487" y="-26" type="line"/>
			<point x="355" y="-26" type="line" smooth="yes"/>
			<point x="312" y="-26"/>
			<point x="298" y="-8"/>
			<point x="298" y="18" type="curve"/>
			<point x="298" y="72"/>
			<point x="367" y="114"/>
			<point x="367" y="195" type="curve"/>
			<point x="367" y="257"/>
			<point x="318" y="301"/>
			<point x="243" y="316" type="curve"/>
			<point x="315" y="333"/>
			<point x="371" y="373"/>
			<point x="371" y="432" type="curve"/>
			<point x="371" y="511"/>
			<point x="297" y="552"/>
			<point x="297" y="604" type="curve" smooth="yes"/>
			<point x="297" y="631"/>
			<point x="316" y="653"/>
			<point x="366" y="653" type="curve" smooth="yes"/>
			<point x="520" y="653" type="line"/>
			<point x="520" y="790" type="line"/>
			<point x="-206" y="790" type="line" smooth="yes"/>
			<point x="-320" y="790"/>
			<point x="-383" y="713"/>
			<point x="-383" y="639" type="curve" smooth="yes"/>
			<point x="-383" y="543"/>
			<point x="-310" y="504"/>
			<point x="-310" y="444" type="curve" smooth="yes"/>
			<point x="-310" y="418"/>
			<point x="-328" y="390"/>
			<point x="-360" y="390" type="curve" smooth="yes"/>
			<point x="-460" y="390" type="line"/>
			<point x="-460" y="236" type="line"/>
			<point x="-360" y="236" type="line" smooth="yes"/>
			<point x="-328" y="236"/>
			<point x="-310" y="210"/>
			<point x="-310" y="184" type="curve" smooth="yes"/>
			<point x="-310" y="118"/>
			<point x="-383" y="88"/>
			<point x="-383" y="-15" type="curve"/>
			<point x="-383" y="-99"/>
			<point x="-317" y="-163"/>
			<point x="-206" y="-163" type="curve" smooth="yes"/>
		</contour>
	</outline>
</glyph>
<glyph name="braceleft_braceleft_numbersign.cLig" format="2">
	<advance width="600"/>
	<outline>
		<contour>
			<point x="-597" y="-163" type="line"/>
			<point x="-597" y="-26" type="line"/>
			<point x="-729" y="-26" type="line" smooth="yes"/>
			<point x="-772" y="-26"/>
			<point x="-786" y="-1"/>
			<point x="-786" y="19" type="curve"/>
			<point x="-786" y="89"/>
			<point x="-713" y="119"/>
			<point x="-713" y="206" type="curve" smooth="yes"/>
			<point x="-713" y="260"/>
			<point x="-764" y="304"/>
			<point x="-846" y="316" type="curve"/>
			<point x="-759" y="328"/>
			<point x="-712" y="377"/>
			<point x="-712" y="433" type="curve"/>
			<point x="-712" y="513"/>
			<point x="-786" y="552"/>
			<point x="-786" y="604" type="curve" smooth="yes"/>
			<point x="-786" y="631"/>
			<point x="-771" y="653"/>
			<point x="-721" y="653" type="curve"/>
			<point x="-411" y="653" type="line"/>
			<point x="-479" y="638"/>
			<point x="-504" y="599"/>
			<point x="-504" y="563" type="curve"/>
			<point x="-504" y="501"/>
			<point x="-442" y="478"/>
			<point x="-442" y="434" type="curve" smooth="yes"/>
			<point x="-442" y="409"/>
			<point x="-459" y="391"/>
			<point x="-491" y="391" type="curve" smooth="yes"/>
			<point x="-592" y="391" type="line"/>
			<point x="-592" y="236" type="line"/>
			<point x="-490" y="236" type="line" smooth="yes"/>
			<point x="-442" y="236"/>
			<point x="-429" y="209"/>
			<point x="-429" y="184" type="curve"/>
			<point x="-429" y="110"/>
			<point x="-503" y="75"/>
			<point x="-503" y="-15" type="curve"/>
			<point x="-503" y="-98"/>
			<point x="-446" y="-163"/>
			<point x="-326" y="-163" type="curve" smooth="yes"/>
			<point x="-115" y="-163" type="line"/>
			<point x="-115" y="-26" type="line"/>
			<point x="-247" y="-26" type="line" smooth="yes"/>
			<point x="-290" y="-26"/>
			<point x="-304" y="-8"/>
			<point x="-304" y="18" type="curve"/>
			<point x="-304" y="72"/>
			<point x="-235" y="114"/>
			<point x="-235" y="195" type="curve"/>
			<point x="-235" y="257"/>
			<point x="-284" y="301"/>
			<point x="-359" y="316" type="curve"/>
			<point x="-287" y="333"/>
			<point x="-231" y="373"/>
			<point x="-231" y="432" type="curve"/>
			<point x="-231" y="511"/>
			<point x="-305" y="552"/>
			<point x="-305" y="604" type="curve" smooth="yes"/>
			<point x="-305" y="631"/>
			<point x="-286" y="653"/>
			<point x="-236" y="653" type="curve" smooth="yes"/>
			<point x="-82" y="653" type="line"/>
			<point x="-82" y="790" type="line"/>
			<point x="-808" y="790" type="line" smooth="yes"/>
			<point x="-922" y="790"/>
			<point x="-985" y="713"/>
			<point x="-985" y="639" type="curve" smooth="yes"/>
			<point x="-985" y="543"/>
			<point x="-912" y="504"/>
			<point x="-912" y="444" type="curve" smooth="yes"/>
			<point x="-912" y="418"/>
			<point x="-930" y="390"/>
			<point x="-962" y="390" type="curve" smooth="yes"/>
			<point x="-1062" y="390" type="line"/>
			<point x="-1062" y="236" type="line"/>
			<point x="-962" y="236" type="line" smooth="yes"/>
			<point x="-930" y="236"/>
			<point x="-912" y="210"/>
			<point x="-912" y="184" type="curve" smooth="yes"/>
			<point x="-912" y="118"/>
			<point x="-985" y="88"/>
			<point x="-985" y="-15" type="curve"/>
			<point x="-985" y="-99"/>
			<point x="-919" y="-163"/>
			<point x="-808" y="-163" type="curve" smooth="yes"/>
		</contour>
		<contour>
			<point x="-112" y="289" type="line"/>
			<point x="-112" y="148" type="line"/>
			<point x="-17" y="148" type="line"/>
			<point x="-31" y="0" type="line"/>
			<point x="112" y="0" type="line"/>
			<point x="126" y="148" type="line"/>
			<point x="216" y="148" type="line"/>
			<point x="202" y="0" type="line"/>
			<point x="344" y="0" type="line"/>
			<point x="358" y="148" type="line"/>
			<point x="454" y="148" type="line"/>
			<point x="454" y="289" type="line"/>
			<point x="371" y="289" type="line"/>
			<point x="382" y="399" type="line"/>
			<point x="477" y="399" type="line"/>
			<point x="477" y="540" type="line"/>
			<point x="395" y="540" type="line"/>
			<point x="409" y="684" type="line"/>
			<point x="267" y="684" type="line"/>
			<point x="253" y="540" type="line"/>
			<point x="163" y="540" type="line"/>
			<point x="176" y="684" type="line"/>
			<point x="34" y="684" type="line"/>
			<point x="20" y="540" type="line"/>
			<point x="-112" y="540" type="line"/>
			<point x="-112" y="399" type="line"/>
			<point x="7" y="399" type="line"/>
			<point x="-4" y="289" type="line"/>
		</contour>
		<contour>
			<point x="139" y="289" type="line"/>
			<point x="149" y="399" type="line"/>
			<point x="240" y="399" type="line"/>
			<point x="229" y="289" type="line"/>
		</contour>
	</outline>
</glyph>
<glyph name="braceleft_numbersign.cLig" format="2">
	<advance width="600"/>
	<outline>
		<contour>
			<point x="-527" y="234" type="line"/>
			<point x="-427" y="234" type="line" smooth="yes"/>
			<point x="-395" y="234"/>
			<point x="-377" y="205"/>
			<point x="-377" y="179" type="curve" smooth="yes"/>
			<point x="-377" y="122"/>
			<point x="-469" y="72"/>
			<point x="-469" y="-22" type="curve" smooth="yes"/>
			<point x="-469" y="-98"/>
			<point x="-403" y="-163"/>
			<point x="-292" y="-163" type="curve" smooth="yes"/>
			<point x="-81" y="-163" type="line"/>
			<point x="-81" y="-26" type="line"/>
			<point x="-213" y="-26" type="line" smooth="yes"/>
			<point x="-256" y="-26"/>
			<point x="-270" y="-8"/>
			<point x="-270" y="14" type="curve" smooth="yes"/>
			<point x="-270" y="62"/>
			<point x="-178" y="109"/>
			<point x="-178" y="187" type="curve" smooth="yes"/>
			<point x="-178" y="244"/>
			<point x="-230" y="300"/>
			<point x="-311" y="313" type="curve"/>
			<point x="-230" y="325"/>
			<point x="-178" y="381"/>
			<point x="-178" y="438" type="curve" smooth="yes"/>
			<point x="-178" y="517"/>
			<point x="-270" y="564"/>
			<point x="-270" y="616" type="curve" smooth="yes"/>
			<point x="-270" y="643"/>
			<point x="-255" y="655"/>
			<point x="-221" y="655" type="curve" smooth="yes"/>
			<point x="-81" y="655" type="line"/>
			<point x="-81" y="792" type="line"/>
			<point x="-292" y="792" type="line" smooth="yes"/>
			<point x="-406" y="792"/>
			<point x="-469" y="724"/>
			<point x="-469" y="649" type="curve" smooth="yes"/>
			<point x="-469" y="554"/>
			<point x="-377" y="505"/>
			<point x="-377" y="446" type="curve" smooth="yes"/>
			<point x="-377" y="420"/>
			<point x="-395" y="392"/>
			<point x="-427" y="392" type="curve" smooth="yes"/>
			<point x="-527" y="392" type="line"/>
		</contour>
		<contour>
			<point x="-80" y="289" type="line"/>
			<point x="-80" y="148" type="line"/>
			<point x="15" y="148" type="line"/>
			<point x="1" y="0" type="line"/>
			<point x="144" y="0" type="line"/>
			<point x="158" y="148" type="line"/>
			<point x="248" y="148" type="line"/>
			<point x="234" y="0" type="line"/>
			<point x="376" y="0" type="line"/>
			<point x="390" y="148" type="line"/>
			<point x="486" y="148" type="line"/>
			<point x="486" y="289" type="line"/>
			<point x="403" y="289" type="line"/>
			<point x="414" y="399" type="line"/>
			<point x="509" y="399" type="line"/>
			<point x="509" y="540" type="line"/>
			<point x="427" y="540" type="line"/>
			<point x="441" y="684" type="line"/>
			<point x="299" y="684" type="line"/>
			<point x="285" y="540" type="line"/>
			<point x="195" y="540" type="line"/>
			<point x="208" y="684" type="line"/>
			<point x="66" y="684" type="line"/>
			<point x="52" y="540" type="line"/>
			<point x="-80" y="540" type="line"/>
			<point x="-80" y="399" type="line"/>
			<point x="39" y="399" type="line"/>
			<point x="28" y="289" type="line"/>
		</contour>
		<contour>
			<point x="171" y="289" type="line"/>
			<point x="181" y="399" type="line"/>
			<point x="272" y="399" type="line"/>
			<point x="261" y="289" type="line"/>
		</contour>
	</outline>
</glyph>
<glyph name="braceright_braceright.cLig" format="2">
	<advance width="600"/>
	<outline>
		<contour>
			<point x="-5" y="790" type="line"/>
			<point x="-5" y="653" type="line"/>
			<point x="127" y="653" type="line" smooth="yes"/>
			<point x="170" y="653"/>
			<point x="184" y="628"/>
			<point x="184" y="608" type="curve"/>
			<point x="184" y="538"/>
			<point x="111" y="508"/>
			<point x="111" y="421" type="curve" smooth="yes"/>
			<point x="111" y="367"/>
			<point x="162" y="323"/>
			<point x="244" y="311" type="curve"/>
			<point x="157" y="299"/>
			<point x="110" y="250"/>
			<point x="110" y="194" type="curve"/>
			<point x="110" y="114"/>
			<point x="184" y="75"/>
			<point x="184" y="23" type="curve" smooth="yes"/>
			<point x="184" y="-4"/>
			<point x="169" y="-26"/>
			<point x="119" y="-26" type="curve"/>
			<point x="-191" y="-26" type="line"/>
			<point x="-123" y="-11"/>
			<point x="-98" y="28"/>
			<point x="-98" y="64" type="curve"/>
			<point x="-98" y="126"/>
			<point x="-160" y="149"/>
			<point x="-160" y="193" type="curve" smooth="yes"/>
			<point x="-160" y="218"/>
			<point x="-143" y="236"/>
			<point x="-111" y="236" type="curve" smooth="yes"/>
			<point x="-10" y="236" type="line"/>
			<point x="-10" y="391" type="line"/>
			<point x="-112" y="391" type="line" smooth="yes"/>
			<point x="-160" y="391"/>
			<point x="-173" y="418"/>
			<point x="-173" y="443" type="curve"/>
			<point x="-173" y="517"/>
			<point x="-99" y="552"/>
			<point x="-99" y="642" type="curve"/>
			<point x="-99" y="725"/>
			<point x="-156" y="790"/>
			<point x="-276" y="790" type="curve" smooth="yes"/>
			<point x="-487" y="790" type="line"/>
			<point x="-487" y="653" type="line"/>
			<point x="-355" y="653" type="line" smooth="yes"/>
			<point x="-312" y="653"/>
			<point x="-298" y="635"/>
			<point x="-298" y="609" type="curve"/>
			<point x="-298" y="555"/>
			<point x="-367" y="513"/>
			<point x="-367" y="432" type="curve"/>
			<point x="-367" y="370"/>
			<point x="-318" y="326"/>
			<point x="-243" y="311" type="curve"/>
			<point x="-315" y="294"/>
			<point x="-371" y="254"/>
			<point x="-371" y="195" type="curve"/>
			<point x="-371" y="116"/>
			<point x="-297" y="75"/>
			<point x="-297" y="23" type="curve" smooth="yes"/>
			<point x="-297" y="-4"/>
			<point x="-316" y="-26"/>
			<point x="-366" y="-26" type="curve" smooth="yes"/>
			<point x="-520" y="-26" type="line"/>
			<point x="-520" y="-163" type="line"/>
			<point x="206" y="-163" type="line" smooth="yes"/>
			<point x="320" y="-163"/>
			<point x="383" y="-86"/>
			<point x="383" y="-12" type="curve" smooth="yes"/>
			<point x="383" y="84"/>
			<point x="310" y="123"/>
			<point x="310" y="183" type="curve" smooth="yes"/>
			<point x="310" y="209"/>
			<point x="328" y="237"/>
			<point x="360" y="237" type="curve" smooth="yes"/>
			<point x="460" y="237" type="line"/>
			<point x="460" y="391" type="line"/>
			<point x="360" y="391" type="line" smooth="yes"/>
			<point x="328" y="391"/>
			<point x="310" y="417"/>
			<point x="310" y="443" type="curve" smooth="yes"/>
			<point x="310" y="509"/>
			<point x="383" y="539"/>
			<point x="383" y="642" type="curve"/>
			<point x="383" y="726"/>
			<point x="317" y="790"/>
			<point x="206" y="790" type="curve" smooth="yes"/>
		</contour>
	</outline>
</glyph>
<glyph name="braceright_numbersign.cLig" format="2">
	<advance width="600"/>
	<outline>
		<contour>
			<point x="-529" y="-163" type="line"/>
			<point x="-328" y="-163" type="line" smooth="yes"/>
			<point x="-215" y="-163"/>
			<point x="-152" y="-94"/>
			<point x="-152" y="-19" type="curve" smooth="yes"/>
			<point x="-151" y="75"/>
			<point x="-244" y="125"/>
			<point x="-244" y="183" type="curve" smooth="yes"/>
			<point x="-244" y="210"/>
			<point x="-225" y="237"/>
			<point x="-194" y="237" type="curve" smooth="yes"/>
			<point x="-153" y="237" type="line"/>
			<point x="-153" y="396" type="line"/>
			<point x="-193" y="395" type="line" smooth="yes"/>
			<point x="-225" y="396"/>
			<point x="-244" y="425"/>
			<point x="-244" y="450" type="curve" smooth="yes"/>
			<point x="-245" y="507"/>
			<point x="-152" y="558"/>
			<point x="-152" y="651" type="curve" smooth="yes"/>
			<point x="-151" y="727"/>
			<point x="-217" y="792"/>
			<point x="-329" y="792" type="curve" smooth="yes"/>
			<point x="-530" y="792" type="line"/>
			<point x="-530" y="655" type="line"/>
			<point x="-407" y="655" type="line" smooth="yes"/>
			<point x="-366" y="655"/>
			<point x="-350" y="637"/>
			<point x="-350" y="616" type="curve" smooth="yes"/>
			<point x="-350" y="567"/>
			<point x="-443" y="521"/>
			<point x="-443" y="442" type="curve" smooth="yes"/>
			<point x="-443" y="385"/>
			<point x="-391" y="330"/>
			<point x="-309" y="317" type="curve"/>
			<point x="-391" y="305"/>
			<point x="-442" y="248"/>
			<point x="-442" y="191" type="curve" smooth="yes"/>
			<point x="-442" y="112"/>
			<point x="-350" y="65"/>
			<point x="-350" y="13" type="curve" smooth="yes"/>
			<point x="-350" y="-14"/>
			<point x="-365" y="-26"/>
			<point x="-399" y="-26" type="curve" smooth="yes"/>
			<point x="-529" y="-26" type="line"/>
		</contour>
		<contour>
			<point x="-69" y="289" type="line"/>
			<point x="-69" y="148" type="line"/>
			<point x="26" y="148" type="line"/>
			<point x="12" y="0" type="line"/>
			<point x="155" y="0" type="line"/>
			<point x="169" y="148" type="line"/>
			<point x="259" y="148" type="line"/>
			<point x="245" y="0" type="line"/>
			<point x="387" y="0" type="line"/>
			<point x="401" y="148" type="line"/>
			<point x="497" y="148" type="line"/>
			<point x="497" y="289" type="line"/>
			<point x="414" y="289" type="line"/>
			<point x="425" y="399" type="line"/>
			<point x="520" y="399" type="line"/>
			<point x="520" y="540" type="line"/>
			<point x="438" y="540" type="line"/>
			<point x="452" y="684" type="line"/>
			<point x="310" y="684" type="line"/>
			<point x="296" y="540" type="line"/>
			<point x="206" y="540" type="line"/>
			<point x="219" y="684" type="line"/>
			<point x="77" y="684" type="line"/>
			<point x="63" y="540" type="line"/>
			<point x="-69" y="540" type="line"/>
			<point x="-69" y="399" type="line"/>
			<point x="50" y="399" type="line"/>
			<point x="39" y="289" type="line"/>
		</contour>
		<contour>
			<point x="182" y="289" type="line"/>
			<point x="192" y="399" type="line"/>
			<point x="283" y="399" type="line"/>
			<point x="272" y="289" type="line"/>
		</contour>
	</outline>
</glyph>
<glyph name="bracketleft_bracketleft.cLig" format="2">
	<advance width="600"/>
	<outline>
		<contour>
			<point x="-409" y="-163" type="line"/>
			<point x="11" y="-163" type="line"/>
			<point x="11" y="-26" type="line"/>
			<point x="-228" y="-26" type="line"/>
			<point x="-228" y="655" type="line"/>
			<point x="11" y="655" type="line"/>
			<point x="11" y="792" type="line"/>
			<point x="-409" y="792" type="line"/>
		</contour>
		<contour>
			<point x="85" y="-163" type="line"/>
			<point x="457" y="-163" type="line"/>
			<point x="457" y="-26" type="line"/>
			<point x="266" y="-26" type="line"/>
			<point x="266" y="655" type="line"/>
			<point x="457" y="655" type="line"/>
			<point x="457" y="792" type="line"/>
			<point x="85" y="792" type="line"/>
		</contour>
	</outline>
	<guideline x="-421" y="649" angle="90" identifier="ziXeOWG9Pn"/>
</glyph>
<glyph name="bracketleft_bracketleft_numbersign.cLig" format="2">
	<advance width="600"/>
	<outline>
		<contour>
			<point x="-120" y="289" type="line"/>
			<point x="-120" y="148" type="line"/>
			<point x="-25" y="148" type="line"/>
			<point x="-39" y="0" type="line"/>
			<point x="104" y="0" type="line"/>
			<point x="118" y="148" type="line"/>
			<point x="208" y="148" type="line"/>
			<point x="194" y="0" type="line"/>
			<point x="336" y="0" type="line"/>
			<point x="350" y="148" type="line"/>
			<point x="446" y="148" type="line"/>
			<point x="446" y="289" type="line"/>
			<point x="363" y="289" type="line"/>
			<point x="374" y="399" type="line"/>
			<point x="469" y="399" type="line"/>
			<point x="469" y="540" type="line"/>
			<point x="387" y="540" type="line"/>
			<point x="401" y="684" type="line"/>
			<point x="259" y="684" type="line"/>
			<point x="245" y="540" type="line"/>
			<point x="155" y="540" type="line"/>
			<point x="168" y="684" type="line"/>
			<point x="26" y="684" type="line"/>
			<point x="12" y="540" type="line"/>
			<point x="-120" y="540" type="line"/>
			<point x="-120" y="399" type="line"/>
			<point x="-1" y="399" type="line"/>
			<point x="-12" y="289" type="line"/>
		</contour>
		<contour>
			<point x="131" y="289" type="line"/>
			<point x="141" y="399" type="line"/>
			<point x="232" y="399" type="line"/>
			<point x="221" y="289" type="line"/>
		</contour>
		<contour>
			<point x="-1032" y="-163" type="line"/>
			<point x="-612" y="-163" type="line"/>
			<point x="-612" y="-26" type="line"/>
			<point x="-851" y="-26" type="line"/>
			<point x="-851" y="655" type="line"/>
			<point x="-612" y="655" type="line"/>
			<point x="-612" y="792" type="line"/>
			<point x="-1032" y="792" type="line"/>
		</contour>
		<contour>
			<point x="-538" y="-163" type="line"/>
			<point x="-166" y="-163" type="line"/>
			<point x="-166" y="-26" type="line"/>
			<point x="-357" y="-26" type="line"/>
			<point x="-357" y="655" type="line"/>
			<point x="-166" y="655" type="line"/>
			<point x="-166" y="792" type="line"/>
			<point x="-538" y="792" type="line"/>
		</contour>
	</outline>
</glyph>
<glyph name="bracketleft_numbersign.cLig" format="2">
	<advance width="600"/>
	<outline>
		<contour>
			<point x="-89" y="289" type="line"/>
			<point x="-89" y="148" type="line"/>
			<point x="6" y="148" type="line"/>
			<point x="-8" y="0" type="line"/>
			<point x="135" y="0" type="line"/>
			<point x="149" y="148" type="line"/>
			<point x="239" y="148" type="line"/>
			<point x="225" y="0" type="line"/>
			<point x="367" y="0" type="line"/>
			<point x="381" y="148" type="line"/>
			<point x="477" y="148" type="line"/>
			<point x="477" y="289" type="line"/>
			<point x="394" y="289" type="line"/>
			<point x="405" y="399" type="line"/>
			<point x="500" y="399" type="line"/>
			<point x="500" y="540" type="line"/>
			<point x="418" y="540" type="line"/>
			<point x="432" y="684" type="line"/>
			<point x="290" y="684" type="line"/>
			<point x="276" y="540" type="line"/>
			<point x="186" y="540" type="line"/>
			<point x="199" y="684" type="line"/>
			<point x="57" y="684" type="line"/>
			<point x="43" y="540" type="line"/>
			<point x="-89" y="540" type="line"/>
			<point x="-89" y="399" type="line"/>
			<point x="30" y="399" type="line"/>
			<point x="19" y="289" type="line"/>
		</contour>
		<contour>
			<point x="162" y="289" type="line"/>
			<point x="172" y="399" type="line"/>
			<point x="263" y="399" type="line"/>
			<point x="252" y="289" type="line"/>
		</contour>
		<contour>
			<point x="-82" y="-26" type="line"/>
			<point x="-275" y="-26" type="line"/>
			<point x="-275" y="655" type="line"/>
			<point x="-82" y="655" type="line"/>
			<point x="-82" y="792" type="line"/>
			<point x="-456" y="792" type="line"/>
			<point x="-456" y="-163" type="line"/>
			<point x="-82" y="-163" type="line"/>
		</contour>
	</outline>
</glyph>
<glyph name="colon_equal.med" format="2">
	<advance width="600"/>
	<outline>
		<contour>
			<point x="302" y="308" type="curve" smooth="yes"/>
			<point x="385" y="308"/>
			<point x="428" y="339"/>
			<point x="428" y="422" type="curve" smooth="yes"/>
			<point x="428" y="504"/>
			<point x="385" y="535"/>
			<point x="302" y="535" type="curve" smooth="yes"/>
			<point x="219" y="535"/>
			<point x="176" y="504"/>
			<point x="176" y="422" type="curve" smooth="yes"/>
			<point x="176" y="339"/>
			<point x="219" y="308"/>
		</contour>
		<contour>
			<point x="510" y="351" type="line"/>
			<point x="600" y="351" type="line"/>
			<point x="600" y="511" type="line"/>
			<point x="510" y="511" type="line"/>
		</contour>
		<contour>
			<point x="0" y="351" type="line"/>
			<point x="90" y="351" type="line"/>
			<point x="90" y="511" type="line"/>
			<point x="0" y="511" type="line"/>
		</contour>
		<contour>
			<point x="510" y="119" type="line"/>
			<point x="600" y="119" type="line"/>
			<point x="600" y="279" type="line"/>
			<point x="510" y="279" type="line"/>
		</contour>
		<contour>
			<point x="0" y="119" type="line"/>
			<point x="90" y="119" type="line"/>
			<point x="90" y="279" type="line"/>
			<point x="0" y="279" type="line"/>
		</contour>
		<contour>
			<point x="302" y="9" type="curve" smooth="yes"/>
			<point x="385" y="9"/>
			<point x="428" y="40"/>
			<point x="428" y="123" type="curve" smooth="yes"/>
			<point x="428" y="205"/>
			<point x="385" y="236"/>
			<point x="302" y="236" type="curve" smooth="yes"/>
			<point x="219" y="236"/>
			<point x="176" y="205"/>
			<point x="176" y="123" type="curve" smooth="yes"/>
			<point x="176" y="40"/>
			<point x="219" y="9"/>
		</contour>
	</outline>
</glyph>
<glyph name="cordinal" format="2">
	<advance width="600"/>
	<outline>
		<contour>
			<point x="367" y="225" type="curve" smooth="yes"/>
			<point x="419" y="225"/>
			<point x="463" y="235"/>
			<point x="487" y="244" type="curve"/>
			<point x="487" y="363" type="line"/>
			<point x="461" y="354"/>
			<point x="431" y="348"/>
			<point x="393" y="348" type="curve" smooth="yes"/>
			<point x="316" y="348"/>
			<point x="272" y="383"/>
			<point x="272" y="463" type="curve" smooth="yes"/>
			<point x="272" y="545"/>
			<point x="316" y="573"/>
			<point x="389" y="573" type="curve" smooth="yes"/>
			<point x="422" y="573"/>
			<point x="458" y="566"/>
			<point x="487" y="555" type="curve"/>
			<point x="487" y="673" type="line"/>
			<point x="459" y="685"/>
			<point x="420" y="695"/>
			<point x="364" y="695" type="curve" smooth="yes"/>
			<point x="206" y="695"/>
			<point x="108" y="612"/>
			<point x="108" y="461" type="curve" smooth="yes"/>
			<point x="108" y="311"/>
			<point x="204" y="225"/>
		</contour>
	</outline>
</glyph>
<glyph name="dotaccent.cap" format="2">
	<advance width="600"/>
	<outline>
		<contour>
			<point x="300" y="732" type="curve" smooth="yes"/>
			<point x="380" y="732"/>
			<point x="406" y="762"/>
			<point x="406" y="817" type="curve" smooth="yes"/>
			<point x="406" y="872"/>
			<point x="378" y="901"/>
			<point x="300" y="901" type="curve" smooth="yes"/>
			<point x="222" y="901"/>
			<point x="194" y="873"/>
			<point x="194" y="817" type="curve" smooth="yes"/>
			<point x="194" y="761"/>
			<point x="221" y="732"/>
		</contour>
	</outline>
	<anchor name="_top" x="300" y="684"/>
	<guideline x="129" y="703" angle="0"/>
	<guideline x="137" y="620" angle="0"/>
</glyph>
<glyph name="eight.den" format="2">
	<advance width="600"/>
	<outline>
		<contour>
			<point x="299" y="-8" type="curve" smooth="yes"/>
			<point x="409" y="-8"/>
			<point x="475" y="31"/>
			<point x="475" y="109" type="curve" smooth="yes"/>
			<point x="475" y="168"/>
			<point x="437" y="196"/>
			<point x="388" y="209" type="curve"/>
			<point x="435" y="220"/>
			<point x="467" y="257"/>
			<point x="467" y="305" type="curve" smooth="yes"/>
			<point x="467" y="382"/>
			<point x="400" y="418"/>
			<point x="300" y="418" type="curve" smooth="yes"/>
			<point x="200" y="418"/>
			<point x="132" y="382"/>
			<point x="132" y="305" type="curve" smooth="yes"/>
			<point x="132" y="256"/>
			<point x="166" y="219"/>
			<point x="217" y="209" type="curve"/>
			<point x="166" y="198"/>
			<point x="125" y="169"/>
			<point x="125" y="109" type="curve" smooth="yes"/>
			<point x="125" y="31"/>
			<point x="189" y="-8"/>
		</contour>
		<contour>
			<point x="299" y="242" type="curve" smooth="yes"/>
			<point x="271" y="242"/>
			<point x="253" y="256"/>
			<point x="253" y="287" type="curve" smooth="yes"/>
			<point x="253" y="317"/>
			<point x="272" y="332"/>
			<point x="300" y="332" type="curve" smooth="yes"/>
			<point x="328" y="332"/>
			<point x="346" y="318"/>
			<point x="346" y="287" type="curve" smooth="yes"/>
			<point x="346" y="257"/>
			<point x="327" y="242"/>
		</contour>
		<contour>
			<point x="300" y="82" type="curve" smooth="yes"/>
			<point x="271" y="82"/>
			<point x="253" y="96"/>
			<point x="253" y="128" type="curve" smooth="yes"/>
			<point x="253" y="159"/>
			<point x="272" y="174"/>
			<point x="301" y="174" type="curve" smooth="yes"/>
			<point x="330" y="174"/>
			<point x="348" y="160"/>
			<point x="348" y="128" type="curve" smooth="yes"/>
			<point x="348" y="97"/>
			<point x="329" y="82"/>
		</contour>
	</outline>
	<guideline x="474" y="176" angle="0"/>
</glyph>
<glyph name="eight.numr" format="2">
	<advance width="600"/>
	<outline>
		<contour>
			<point x="299" y="366" type="curve" smooth="yes"/>
			<point x="392" y="366"/>
			<point x="449" y="398"/>
			<point x="449" y="464" type="curve" smooth="yes"/>
			<point x="449" y="511"/>
			<point x="418" y="537"/>
			<point x="376" y="547" type="curve"/>
			<point x="416" y="557"/>
			<point x="443" y="589"/>
			<point x="443" y="629" type="curve" smooth="yes"/>
			<point x="443" y="694"/>
			<point x="389" y="724"/>
			<point x="302" y="724" type="curve" smooth="yes"/>
			<point x="215" y="724"/>
			<point x="157" y="694"/>
			<point x="157" y="629" type="curve" smooth="yes"/>
			<point x="157" y="588"/>
			<point x="186" y="556"/>
			<point x="229" y="548" type="curve"/>
			<point x="183" y="538"/>
			<point x="151" y="512"/>
			<point x="151" y="464" type="curve" smooth="yes"/>
			<point x="151" y="398"/>
			<point x="206" y="366"/>
		</contour>
		<contour>
			<point x="300" y="576" type="curve" smooth="yes"/>
			<point x="278" y="576"/>
			<point x="264" y="587"/>
			<point x="264" y="613" type="curve" smooth="yes"/>
			<point x="264" y="637"/>
			<point x="278" y="649"/>
			<point x="300" y="649" type="curve" smooth="yes"/>
			<point x="322" y="649"/>
			<point x="336" y="638"/>
			<point x="336" y="613" type="curve" smooth="yes"/>
			<point x="336" y="588"/>
			<point x="322" y="576"/>
		</contour>
		<contour>
			<point x="300" y="444" type="curve" smooth="yes"/>
			<point x="277" y="444"/>
			<point x="263" y="455"/>
			<point x="263" y="482" type="curve" smooth="yes"/>
			<point x="263" y="507"/>
			<point x="277" y="519"/>
			<point x="300" y="519" type="curve" smooth="yes"/>
			<point x="323" y="519"/>
			<point x="337" y="508"/>
			<point x="337" y="482" type="curve" smooth="yes"/>
			<point x="337" y="456"/>
			<point x="323" y="444"/>
		</contour>
	</outline>
	<guideline x="449" y="480" angle="0" identifier="CPGlvt2YtI"/>
	<guideline x="443" y="776" angle="0" identifier="oHpFBSrSch"/>
	<guideline x="299" y="731" angle="90" identifier="Z5dpt7pnsp"/>
</glyph>
<glyph name="equal.fina" format="2">
	<advance width="600"/>
	<outline>
		<contour>
			<point x="0" y="351" type="line"/>
			<point x="450" y="351" type="line"/>
			<point x="450" y="511" type="line"/>
			<point x="0" y="511" type="line"/>
		</contour>
		<contour>
			<point x="0" y="118" type="line"/>
			<point x="450" y="118" type="line"/>
			<point x="450" y="278" type="line"/>
			<point x="0" y="278" type="line"/>
		</contour>
	</outline>
</glyph>
<glyph name="equal_colon_equal.rem" format="2">
	<advance width="600"/>
	<outline>
		<contour>
			<point x="-300" y="9" type="curve" smooth="yes"/>
			<point x="-217" y="9"/>
			<point x="-174" y="40"/>
			<point x="-174" y="123" type="curve" smooth="yes"/>
			<point x="-174" y="205"/>
			<point x="-217" y="236"/>
			<point x="-300" y="236" type="curve" smooth="yes"/>
			<point x="-383" y="236"/>
			<point x="-426" y="205"/>
			<point x="-426" y="123" type="curve" smooth="yes"/>
			<point x="-426" y="40"/>
			<point x="-383" y="9"/>
		</contour>
		<contour>
			<point x="-300" y="308" type="curve" smooth="yes"/>
			<point x="-217" y="308"/>
			<point x="-174" y="339"/>
			<point x="-174" y="422" type="curve" smooth="yes"/>
			<point x="-174" y="504"/>
			<point x="-217" y="535"/>
			<point x="-300" y="535" type="curve" smooth="yes"/>
			<point x="-383" y="535"/>
			<point x="-426" y="504"/>
			<point x="-426" y="422" type="curve" smooth="yes"/>
			<point x="-426" y="339"/>
			<point x="-383" y="308"/>
		</contour>
		<contour>
			<point x="-1050" y="314" type="line"/>
			<point x="-566" y="314" type="line"/>
			<point x="-566" y="474" type="line"/>
			<point x="-1050" y="474" type="line"/>
		</contour>
		<contour>
			<point x="-1050" y="82" type="line"/>
			<point x="-566" y="82" type="line"/>
			<point x="-566" y="242" type="line"/>
			<point x="-1050" y="242" type="line"/>
		</contour>
		<contour>
			<point x="-34" y="314" type="line"/>
			<point x="450" y="314" type="line"/>
			<point x="450" y="474" type="line"/>
			<point x="-34" y="474" type="line"/>
		</contour>
		<contour>
			<point x="-34" y="82" type="line"/>
			<point x="450" y="82" type="line"/>
			<point x="450" y="242" type="line"/>
			<point x="-34" y="242" type="line"/>
		</contour>
	</outline>
</glyph>
<glyph name="equal_equal_equal.cLig" format="2">
	<advance width="600"/>
	<outline>
		<contour>
			<point x="-1050" y="452" type="line"/>
			<point x="450" y="452" type="line"/>
			<point x="450" y="598" type="line"/>
			<point x="-1050" y="598" type="line"/>
		</contour>
		<contour>
			<point x="-1050" y="240" type="line"/>
			<point x="450" y="240" type="line"/>
			<point x="450" y="386" type="line"/>
			<point x="-1050" y="386" type="line"/>
		</contour>
		<contour>
			<point x="-1050" y="28" type="line"/>
			<point x="450" y="28" type="line"/>
			<point x="450" y="174" type="line"/>
			<point x="-1050" y="174" type="line"/>
		</contour>
	</outline>
</glyph>
<glyph name="equal_equal_greater.rem" format="2">
	<advance width="600"/>
	<outline>
		<contour>
			<point x="-1050" y="118" type="line"/>
			<point x="110" y="118" type="line"/>
			<point x="16" y="0" type="line"/>
			<point x="231" y="0" type="line"/>
			<point x="485" y="314" type="line"/>
			<point x="228" y="629" type="line"/>
			<point x="13" y="629" type="line"/>
			<point x="110" y="511" type="line"/>
			<point x="-1050" y="511" type="line"/>
			<point x="-1050" y="351" type="line"/>
			<point x="242" y="351" type="line"/>
			<point x="270" y="318" type="line"/>
			<point x="238" y="278" type="line"/>
			<point x="-1050" y="278" type="line"/>
		</contour>
	</outline>
</glyph>
<glyph name="equal_greater_greater.rem" format="2">
	<advance width="600"/>
	<outline>
		<contour>
			<point x="15" y="0" type="line"/>
			<point x="230" y="0" type="line"/>
			<point x="484" y="314" type="line"/>
			<point x="227" y="629" type="line"/>
			<point x="12" y="629" type="line"/>
			<point x="269" y="318" type="line"/>
		</contour>
		<contour>
			<point x="-1050" y="118" type="line"/>
			<point x="-288" y="118" type="line"/>
			<point x="-382" y="0" type="line"/>
			<point x="-167" y="0" type="line"/>
			<point x="87" y="314" type="line"/>
			<point x="-170" y="629" type="line"/>
			<point x="-385" y="629" type="line"/>
			<point x="-288" y="511" type="line"/>
			<point x="-1050" y="511" type="line"/>
			<point x="-1050" y="351" type="line"/>
			<point x="-156" y="351" type="line"/>
			<point x="-128" y="318" type="line"/>
			<point x="-160" y="278" type="line"/>
			<point x="-1050" y="278" type="line"/>
		</contour>
	</outline>
</glyph>
<glyph name="equal_slash_equal.rem" format="2">
	<advance width="600"/>
	<outline>
		<contour>
			<point x="-1050" y="82" type="line"/>
			<point x="-509" y="82" type="line"/>
			<point x="-612" y="-82" type="line"/>
			<point x="-444" y="-82" type="line"/>
			<point x="-341" y="82" type="line"/>
			<point x="450" y="82" type="line"/>
			<point x="450" y="242" type="line"/>
			<point x="-240" y="242" type="line"/>
			<point x="-195" y="314" type="line"/>
			<point x="450" y="314" type="line"/>
			<point x="450" y="474" type="line"/>
			<point x="-94" y="474" type="line"/>
			<point x="12" y="642" type="line"/>
			<point x="-156" y="642" type="line"/>
			<point x="-262" y="474" type="line"/>
			<point x="-1050" y="474" type="line"/>
			<point x="-1050" y="314" type="line"/>
			<point x="-363" y="314" type="line"/>
			<point x="-408" y="242" type="line"/>
			<point x="-1050" y="242" type="line"/>
		</contour>
	</outline>
</glyph>
<glyph name="exclam_equal_equal.cLig" format="2">
	<advance width="600"/>
	<outline>
		<contour>
			<point x="-1050" y="28" type="line"/>
			<point x="-554" y="28" type="line"/>
			<point x="-622" y="-87" type="line"/>
			<point x="-440" y="-87" type="line"/>
			<point x="-372" y="28" type="line"/>
			<point x="450" y="28" type="line"/>
			<point x="450" y="174" type="line"/>
			<point x="-286" y="174" type="line"/>
			<point x="-247" y="240" type="line"/>
			<point x="450" y="240" type="line"/>
			<point x="450" y="386" type="line"/>
			<point x="-161" y="386" type="line"/>
			<point x="-122" y="452" type="line"/>
			<point x="450" y="452" type="line"/>
			<point x="450" y="598" type="line"/>
			<point x="-36" y="598" type="line"/>
			<point x="22" y="697" type="line"/>
			<point x="-160" y="697" type="line"/>
			<point x="-218" y="598" type="line"/>
			<point x="-1050" y="598" type="line"/>
			<point x="-1050" y="452" type="line"/>
			<point x="-304" y="452" type="line"/>
			<point x="-343" y="386" type="line"/>
			<point x="-1050" y="386" type="line"/>
			<point x="-1050" y="240" type="line"/>
			<point x="-429" y="240" type="line"/>
			<point x="-468" y="174" type="line"/>
			<point x="-1050" y="174" type="line"/>
		</contour>
	</outline>
</glyph>
<glyph name="exclam_exclam_period.cLig" format="2">
	<advance width="600"/>
	<outline>
		<contour>
			<point x="-844" y="255" type="line"/>
			<point x="-704" y="255" type="line"/>
			<point x="-667" y="574" type="line"/>
			<point x="-667" y="684" type="line"/>
			<point x="-880" y="684" type="line"/>
			<point x="-880" y="574" type="line"/>
		</contour>
		<contour>
			<point x="-772" y="-12" type="curve" smooth="yes"/>
			<point x="-696" y="-12"/>
			<point x="-657" y="16"/>
			<point x="-657" y="92" type="curve" smooth="yes"/>
			<point x="-657" y="165"/>
			<point x="-695" y="195"/>
			<point x="-772" y="195" type="curve" smooth="yes"/>
			<point x="-851" y="195"/>
			<point x="-889" y="165"/>
			<point x="-889" y="92" type="curve" smooth="yes"/>
			<point x="-889" y="16"/>
			<point x="-850" y="-12"/>
		</contour>
		<contour>
			<point x="-370" y="255" type="line"/>
			<point x="-230" y="255" type="line"/>
			<point x="-193" y="574" type="line"/>
			<point x="-193" y="684" type="line"/>
			<point x="-406" y="684" type="line"/>
			<point x="-406" y="574" type="line"/>
		</contour>
		<contour>
			<point x="-298" y="-12" type="curve" smooth="yes"/>
			<point x="-222" y="-12"/>
			<point x="-183" y="16"/>
			<point x="-183" y="92" type="curve" smooth="yes"/>
			<point x="-183" y="165"/>
			<point x="-221" y="195"/>
			<point x="-298" y="195" type="curve" smooth="yes"/>
			<point x="-377" y="195"/>
			<point x="-415" y="165"/>
			<point x="-415" y="92" type="curve" smooth="yes"/>
			<point x="-415" y="16"/>
			<point x="-376" y="-12"/>
		</contour>
		<contour>
			<point x="175" y="-12" type="curve" smooth="yes"/>
			<point x="258" y="-12"/>
			<point x="301" y="19"/>
			<point x="301" y="102" type="curve" smooth="yes"/>
			<point x="301" y="184"/>
			<point x="258" y="215"/>
			<point x="175" y="215" type="curve" smooth="yes"/>
			<point x="92" y="215"/>
			<point x="49" y="184"/>
			<point x="49" y="102" type="curve" smooth="yes"/>
			<point x="49" y="19"/>
			<point x="92" y="-12"/>
		</contour>
	</outline>
</glyph>
<glyph name="five.den" format="2">
	<advance width="600"/>
	<outline>
		<contour>
			<point x="290" y="-8" type="curve" smooth="yes"/>
			<point x="395" y="-8"/>
			<point x="460" y="52"/>
			<point x="460" y="142" type="curve" smooth="yes"/>
			<point x="460" y="223"/>
			<point x="417" y="259"/>
			<point x="321" y="259" type="curve" smooth="yes"/>
			<point x="306" y="259"/>
			<point x="291" y="259"/>
			<point x="276" y="257" type="curve"/>
			<point x="276" y="312" type="line"/>
			<point x="449" y="312" type="line"/>
			<point x="449" y="410" type="line"/>
			<point x="161" y="410" type="line"/>
			<point x="161" y="163" type="line"/>
			<point x="204" y="170"/>
			<point x="229" y="172"/>
			<point x="261" y="172" type="curve" smooth="yes"/>
			<point x="315" y="172"/>
			<point x="333" y="158"/>
			<point x="333" y="136" type="curve" smooth="yes"/>
			<point x="333" y="113"/>
			<point x="318" y="93"/>
			<point x="274" y="93" type="curve" smooth="yes"/>
			<point x="231" y="93"/>
			<point x="185" y="106"/>
			<point x="145" y="126" type="curve"/>
			<point x="145" y="23" type="line"/>
			<point x="185" y="2"/>
			<point x="233" y="-8"/>
		</contour>
	</outline>
</glyph>
<glyph name="five.numr" format="2">
	<advance width="600"/>
	<outline>
		<contour>
			<point x="291" y="366" type="curve" smooth="yes"/>
			<point x="381" y="366"/>
			<point x="436" y="416"/>
			<point x="436" y="492" type="curve" smooth="yes"/>
			<point x="436" y="562"/>
			<point x="400" y="592"/>
			<point x="318" y="592" type="curve" smooth="yes"/>
			<point x="302" y="592"/>
			<point x="288" y="591"/>
			<point x="274" y="590" type="curve"/>
			<point x="274" y="625" type="line"/>
			<point x="427" y="625" type="line"/>
			<point x="427" y="718" type="line"/>
			<point x="182" y="718" type="line"/>
			<point x="182" y="508" type="line"/>
			<point x="218" y="513"/>
			<point x="244" y="514"/>
			<point x="265" y="514" type="curve" smooth="yes"/>
			<point x="309" y="514"/>
			<point x="323" y="503"/>
			<point x="323" y="487" type="curve" smooth="yes"/>
			<point x="323" y="471"/>
			<point x="313" y="455"/>
			<point x="276" y="455" type="curve" smooth="yes"/>
			<point x="243" y="455"/>
			<point x="205" y="464"/>
			<point x="168" y="482" type="curve"/>
			<point x="168" y="390" type="line"/>
			<point x="201" y="374"/>
			<point x="241" y="366"/>
		</contour>
	</outline>
	<guideline x="283" y="629" angle="90" identifier="S9cXFPubzM"/>
</glyph>
<glyph name="four.den" format="2">
	<advance width="600"/>
	<outline>
		<contour>
			<point x="303" y="0" type="line"/>
			<point x="427" y="0" type="line"/>
			<point x="427" y="62" type="line"/>
			<point x="461" y="62" type="line"/>
			<point x="461" y="161" type="line"/>
			<point x="427" y="161" type="line"/>
			<point x="427" y="410" type="line"/>
			<point x="232" y="410" type="line"/>
			<point x="120" y="161" type="line"/>
			<point x="120" y="63" type="line"/>
			<point x="303" y="63" type="line"/>
		</contour>
		<contour>
			<point x="228" y="161" type="line"/>
			<point x="303" y="330" type="line"/>
			<point x="303" y="161" type="line"/>
		</contour>
	</outline>
</glyph>
<glyph name="four.numr" format="2">
	<advance width="600"/>
	<outline>
		<contour>
			<point x="297" y="372" type="line"/>
			<point x="407" y="372" type="line"/>
			<point x="407" y="422" type="line"/>
			<point x="434" y="422" type="line"/>
			<point x="434" y="510" type="line"/>
			<point x="407" y="510" type="line"/>
			<point x="407" y="717" type="line"/>
			<point x="232" y="717" type="line"/>
			<point x="145" y="510" type="line"/>
			<point x="145" y="423" type="line"/>
			<point x="297" y="423" type="line"/>
		</contour>
		<contour>
			<point x="239" y="510" type="line"/>
			<point x="297" y="647" type="line"/>
			<point x="297" y="510" type="line"/>
		</contour>
	</outline>
</glyph>
<glyph name="greater_equal.fina" format="2">
	<advance width="600"/>
	<outline>
		<contour>
			<point x="103" y="0" type="line"/>
			<point x="318" y="0" type="line"/>
			<point x="572" y="314" type="line"/>
			<point x="315" y="629" type="line"/>
			<point x="100" y="629" type="line"/>
			<point x="197" y="511" type="line"/>
			<point x="0" y="511" type="line"/>
			<point x="0" y="351" type="line"/>
			<point x="329" y="351" type="line"/>
			<point x="357" y="318" type="line"/>
			<point x="325" y="278" type="line"/>
			<point x="0" y="278" type="line"/>
			<point x="0" y="118" type="line"/>
			<point x="197" y="118" type="line"/>
		</contour>
	</outline>
</glyph>
<glyph name="greater_equal.init" format="2">
	<advance width="600"/>
	<outline>
		<contour>
			<point x="272" y="351" type="line"/>
			<point x="600" y="351" type="line"/>
			<point x="600" y="511" type="line"/>
			<point x="358" y="511" type="line"/>
			<point x="264" y="629" type="line"/>
			<point x="47" y="629" type="line"/>
		</contour>
		<contour>
			<point x="50" y="0" type="line"/>
			<point x="267" y="0" type="line"/>
			<point x="360" y="118" type="line"/>
			<point x="600" y="118" type="line"/>
			<point x="600" y="278" type="line"/>
			<point x="271" y="278" type="line"/>
		</contour>
	</outline>
</glyph>
<glyph name="greater_greater.cLig" format="2">
	<advance width="600"/>
	<outline>
		<contour>
			<point x="-522" y="14" type="line"/>
			<point x="-38" y="197" type="line"/>
			<point x="-38" y="411" type="line"/>
			<point x="-522" y="597" type="line"/>
			<point x="-522" y="414" type="line"/>
			<point x="-200" y="306" type="line"/>
			<point x="-522" y="196" type="line"/>
		</contour>
		<contour>
			<point x="48" y="14" type="line"/>
			<point x="532" y="197" type="line"/>
			<point x="532" y="411" type="line"/>
			<point x="48" y="597" type="line"/>
			<point x="48" y="414" type="line"/>
			<point x="370" y="306" type="line"/>
			<point x="48" y="196" type="line"/>
		</contour>
	</outline>
</glyph>
<glyph name="greater_greater_equal.fina" format="2">
	<advance width="600"/>
	<outline>
		<contour>
			<point x="30" y="0" type="line"/>
			<point x="245" y="0" type="line"/>
			<point x="499" y="314" type="line"/>
			<point x="242" y="629" type="line"/>
			<point x="27" y="629" type="line"/>
			<point x="284" y="318" type="line"/>
		</contour>
		<contour>
			<point x="-600" y="118" type="line"/>
			<point x="-273" y="118" type="line"/>
			<point x="-367" y="0" type="line"/>
			<point x="-152" y="0" type="line"/>
			<point x="102" y="314" type="line"/>
			<point x="-155" y="629" type="line"/>
			<point x="-370" y="629" type="line"/>
			<point x="-273" y="511" type="line"/>
			<point x="-600" y="511" type="line"/>
			<point x="-600" y="351" type="line"/>
			<point x="-141" y="351" type="line"/>
			<point x="-113" y="318" type="line"/>
			<point x="-145" y="278" type="line"/>
			<point x="-600" y="278" type="line"/>
		</contour>
	</outline>
</glyph>
<glyph name="greater_greater_equal.med" format="2">
	<advance width="600"/>
	<outline>
		<contour>
			<point x="-497" y="0" type="line"/>
			<point x="-282" y="0" type="line"/>
			<point x="-28" y="314" type="line"/>
			<point x="-285" y="629" type="line"/>
			<point x="-500" y="629" type="line"/>
			<point x="-403" y="511" type="line"/>
			<point x="-600" y="511" type="line"/>
			<point x="-600" y="351" type="line"/>
			<point x="-271" y="351" type="line"/>
			<point x="-243" y="318" type="line"/>
			<point x="-275" y="278" type="line"/>
			<point x="-600" y="278" type="line"/>
			<point x="-600" y="118" type="line"/>
			<point x="-403" y="118" type="line"/>
		</contour>
		<contour>
			<point x="125" y="351" type="line"/>
			<point x="600" y="351" type="line"/>
			<point x="600" y="511" type="line"/>
			<point x="211" y="511" type="line"/>
			<point x="117" y="629" type="line"/>
			<point x="-100" y="629" type="line"/>
		</contour>
		<contour>
			<point x="-97" y="0" type="line"/>
			<point x="120" y="0" type="line"/>
			<point x="213" y="118" type="line"/>
			<point x="600" y="118" type="line"/>
			<point x="600" y="278" type="line"/>
			<point x="124" y="278" type="line"/>
		</contour>
	</outline>
</glyph>
<glyph name="greater_greater_greater.cLig" format="2">
	<advance width="600"/>
	<outline>
		<contour>
			<point x="-1122" y="14" type="line"/>
			<point x="-638" y="197" type="line"/>
			<point x="-638" y="411" type="line"/>
			<point x="-1122" y="597" type="line"/>
			<point x="-1122" y="414" type="line"/>
			<point x="-800" y="306" type="line"/>
			<point x="-1122" y="196" type="line"/>
		</contour>
		<contour>
			<point x="-542" y="14" type="line"/>
			<point x="-58" y="197" type="line"/>
			<point x="-58" y="411" type="line"/>
			<point x="-542" y="597" type="line"/>
			<point x="-542" y="414" type="line"/>
			<point x="-220" y="306" type="line"/>
			<point x="-542" y="196" type="line"/>
		</contour>
		<contour>
			<point x="38" y="14" type="line"/>
			<point x="522" y="197" type="line"/>
			<point x="522" y="411" type="line"/>
			<point x="38" y="597" type="line"/>
			<point x="38" y="414" type="line"/>
			<point x="360" y="306" type="line"/>
			<point x="38" y="196" type="line"/>
		</contour>
	</outline>
</glyph>
<glyph name="greater_greater_hyphen.med" format="2">
	<advance width="600"/>
	<outline>
		<contour>
			<point x="-50" y="0" type="line"/>
			<point x="165" y="0" type="line"/>
			<point x="349" y="228" type="line"/>
			<point x="600" y="228" type="line"/>
			<point x="600" y="400" type="line"/>
			<point x="349" y="400" type="line"/>
			<point x="162" y="629" type="line"/>
			<point x="-53" y="629" type="line"/>
			<point x="204" y="318" type="line"/>
		</contour>
		<contour>
			<point x="-600" y="228" type="line"/>
			<point x="-254" y="228" type="line"/>
			<point x="-451" y="0" type="line"/>
			<point x="-234" y="0" type="line"/>
			<point x="30" y="314" type="line"/>
			<point x="-237" y="629" type="line"/>
			<point x="-454" y="629" type="line"/>
			<point x="-254" y="400" type="line"/>
			<point x="-600" y="400" type="line"/>
		</contour>
	</outline>
</glyph>
<glyph name="greater_hyphen.fina" format="2">
	<advance width="600"/>
	<outline>
		<contour>
			<point x="56" y="629" type="line"/>
			<point x="256" y="400" type="line"/>
			<point x="0" y="400" type="line"/>
			<point x="0" y="228" type="line"/>
			<point x="256" y="228" type="line"/>
			<point x="59" y="0" type="line"/>
			<point x="276" y="0" type="line"/>
			<point x="540" y="314" type="line"/>
			<point x="273" y="629" type="line"/>
		</contour>
	</outline>
</glyph>
<glyph name="greater_hyphen.rem" format="2">
	<advance width="600"/>
	<outline>
		<contour>
			<point x="-497" y="0" type="line"/>
			<point x="-277" y="0" type="line"/>
			<point x="-89" y="228" type="line"/>
			<point x="470" y="228" type="line"/>
			<point x="470" y="400" type="line"/>
			<point x="-90" y="400" type="line"/>
			<point x="-280" y="629" type="line"/>
			<point x="-500" y="629" type="line"/>
			<point x="-235" y="315" type="line"/>
		</contour>
	</outline>
</glyph>
<glyph name="hungarumlaut.cap" format="2">
	<advance width="600"/>
	<outline>
		<contour>
			<point x="302" y="741" type="line"/>
			<point x="422" y="741" type="line"/>
			<point x="507" y="884" type="line"/>
			<point x="343" y="884" type="line"/>
		</contour>
		<contour>
			<point x="92" y="741" type="line"/>
			<point x="213" y="741" type="line"/>
			<point x="297" y="884" type="line"/>
			<point x="133" y="884" type="line"/>
		</contour>
	</outline>
	<anchor name="_top" x="258" y="684"/>
</glyph>
<glyph name="hyphen.init" format="2">
	<advance width="600"/>
	<outline>
		<contour>
			<point x="150" y="228" type="line"/>
			<point x="600" y="228" type="line"/>
			<point x="600" y="400" type="line"/>
			<point x="150" y="400" type="line"/>
		</contour>
	</outline>
</glyph>
<glyph name="hyphen_bar.rem" format="2">
	<advance width="600"/>
	<outline>
		<contour>
			<point x="220" y="684" type="line"/>
			<point x="220" y="400" type="line"/>
			<point x="-450" y="400" type="line"/>
			<point x="-450" y="228" type="line"/>
			<point x="220" y="228" type="line"/>
			<point x="220" y="-55" type="line"/>
			<point x="400" y="-55" type="line"/>
			<point x="400" y="684" type="line"/>
		</contour>
	</outline>
</glyph>
<glyph name="hyphen_braceright.rem" format="2">
	<advance width="600"/>
	<outline>
		<contour>
			<point x="-21" y="-163" type="line"/>
			<point x="190" y="-163" type="line" smooth="yes"/>
			<point x="301" y="-163"/>
			<point x="366" y="-107"/>
			<point x="366" y="-32" type="curve" smooth="yes"/>
			<point x="366" y="57"/>
			<point x="284" y="110"/>
			<point x="284" y="166" type="curve" smooth="yes"/>
			<point x="284" y="204"/>
			<point x="305" y="234"/>
			<point x="365" y="234" type="curve" smooth="yes"/>
			<point x="450" y="234" type="line"/>
			<point x="450" y="392" type="line"/>
			<point x="365" y="392" type="line" smooth="yes"/>
			<point x="305" y="392"/>
			<point x="284" y="418"/>
			<point x="284" y="450" type="curve" smooth="yes"/>
			<point x="284" y="510"/>
			<point x="366" y="568"/>
			<point x="366" y="659" type="curve" smooth="yes"/>
			<point x="366" y="735"/>
			<point x="303" y="792"/>
			<point x="190" y="792" type="curve" smooth="yes"/>
			<point x="-21" y="792" type="line"/>
			<point x="-21" y="655" type="line"/>
			<point x="116" y="655" type="line" smooth="yes"/>
			<point x="149" y="655"/>
			<point x="164" y="645"/>
			<point x="164" y="624" type="curve" smooth="yes"/>
			<point x="164" y="582"/>
			<point x="89" y="537"/>
			<point x="89" y="481" type="curve"/>
			<point x="89" y="435"/>
			<point x="131" y="411"/>
			<point x="195" y="396" type="curve"/>
			<point x="-450" y="396" type="line"/>
			<point x="-450" y="232" type="line"/>
			<point x="182" y="232" type="line"/>
			<point x="125" y="210"/>
			<point x="89" y="186"/>
			<point x="89" y="142" type="curve"/>
			<point x="89" y="86"/>
			<point x="164" y="48"/>
			<point x="164" y="5" type="curve" smooth="yes"/>
			<point x="164" y="-11"/>
			<point x="150" y="-26"/>
			<point x="107" y="-26" type="curve" smooth="yes"/>
			<point x="-21" y="-26" type="line"/>
		</contour>
	</outline>
</glyph>
<glyph name="hyphen_greater_greater.rem" format="2">
	<advance width="600"/>
	<outline>
		<contour>
			<point x="16" y="0" type="line"/>
			<point x="231" y="0" type="line"/>
			<point x="485" y="314" type="line"/>
			<point x="228" y="629" type="line"/>
			<point x="13" y="629" type="line"/>
			<point x="270" y="318" type="line"/>
		</contour>
		<contour>
			<point x="-1050" y="228" type="line"/>
			<point x="-186" y="228" type="line"/>
			<point x="-383" y="0" type="line"/>
			<point x="-166" y="0" type="line"/>
			<point x="98" y="314" type="line"/>
			<point x="-169" y="629" type="line"/>
			<point x="-386" y="629" type="line"/>
			<point x="-186" y="400" type="line"/>
			<point x="-1050" y="400" type="line"/>
		</contour>
	</outline>
</glyph>
<glyph name="hyphen_hyphen.cLig" format="2">
	<advance width="600"/>
	<outline>
		<contour>
			<point x="-78" y="390" type="line"/>
			<point x="-448" y="390" type="line"/>
			<point x="-448" y="218" type="line"/>
			<point x="-78" y="218" type="line"/>
		</contour>
		<contour>
			<point x="447" y="390" type="line"/>
			<point x="77" y="390" type="line"/>
			<point x="77" y="218" type="line"/>
			<point x="447" y="218" type="line"/>
		</contour>
	</outline>
</glyph>
<glyph name="hyphen_less.rem" format="2">
	<advance width="600"/>
	<outline>
		<contour>
			<point x="497" y="629" type="line"/>
			<point x="277" y="629" type="line"/>
			<point x="89" y="401" type="line"/>
			<point x="-470" y="401" type="line"/>
			<point x="-470" y="229" type="line"/>
			<point x="90" y="229" type="line"/>
			<point x="280" y="0" type="line"/>
			<point x="500" y="0" type="line"/>
			<point x="235" y="314" type="line"/>
		</contour>
	</outline>
</glyph>
<glyph name="hyphen_less_less.rem" format="2">
	<advance width="600"/>
	<outline>
		<contour>
			<point x="507" y="629" type="line"/>
			<point x="287" y="629" type="line"/>
			<point x="28" y="315" type="line"/>
			<point x="290" y="0" type="line"/>
			<point x="510" y="0" type="line"/>
			<point x="242" y="314" type="line"/>
		</contour>
		<contour>
			<point x="107" y="629" type="line"/>
			<point x="-113" y="629" type="line"/>
			<point x="-301" y="401" type="line"/>
			<point x="-1060" y="401" type="line"/>
			<point x="-1060" y="229" type="line"/>
			<point x="-300" y="229" type="line"/>
			<point x="-110" y="0" type="line"/>
			<point x="110" y="0" type="line"/>
			<point x="-155" y="314" type="line"/>
		</contour>
	</outline>
</glyph>
<glyph name="less_asciitilde.cLig" format="2">
	<advance width="600"/>
	<outline>
		<contour>
			<point x="-46" y="0" type="line"/>
			<point x="-246" y="229" type="line"/>
			<point x="92" y="229" type="line"/>
			<point x="96" y="266"/>
			<point x="111" y="293"/>
			<point x="143" y="293" type="curve" smooth="yes"/>
			<point x="196" y="293"/>
			<point x="237" y="181"/>
			<point x="352" y="181" type="curve"/>
			<point x="457" y="181"/>
			<point x="510" y="255"/>
			<point x="510" y="452" type="curve"/>
			<point x="369" y="452" type="line"/>
			<point x="369" y="388"/>
			<point x="358" y="357"/>
			<point x="322" y="357" type="curve"/>
			<point x="274" y="357"/>
			<point x="218" y="466"/>
			<point x="116" y="466" type="curve" smooth="yes"/>
			<point x="63" y="466"/>
			<point x="24" y="445"/>
			<point x="-1" y="401" type="curve"/>
			<point x="-246" y="401" type="line"/>
			<point x="-49" y="629" type="line"/>
			<point x="-266" y="629" type="line"/>
			<point x="-530" y="315" type="line"/>
			<point x="-263" y="0" type="line"/>
		</contour>
	</outline>
</glyph>
<glyph name="less_asciitilde_asciitilde.cLig" format="2">
	<advance width="600"/>
	<outline>
		<contour>
			<point x="-657" y="0" type="line"/>
			<point x="-857" y="229" type="line"/>
			<point x="-609" y="229" type="line"/>
			<point x="-575" y="186"/>
			<point x="-535" y="169"/>
			<point x="-497" y="169" type="curve"/>
			<point x="-383" y="169"/>
			<point x="-366" y="286"/>
			<point x="-298" y="286" type="curve" smooth="yes"/>
			<point x="-230" y="286"/>
			<point x="-207" y="172"/>
			<point x="-102" y="172" type="curve" smooth="yes"/>
			<point x="5" y="172"/>
			<point x="26" y="286"/>
			<point x="94" y="286" type="curve" smooth="yes"/>
			<point x="161" y="286"/>
			<point x="188" y="172"/>
			<point x="302" y="172" type="curve" smooth="yes"/>
			<point x="408" y="172"/>
			<point x="497" y="265"/>
			<point x="520" y="452" type="curve"/>
			<point x="372" y="452" type="line"/>
			<point x="362" y="395"/>
			<point x="339" y="350"/>
			<point x="290" y="350" type="curve"/>
			<point x="230" y="350"/>
			<point x="205" y="460"/>
			<point x="94" y="460" type="curve" smooth="yes"/>
			<point x="-20" y="460"/>
			<point x="-32" y="351"/>
			<point x="-101" y="351" type="curve" smooth="yes"/>
			<point x="-169" y="351"/>
			<point x="-179" y="460"/>
			<point x="-297" y="460" type="curve"/>
			<point x="-404" y="460"/>
			<point x="-416" y="344"/>
			<point x="-483" y="344" type="curve" smooth="yes"/>
			<point x="-516" y="344"/>
			<point x="-530" y="363"/>
			<point x="-552" y="401" type="curve"/>
			<point x="-857" y="401" type="line"/>
			<point x="-660" y="629" type="line"/>
			<point x="-877" y="629" type="line"/>
			<point x="-1141" y="315" type="line"/>
			<point x="-874" y="0" type="line"/>
		</contour>
	</outline>
</glyph>
<glyph name="less_asciitilde_greater.cLig" format="2">
	<advance width="600"/>
	<outline>
		<contour>
			<point x="-813" y="0" type="line"/>
			<point x="-596" y="0" type="line"/>
			<point x="-796" y="229" type="line"/>
			<point x="-463" y="229" type="line"/>
			<point x="-462" y="264"/>
			<point x="-441" y="292"/>
			<point x="-406" y="292" type="curve" smooth="yes"/>
			<point x="-326" y="292"/>
			<point x="-317" y="164"/>
			<point x="-173" y="164" type="curve" smooth="yes"/>
			<point x="-121" y="164"/>
			<point x="-75" y="186"/>
			<point x="-50" y="229" type="curve"/>
			<point x="196" y="229" type="line"/>
			<point x="-1" y="0" type="line"/>
			<point x="216" y="0" type="line"/>
			<point x="480" y="314" type="line"/>
			<point x="213" y="629" type="line"/>
			<point x="-4" y="629" type="line"/>
			<point x="196" y="401" type="line"/>
			<point x="-137" y="401" type="line"/>
			<point x="-139" y="366"/>
			<point x="-154" y="338"/>
			<point x="-189" y="338" type="curve" smooth="yes"/>
			<point x="-257" y="338"/>
			<point x="-285" y="466"/>
			<point x="-423" y="466" type="curve" smooth="yes"/>
			<point x="-475" y="466"/>
			<point x="-525" y="444"/>
			<point x="-550" y="401" type="curve"/>
			<point x="-797" y="401" type="line"/>
			<point x="-599" y="629" type="line"/>
			<point x="-816" y="629" type="line"/>
			<point x="-1080" y="315" type="line"/>
		</contour>
	</outline>
</glyph>
<glyph name="less_asterisk.cLig" format="2">
	<advance width="600"/>
	<outline>
		<contour>
			<point x="-46" y="-14" type="line"/>
			<point x="-46" y="168" type="line"/>
			<point x="-363" y="317" type="line"/>
			<point x="-46" y="463" type="line"/>
			<point x="-46" y="646" type="line"/>
			<point x="-500" y="422" type="line"/>
			<point x="-500" y="208" type="line"/>
		</contour>
		<contour>
			<point x="422" y="117" type="line"/>
			<point x="514" y="274" type="line"/>
			<point x="333" y="322" type="line"/>
			<point x="515" y="368" type="line"/>
			<point x="425" y="526" type="line"/>
			<point x="291" y="392" type="line"/>
			<point x="342" y="575" type="line"/>
			<point x="159" y="575" type="line"/>
			<point x="210" y="392" type="line"/>
			<point x="76" y="528" type="line"/>
			<point x="-15" y="370" type="line"/>
			<point x="169" y="322" type="line"/>
			<point x="-14" y="275" type="line"/>
			<point x="77" y="117" type="line"/>
			<point x="209" y="251" type="line"/>
			<point x="159" y="69" type="line"/>
			<point x="342" y="69" type="line"/>
			<point x="292" y="249" type="line"/>
		</contour>
	</outline>
	<guideline x="-500" y="422" angle="0" identifier="rKmEMYsP1S"/>
</glyph>
<glyph name="less_asterisk_greater.cLig" format="2">
	<advance width="600"/>
	<outline>
		<contour>
			<point x="36" y="-14" type="line"/>
			<point x="490" y="208" type="line"/>
			<point x="490" y="422" type="line"/>
			<point x="36" y="646" type="line"/>
			<point x="36" y="463" type="line"/>
			<point x="353" y="317" type="line"/>
			<point x="36" y="168" type="line"/>
		</contour>
		<contour>
			<point x="-636" y="-14" type="line"/>
			<point x="-636" y="168" type="line"/>
			<point x="-953" y="317" type="line"/>
			<point x="-636" y="463" type="line"/>
			<point x="-636" y="646" type="line"/>
			<point x="-1090" y="422" type="line"/>
			<point x="-1090" y="208" type="line"/>
		</contour>
		<contour>
			<point x="-128" y="117" type="line"/>
			<point x="-36" y="274" type="line"/>
			<point x="-217" y="322" type="line"/>
			<point x="-35" y="368" type="line"/>
			<point x="-125" y="526" type="line"/>
			<point x="-259" y="392" type="line"/>
			<point x="-208" y="575" type="line"/>
			<point x="-391" y="575" type="line"/>
			<point x="-340" y="392" type="line"/>
			<point x="-474" y="528" type="line"/>
			<point x="-565" y="370" type="line"/>
			<point x="-381" y="322" type="line"/>
			<point x="-564" y="275" type="line"/>
			<point x="-473" y="117" type="line"/>
			<point x="-341" y="251" type="line"/>
			<point x="-391" y="69" type="line"/>
			<point x="-208" y="69" type="line"/>
			<point x="-258" y="249" type="line"/>
		</contour>
	</outline>
</glyph>
<glyph name="less_bar.cLig" format="2">
	<advance width="600"/>
	<outline>
		<contour>
			<point x="320" y="708" type="line"/>
			<point x="140" y="708" type="line"/>
			<point x="-364" y="421" type="line"/>
			<point x="-364" y="207" type="line"/>
			<point x="140" y="-79" type="line"/>
			<point x="320" y="-79" type="line"/>
		</contour>
		<contour>
			<point x="140" y="122" type="line"/>
			<point x="-207" y="313" type="line"/>
			<point x="140" y="508" type="line"/>
		</contour>
	</outline>
</glyph>
<glyph name="less_bar_bar.cLig" format="2">
	<advance width="600"/>
	<outline>
		<contour>
			<point x="290" y="-79" type="line"/>
			<point x="290" y="708" type="line"/>
			<point x="110" y="708" type="line"/>
			<point x="110" y="-79" type="line"/>
		</contour>
		<contour>
			<point x="-270" y="708" type="line"/>
			<point x="-450" y="708" type="line"/>
			<point x="-954" y="421" type="line"/>
			<point x="-954" y="207" type="line"/>
			<point x="-450" y="-79" type="line"/>
			<point x="-270" y="-79" type="line"/>
		</contour>
		<contour>
			<point x="-450" y="122" type="line"/>
			<point x="-797" y="313" type="line"/>
			<point x="-450" y="508" type="line"/>
		</contour>
	</outline>
</glyph>
<glyph name="less_bar_bar_bar.cLig" format="2">
	<advance width="600"/>
	<outline>
		<contour>
			<point x="-290" y="708" type="line"/>
			<point x="-470" y="708" type="line"/>
			<point x="-470" y="-79" type="line"/>
			<point x="-290" y="-79" type="line"/>
		</contour>
		<contour>
			<point x="270" y="708" type="line"/>
			<point x="90" y="708" type="line"/>
			<point x="90" y="-79" type="line"/>
			<point x="270" y="-79" type="line"/>
		</contour>
		<contour>
			<point x="-850" y="708" type="line"/>
			<point x="-1030" y="708" type="line"/>
			<point x="-1534" y="421" type="line"/>
			<point x="-1534" y="207" type="line"/>
			<point x="-1030" y="-79" type="line"/>
			<point x="-850" y="-79" type="line"/>
		</contour>
		<contour>
			<point x="-1030" y="122" type="line"/>
			<point x="-1377" y="313" type="line"/>
			<point x="-1030" y="508" type="line"/>
		</contour>
	</outline>
</glyph>
